<?xml version="1.0" encoding="UTF-8"?>
<svg id="_Слой_2" data-name="Слой 2" xmlns="http://www.w3.org/2000/svg" viewBox="0 0 4.79 10.32">
  <defs>
    <style>
      .cls-1 {
        fill: #1d2c3b;
      }
    </style>
  </defs>
  <g id="_Слой_1-2" data-name="Слой 1">
    <path class="cls-1" d="m3.55,7.99c-.23.23-.53.38-.85.45v-2.87c.48.16,1.03.37,1.23.89.2.51,0,1.15-.38,1.53Zm-2.17-3.82c-.66-.56-.5-1.64.2-2.08.12-.08.26-.14.4-.18v2.6c-.22-.08-.42-.19-.6-.34Zm2.75,1.23c-.41-.35-.93-.51-1.43-.66V1.84c.49.05.94.26,1.28.61l.58-.55c-.49-.5-1.15-.8-1.86-.85V0h-.72v1.09c-.25.05-.48.13-.71.25C.37,1.84-.1,3,.27,3.98c.29.76.99,1.09,1.71,1.35v3.14c-.56-.07-1.02-.39-1.41-.79l-.58.55c.27.31.6.57.97.77.32.15.66.24,1.02.27v1.05h.72v-1.08c.83-.14,1.58-.65,1.91-1.44.33-.79.21-1.81-.48-2.4Z"/>
  </g>
</svg>