<?xml version="1.0" encoding="UTF-8"?>
<svg id="_Слой_2" data-name="Слой 2" xmlns="http://www.w3.org/2000/svg" viewBox="0 0 10.56 7.68">
  <defs>
    <style>
      .cls-1 {
        fill: #1d2c3b;
      }
    </style>
  </defs>
  <g id="_Слой_1-2" data-name="Слой 1">
    <path class="cls-1" d="m4.44,5.88H.72V1.56h3.29l.29-.72H.48c-.26,0-.48.22-.48.48v4.8c0,.27.22.48.48.48h3.96v-.72Z"/>
    <path class="cls-1" d="m10.08,2.64h-.48v-1.32c0-.27-.22-.48-.48-.48h-3.48v.72h3.24v4.32h-2.64l-.32.72h3.2c.26,0,.48-.22.48-.48v-1.32h.48c.26,0,.48-.22.48-.48v-1.2c0-.26-.22-.48-.48-.48Z"/>
    <polygon class="cls-1" points="5.16 3.6 5.16 0 3.2 4.8 4.92 4.8 4.92 7.68 6.72 3.6 5.16 3.6"/>
  </g>
</svg>