<?xml version="1.0" encoding="UTF-8"?>
<svg id="_Слой_2" data-name="Слой 2" xmlns="http://www.w3.org/2000/svg" viewBox="0 0 9.6 7.44">
  <defs>
    <style>
      .cls-1 {
        fill: #1d2c3b;
      }
    </style>
  </defs>
  <g id="_Слой_1-2" data-name="Слой 1">
    <polygon class="cls-1" points="2.03 5.51 1.69 5.17 2.72 4.14 1.69 3.11 2.03 2.77 3.4 4.14 2.03 5.51"/>
    <path class="cls-1" d="m8.88,6.72H.72V1.92h8.16v4.8ZM6.6.72c.13,0,.24.11.24.24s-.11.24-.24.24-.24-.11-.24-.24.11-.24.24-.24Zm.84,0c.13,0,.24.11.24.24s-.11.24-.24.24-.24-.11-.24-.24.11-.24.24-.24Zm.84,0c.13,0,.24.11.24.24s-.11.24-.24.24-.24-.11-.24-.24.11-.24.24-.24ZM0,0v7.44h9.6V0H0Z"/>
    <rect class="cls-1" x="3.6" y="5.04" width="1.92" height=".48"/>
  </g>
</svg>