<?xml version="1.0" encoding="UTF-8"?>
<svg id="_Слой_2" data-name="Слой 2" xmlns="http://www.w3.org/2000/svg" viewBox="0 0 10.32 8.26">
  <defs>
    <style>
      .cls-1 {
        fill: #1d2c3b;
      }
    </style>
  </defs>
  <g id="_Слой_1-2" data-name="Слой 1">
    <path class="cls-1" d="m9.36,5.38h-1.2v-2.37l1.2.22v2.15ZM2.16,1.8v1.54H.96v-1.24l1.2-.29Zm3.36,1.54h-1.2V1.27l1.2-.3v2.36Zm1.92.48v1.56h-1.2v-1.56h1.2Zm-3.12,0h1.2v1.56h-1.2v-1.56Zm-1.68-.48v-1.66l1.2-.3v1.95h-1.2Zm0,.48h1.2v1.56h-1.2v-1.56Zm-1.68,0h1.2v1.56H.96v-1.56Zm9.36-1.15l-3.12-.57v.02s0,.71,0,.71l.24.04v.46h-1.2V.8l.24-.06v-.74L0,1.59v.74l.24-.06v5.99h6v-1.68h1.2v1.68h2.64V3.36l.24.04v-.73Z"/>
  </g>
</svg>