<?xml version="1.0" encoding="UTF-8"?>
<svg id="_Слой_2" data-name="Слой 2" xmlns="http://www.w3.org/2000/svg" viewBox="0 0 10.08 9">
  <defs>
    <style>
      .cls-1 {
        fill: #1d2c3b;
      }
    </style>
  </defs>
  <g id="_Слой_1-2" data-name="Слой 1">
    <rect class="cls-1" x=".48" y="7.56" width="9.12" height=".48"/>
    <rect class="cls-1" y="8.52" width="10.08" height=".48"/>
    <polygon class="cls-1" points="2.4 3.36 2.4 3.12 .96 3.12 .96 3.36 1.32 3.6 1.2 6.68 .96 6.84 .96 7.08 2.4 7.08 2.4 6.84 2.16 6.68 2.04 3.6 2.4 3.36"/>
    <polygon class="cls-1" points="4.08 3.36 4.08 3.12 2.64 3.12 2.64 3.36 3 3.6 2.88 6.68 2.64 6.84 2.64 7.08 4.08 7.08 4.08 6.84 3.84 6.68 3.72 3.6 4.08 3.36"/>
    <polygon class="cls-1" points="5.76 3.36 5.76 3.12 4.32 3.12 4.32 3.36 4.68 3.6 4.56 6.68 4.32 6.84 4.32 7.08 5.76 7.08 5.76 6.84 5.52 6.68 5.4 3.6 5.76 3.36"/>
    <polygon class="cls-1" points="7.44 3.36 7.44 3.12 6 3.12 6 3.36 6.36 3.6 6.24 6.68 6 6.84 6 7.08 7.44 7.08 7.44 6.84 7.2 6.68 7.08 3.6 7.44 3.36"/>
    <polygon class="cls-1" points="9.12 3.36 9.12 3.12 7.68 3.12 7.68 3.36 8.04 3.6 7.92 6.68 7.68 6.84 7.68 7.08 9.12 7.08 9.12 6.84 8.88 6.68 8.76 3.6 9.12 3.36"/>
    <polygon class="cls-1" points=".84 2.64 9.24 2.64 9.24 2.16 9.5 2.16 9.5 1.84 5.04 0 .58 1.84 .58 2.16 .84 2.16 .84 2.64"/>
  </g>
</svg>