<?xml version="1.0" encoding="UTF-8"?>
<svg id="_Слой_2" data-name="Слой 2" xmlns="http://www.w3.org/2000/svg" viewBox="0 0 79.44 79.04">
  <defs>
    <style>
      .cls-1 {
        fill: #78ebf4;
      }
    </style>
  </defs>
  <g id="_Слой_1-2" data-name="Слой 1">
    <path class="cls-1" d="m57.36,76.64c-10.85,0-19.68-8.83-19.68-19.68s8.83-19.68,19.68-19.68,19.68,8.83,19.68,19.68-8.83,19.68-19.68,19.68Zm-42.72-7.76V18h3.48v.72c0,2.45,1.99,4.44,4.44,4.44s4.44-1.99,4.44-4.44v-.72h29.16v16.91c-11.62.62-20.88,10.28-20.88,22.05,0,4.39,1.29,8.48,3.5,11.92H14.64Zm-2.4-51.48v46.08h-3.72V12.6h10.8c.66,0,1.2-.54,1.2-1.2s-.54-1.2-1.2-1.2H7.92c-.99,0-1.8.81-1.8,1.8v46.08h-3.72V7.2h16.92c.66,0,1.2-.54,1.2-1.2v-1.56c0-1.12.92-2.04,2.04-2.04.54,0,1.06.21,1.44.6.39.39.6.9.6,1.44v14.28c0,1.12-.92,2.04-2.04,2.04s-2.04-.92-2.04-2.04v-1.92c0-.66-.54-1.2-1.2-1.2h-5.28c-.99,0-1.8.81-1.8,1.8Zm14.76-4.8h23.04v3h-23.04v-3Zm0-5.4h16.92v3h-16.92v-3Zm31.56,27.71v-17.51c0-.99-.81-1.8-1.8-1.8h-4.32v-3.6c0-.99-.81-1.8-1.8-1.8h-4.32v-3.6c0-.99-.81-1.8-1.8-1.8h-17.52v-.36c0-1.18-.46-2.3-1.3-3.14-.84-.84-1.95-1.3-3.14-1.3-2.45,0-4.44,1.99-4.44,4.44v.36H1.8c-.99,0-1.8.81-1.8,1.8v52.08c0,.99.81,1.8,1.8,1.8h4.32v3.6c0,.99.81,1.8,1.8,1.8h4.32v3.6c0,.99.81,1.8,1.8,1.8h26.53c4.05,4.75,10.08,7.76,16.79,7.76,12.17,0,22.08-9.9,22.08-22.08s-9.26-21.42-20.88-22.05Z"/>
    <path class="cls-1" d="m68.64,51.85l-14.77,14.77c-.19.2-.45.3-.73.3s-.54-.11-.73-.3l-6.38-6.38c-.91-.91-.91-2.4,0-3.31.44-.44,1.03-.68,1.65-.68s1.21.24,1.65.68l3.8,3.8,12.24-12.24c.45-.45,1.05-.69,1.69-.68.64,0,1.23.27,1.67.73.86.91.82,2.4-.1,3.31h0Zm1.84-4.96c-.89-.94-2.09-1.46-3.38-1.48-1.29-.02-2.5.47-3.42,1.39l-10.54,10.54-2.1-2.1c-.45-.45-.97-.79-1.54-1.03-.57-.24-1.18-.36-1.81-.36-1.27,0-2.46.49-3.35,1.39-.9.9-1.39,2.09-1.39,3.35,0,1.27.49,2.46,1.39,3.35l6.38,6.38c.65.65,1.51,1.01,2.43,1.01.46,0,.9-.09,1.31-.26.41-.17.79-.42,1.11-.75l14.77-14.77c1.83-1.83,1.89-4.81.15-6.66Z"/>
    <path class="cls-1" d="m48.84,32.44h-28.08c-.66,0-1.2-.54-1.2-1.2s.54-1.2,1.2-1.2h28.08c.66,0,1.2.54,1.2,1.2s-.54,1.2-1.2,1.2Z"/>
    <path class="cls-1" d="m36.48,40.12h-15.72c-.66,0-1.2-.54-1.2-1.2s.54-1.2,1.2-1.2h15.72c.66,0,1.2.54,1.2,1.2s-.54,1.2-1.2,1.2Z"/>
    <path class="cls-1" d="m33.72,47.8h-12.96c-.66,0-1.2-.54-1.2-1.2s.54-1.2,1.2-1.2h12.96c.66,0,1.2.54,1.2,1.2s-.54,1.2-1.2,1.2Z"/>
    <path class="cls-1" d="m30.84,55.48h-10.08c-.66,0-1.2-.54-1.2-1.2s.54-1.2,1.2-1.2h10.08c.66,0,1.2.54,1.2,1.2s-.54,1.2-1.2,1.2Z"/>
    <path class="cls-1" d="m29.64,63.16h-8.88c-.66,0-1.2-.54-1.2-1.2s.54-1.2,1.2-1.2h8.88c.66,0,1.2.54,1.2,1.2s-.54,1.2-1.2,1.2Z"/>
  </g>
</svg>