<?xml version="1.0" encoding="UTF-8"?>
<svg id="_Слой_2" data-name="Слой 2" xmlns="http://www.w3.org/2000/svg" viewBox="0 0 9.36 8.52">
  <defs>
    <style>
      .cls-1 {
        fill: #78ebf4;
      }
    </style>
  </defs>
  <g id="_Слой_1-2" data-name="Слой 1">
    <polygon class="cls-1" points="6.84 5.88 6.84 5.64 6 5.64 6 6.96 5.76 6.96 5.76 7.2 8.04 7.2 8.04 3.12 7.03 3.12 6.79 3.36 7.8 3.36 7.8 4.56 5.88 4.56 5.88 4.8 7.8 4.8 7.8 5.64 7.44 5.64 7.44 5.88 7.8 5.88 7.8 6.96 6.24 6.96 6.24 5.88 6.84 5.88"/>
    <path class="cls-1" d="m.24,7.68c0-.33.27-.6.6-.6s.6.27.6.6-.27.6-.6.6-.6-.27-.6-.6ZM.24,1.32c0-.33.27-.6.6-.6s.6.27.6.6v5.77c-.32-.33-.85-.34-1.18-.02l-.02.02V1.32Zm8.23.36l-.24.24h.89v6.36H1.43c.13-.13.22-.3.24-.48v-.12s0-5.76,0-5.76h4.02l.24-.24H1.68v-.36c0-.46-.38-.84-.84-.84s-.84.38-.84.84v6.48c.07.39.39.69.79.72h8.57s0-6.84,0-6.84h-.89Z"/>
    <polygon class="cls-1" points="4.26 3.36 4.5 3.12 2.76 3.12 2.76 7.2 5.04 7.2 5.04 6.96 4.8 6.96 4.8 5.64 3.96 5.64 3.96 5.88 4.56 5.88 4.56 6.96 3 6.96 3 5.88 3.36 5.88 3.36 5.64 3 5.64 3 4.81 3.74 4.81 3.82 4.57 3 4.57 3 3.36 4.26 3.36"/>
    <path class="cls-1" d="m4.72,3.75l.05-.05s.1-.05.16-.05c.08,0,.16.03.21.09.1.1.12.26.04.38l-.04.04-.5.16-.08-.08.16-.5ZM7.64.82l.04-.04.42.42-.04.05-2.59,2.59c-.05-.21-.21-.37-.42-.41L7.64.82Zm.58-.58l.41.41-.37.37-.41-.41.37-.37Zm-4.08,4.5l1.13-.37,3.53-3.54c.09-.08.1-.22.02-.32,0,0,0,0-.01-.01l-.42-.42c-.09-.09-.24-.09-.33,0,0,0,0,0,0,0l-3.54,3.55-.37,1.12Z"/>
  </g>
</svg>