<?xml version="1.0" encoding="UTF-8"?>
<svg id="_Слой_2" data-name="Слой 2" xmlns="http://www.w3.org/2000/svg" xmlns:xlink="http://www.w3.org/1999/xlink" viewBox="0 0 19.92 5.88">
  <defs>
    <style>
      .cls-1 {
        fill: #fff;
      }

      .cls-2 {
        clip-path: url(#clippath);
      }

      .cls-3 {
        fill: none;
      }
    </style>
    <clipPath id="clippath">
      <rect class="cls-3" y="0" width="19.92" height="5.88"/>
    </clipPath>
  </defs>
  <g id="_Слой_1-2" data-name="Слой 1">
    <g class="cls-2">
      <polygon class="cls-1" points="15.98 4.93 4.04 4.93 4.99 5.88 15.98 4.93"/>
    </g>
    <path class="cls-1" d="m17.89,4.32v-1.9c0-.36.25-.65.61-.65s.61.3.61.65v1.9h.74v-1.9c0-.79-.53-1.42-1.32-1.42-.36,0-.63.2-.63.2v-.13h-.74v3.24h.74Z"/>
    <path class="cls-1" d="m16.1,2.27h-1.32c.15-.75,1.18-.8,1.32,0Zm-.64-1.29c-.86,0-1.46.75-1.46,1.7,0,1,.76,1.7,1.54,1.7.39,0,.88-.13,1.3-.73l-.66-.38c-.5.74-1.34.37-1.44-.38h2.12c.19-1.14-.56-1.92-1.39-1.92Z"/>
    <path class="cls-1" d="m13.75,3.55c-.07.05-.16.08-.25.08-.12,0-.35-.1-.35-.39v-1.39h.63v-.77h-.63V.26h-.74v.81h-.39v.77h.39v1.39c0,.73.55,1.15,1.09,1.15.2,0,.49-.07.71-.2l-.48-.64Z"/>
    <path class="cls-1" d="m11.04,1.07v1.9c0,.36-.25.65-.61.65s-.61-.3-.61-.65v-1.9h-.74v1.9c0,.79.54,1.42,1.32,1.42.36,0,.63-.2.63-.2v.12h.74V1.07h-.74Z"/>
    <polygon class="cls-1" points="7.7 2.59 8.97 1.07 7.94 1.07 7.05 2.2 7.05 0 6.3 0 6.3 4.32 7.05 4.32 7.05 2.99 8.14 4.32 9.17 4.32 7.7 2.59"/>
    <path class="cls-1" d="m4.44,3.62c-.42,0-.71-.4-.71-.92s.3-.92.71-.92.7.4.7.92c.01.51-.29.92-.7.92Zm.7-2.55v.14c-.23-.14-.42-.23-.69-.23-.83,0-1.48.76-1.48,1.7s.63,1.7,1.48,1.7c.27,0,.48-.08.69-.23v.14h.74V1.07h-.74Z"/>
    <path class="cls-1" d="m.86,1.04h.5c.35,0,.63.28.63.63s-.29.63-.63.63h-.5v-1.26Zm0,3.28v-1.26h.54l.94,1.25h.96l-1.14-1.51c.36-.25.58-.67.58-1.14,0-.77-.63-1.39-1.39-1.39H.09v4.05h.77Z"/>
  </g>
</svg>