<?xml version="1.0" encoding="UTF-8"?>
<svg id="_Слой_2" data-name="Слой 2" xmlns="http://www.w3.org/2000/svg" xmlns:xlink="http://www.w3.org/1999/xlink" viewBox="0 0 141.36 45.12">
  <defs>
    <style>
      .cls-1 {
        fill: #fff;
      }

      .cls-2 {
        clip-path: url(#clippath);
      }

      .cls-3 {
        fill: none;
      }
    </style>
    <clipPath id="clippath">
      <rect class="cls-3" width="141.36" height="45.12"/>
    </clipPath>
  </defs>
  <g id="_Слой_1-2" data-name="Слой 1">
    <path class="cls-1" d="m98.27,35.76v-.77c0-1.57.73-2.37,2.21-2.4.16-.01.31-.01.47-.01,1.17,0,2.11.13,2.81.4v1.59c-.75-.08-1.4-.12-1.93-.12h-.82c-.34,0-.57.04-.7.12-.13.08-.2.29-.2.61v.31c0,.29.03.47.12.55.13.13.35.2.66.2h1.17c.54,0,.95.14,1.26.43.49.47.74,1.16.74,2.07v.53c0,1.17-.33,1.94-.99,2.31-.35.19-.77.29-1.27.29-.88,0-1.52-.02-1.94-.07-.42-.05-.86-.16-1.33-.32v-1.59c.82.1,1.77.13,2.85.13.26,0,.48-.05.62-.13.15-.1.23-.26.23-.53v-.36c0-.25-.05-.43-.14-.55-.1-.12-.28-.18-.53-.18h-1.15c-.51,0-.9-.1-1.19-.3-.31-.2-.53-.44-.65-.7-.14-.31-.23-.56-.25-.76-.02-.31-.05-.56-.05-.77"/>
    <g class="cls-2">
      <path class="cls-1" d="m104.54,35.16h1.91l.86,4.44c.08.3.26.45.54.48l1-4.91h1.87l-2.17,9.97h-1.8l.76-3.36c-1.01,0-1.65-.6-1.92-1.8l-1.05-4.82Z"/>
    </g>
    <path class="cls-1" d="m111.01,37.5v-.57c0-.36.04-.67.14-.92.1-.26.26-.48.49-.65.23-.17.59-.25,1.07-.25s.89,0,1.22.01c.34.01.7.05,1.08.11.38.06.65.16.77.26v1.25h-2.59c-.15,0-.24.02-.29.07-.05.05-.07.14-.07.28v.2c0,.14.02.23.08.26.06.04.16.06.28.06h1.28c.38,0,.7.08.94.25.44.29.67.79.67,1.51v.69c0,.62-.15,1.08-.41,1.36-.28.29-.62.42-1.03.42-.59,0-1.07,0-1.42-.01-.34-.01-.73-.05-1.15-.11-.42-.07-.68-.16-.81-.29v-1.23h2.69c.21,0,.3-.11.3-.32v-.2c0-.12-.02-.2-.06-.25-.03-.05-.12-.08-.24-.08h-1.23c-1.15,0-1.71-.61-1.71-1.83"/>
    <path class="cls-1" d="m116.48,36.62v-1.07l.9-.41.29-1.85h1.54v1.85h1.17v1.49h-1.17v2.4c0,.43.03.73.1.9.08.17.2.29.36.37.39.17.6.25.65.25v1.22h-1.49c-.3,0-.56-.07-.76-.22-.46-.32-.69-1.04-.69-2.16v-2.78h-.9Z"/>
    <path class="cls-1" d="m123.82,37.87c.18,0,.3-.07.37-.22.03-.07.05-.17.05-.3s0-.25-.01-.35c-.01-.1-.04-.18-.09-.24-.07-.12-.22-.18-.46-.18s-.41.01-.51.04c-.09.02-.18.07-.26.16-.13.13-.19.45-.19.97,0,.04,0,.08.01.12h1.09Zm.18,2.38c.74,0,1.39-.05,1.93-.13v1.36c-.24.12-.59.2-1.02.25-.43.06-.77.08-.99.08s-.6.01-1.11.01c-.73,0-1.23-.26-1.51-.78-.28-.53-.42-1.39-.42-2.61,0-.71.05-1.27.14-1.7.08-.43.24-.77.45-1.01.22-.24.48-.41.78-.49.3-.08.66-.12,1.08-.12s.74.01.96.04c.21.02.43.06.65.12.21.06.38.14.5.25.12.11.24.25.33.43.18.32.27.85.27,1.59,0,.89-.33,1.43-.97,1.62-.21.07-.45.1-.72.1h-1.64c0,.43.07.71.22.83.16.12.37.18.65.19h.42v-.02Z"/>
    <path class="cls-1" d="m132.03,37.09v.36s0,4.32,0,4.32h-1.82v-4.35c0-.53-.18-.78-.54-.78-.25,0-.47.04-.64.12-.16.08-.33.22-.5.41v4.61h-1.82v-6.6h1.5l.32.68c.48-.42.88-.67,1.18-.73.16-.04.34-.05.56-.05.74,0,1.25.28,1.5.8.32-.25.63-.44.94-.59.32-.14.64-.22.95-.22s.57.02.75.08c.18.06.33.13.46.24s.23.23.31.37c.09.14.16.3.21.48.08.35.13.76.13,1.24v4.3h-1.82v-4.35c0-.53-.17-.78-.53-.78-.49-.04-.87.12-1.15.43"/>
    <path class="cls-1" d="m136.08,37.5v-.57c0-.36.05-.67.15-.92.09-.26.26-.48.49-.65.22-.17.58-.25,1.06-.25s.89,0,1.23.01c.33.01.69.05,1.08.11.38.06.64.16.76.26v1.25h-2.57c-.15,0-.24.02-.29.07-.05.05-.07.14-.07.28v.2c0,.14.02.23.08.26.06.04.16.06.28.06h1.28c.38,0,.69.08.93.25.45.29.67.79.67,1.51v.69c0,.62-.13,1.08-.4,1.36-.28.29-.63.42-1.03.42-.59,0-1.07,0-1.42-.01-.35-.01-.73-.05-1.15-.11-.42-.07-.68-.16-.81-.29v-1.23h2.69c.21,0,.3-.11.3-.32v-.2c0-.12-.02-.2-.06-.25-.03-.05-.12-.08-.24-.08h-1.24c-1.14,0-1.72-.61-1.72-1.83"/>
    <polygon class="cls-1" points="38.73 29.26 40.81 5.18 47.51 5.18 50.31 20.31 53.16 5.18 59.84 5.18 61.98 29.26 57.25 29.26 55.81 14.49 53.08 29.26 47.63 29.26 44.78 14.49 43.49 29.26 38.73 29.26"/>
    <path class="cls-1" d="m70.72,25.32c.93,0,1.77-.42,2.49-1.25v-2.66l-2.77.26c-.74.07-1.12.61-1.12,1.64v.56c0,.68.16,1.1.47,1.25.23.12.53.19.92.19m-6.21-.62v-1.51c0-1.43.38-2.6,1.15-3.54.77-.93,1.89-1.4,3.38-1.4h4.17c.02-.45.02-.71,0-.72,0-.84-.14-1.37-.44-1.59-.3-.23-.89-.35-1.8-.35s-2.88.12-5.95.36v-3.26c.98-.45,2-.78,3.06-.96,1.08-.18,2.49-.26,4.24-.26s3.14.43,4.16,1.28c1.02.85,1.53,2.37,1.53,4.54v11.98h-3.82l-1-1.85c-.16.37-.62.8-1.38,1.29-.77.49-1.61.74-2.53.74-1.61,0-2.81-.49-3.61-1.49-.78-.97-1.17-2.07-1.17-3.27"/>
    <path class="cls-1" d="m80.9,29.26V11.79h4.17l.65,2.21c.49-.68.95-1.16,1.37-1.43.42-.27.75-.47.98-.57.53-.24,1.13-.36,1.77-.36s1.14.06,1.45.19v5.17c-.59-.02-1.34-.04-2.25-.04s-1.63.12-2.15.36c-.52.24-.91.77-1.19,1.58v10.37h-4.81Z"/>
    <polygon class="cls-1" points="93.77 29.26 93.77 3.54 98.6 3.54 98.6 17.51 99.36 17.51 103.21 11.79 109.25 11.79 103.78 19.45 109.25 29.26 103.54 29.26 99.36 21.43 98.6 21.43 98.6 29.26 93.77 29.26"/>
    <rect class="cls-1" x="119.96" y="5.18" width="4.82" height="24.08"/>
    <rect class="cls-1" x="128.22" y="5.18" width="4.82" height="24.08"/>
    <rect class="cls-1" x="136.47" y="5.18" width="4.82" height="24.08"/>
    <path class="cls-1" d="m31.8,12.07c-.68-1.19-1.37-2.37-2.05-3.56-1.16-2.03-2.34-4.05-3.5-6.07-.36-.63-.73-1.27-1.09-1.89-.12-.31-.41-.55-.78-.55h-13.49c-.07,0-.14.01-.22.02-.07.02-.14.05-.2.1-.13.07-.23.18-.3.31-.07.12-.11.26-.11.42,0,.08.01.18.05.26.01.06.04.11.07.17.4.68.78,1.35,1.18,2.04,1.16,2.03,2.34,4.05,3.5,6.07.65,1.13,1.31,2.26,1.95,3.39.02.05.04.11.07.16.07.12.17.23.3.31.06.04.13.07.2.08.07.02.14.02.22.02h13.47c.64-.02,1.03-.73.72-1.28"/>
    <path class="cls-1" d="m15.2,14.54c.01-.16-.01-.32-.11-.48-.68-1.19-1.37-2.37-2.05-3.56-1.17-2.03-2.35-4.05-3.51-6.08-.4-.68-.78-1.35-1.18-2.04-.31-.54-1.13-.54-1.44,0-.69,1.19-1.38,2.37-2.06,3.56-1.16,2.03-2.34,4.05-3.5,6.07-.4.68-.78,1.35-1.18,2.04-.04.05-.06.11-.07.17-.04.08-.05.17-.05.26v.07c-.01.16.01.32.11.48.68,1.19,1.37,2.37,2.05,3.56,1.16,2.03,2.34,4.05,3.5,6.07.4.68.78,1.35,1.18,2.04.31.54,1.13.54,1.44,0,.68-1.19,1.37-2.37,2.05-3.56,1.16-2.03,2.34-4.05,3.5-6.07.4-.68.78-1.35,1.18-2.04.04-.05.06-.11.07-.17.02-.08.05-.17.05-.25.02-.04.02-.06.02-.07"/>
    <path class="cls-1" d="m32.04,15.77c-.07-.12-.17-.23-.3-.31-.06-.04-.13-.07-.2-.08-.07-.02-.14-.02-.22-.02h-13.47c-.17,0-.32.05-.45.14-.13.07-.25.17-.34.31-.4.68-.78,1.35-1.17,2.04-1.16,2.03-2.34,4.05-3.5,6.06-.68,1.19-1.37,2.37-2.05,3.56-.31.55.08,1.26.72,1.26h13.46c.07,0,.14-.01.22-.02.07-.02.14-.05.2-.08.01-.01.04-.02.05-.04.13-.07.24-.17.32-.31.68-1.19,1.37-2.37,2.05-3.56,1.16-2.03,2.34-4.05,3.5-6.07.4-.68.78-1.35,1.17-2.04.04-.05.06-.11.07-.17.02-.08.04-.17.04-.25.02-.15-.02-.3-.1-.42"/>
  </g>
</svg>