<?xml version="1.0" encoding="UTF-8"?>
<svg id="_Слой_2" data-name="Слой 2" xmlns="http://www.w3.org/2000/svg" viewBox="0 0 37.2 12.75">
  <defs>
    <style>
      .cls-1 {
        fill: #fff;
      }

      .cls-2 {
        fill: none;
        stroke: #fff;
        stroke-miterlimit: 10;
        stroke-width: .75px;
      }
    </style>
  </defs>
  <g id="_Слой_1-2" data-name="Слой 1">
    <path class="cls-1" d="m3.98,5.29l2.36,2.95c.34.42.62.7.86.84.18.11.36.16.55.16v.18h-3.49v-.18c.22-.02.36-.06.43-.11.06-.05.1-.11.1-.18,0-.14-.16-.4-.46-.78l-1.54-1.92-.25.2v1.82c0,.35.02.56.06.65.04.08.12.16.23.22.11.06.29.1.54.1v.18H0v-.18h.23c.19,0,.35-.04.47-.11.08-.05.16-.12.19-.24.04-.08.06-.29.06-.62V3.88c0-.35-.02-.55-.06-.65-.04-.08-.11-.16-.22-.23-.11-.06-.26-.1-.44-.1h-.23v-.18h3.33v.19c-.23,0-.4.04-.52.1-.08.05-.16.12-.2.23-.04.08-.06.29-.06.64v2.09l2.48-2.02c.35-.28.51-.5.51-.67,0-.12-.07-.23-.21-.3-.07-.04-.25-.06-.54-.07v-.18h2.61v.19c-.24.01-.42.06-.55.13-.13.07-.44.3-.92.68l-1.95,1.56Z"/>
    <path class="cls-1" d="m10.98,3.09v2.94h.28c.46,0,.8-.05,1.03-.13.23-.08.41-.24.54-.46.13-.22.19-.5.19-.85,0-.52-.12-.89-.36-1.13s-.62-.36-1.15-.36h-.53Zm0,3.29v1.88c0,.36.02.59.07.68.05.1.12.17.24.23.11.06.32.08.62.08v.18h-3.44v-.18c.31,0,.52-.02.64-.08.11-.06.19-.13.23-.23.05-.1.07-.32.07-.68V3.91c0-.36-.02-.59-.07-.68-.05-.1-.12-.17-.24-.23-.11-.06-.31-.08-.62-.08v-.18h3.12c.82,0,1.4.06,1.78.17.37.11.68.32.92.62.24.3.36.66.36,1.06,0,.49-.18.9-.53,1.22-.23.2-.54.36-.96.46l1.61,2.27c.22.29.36.48.46.55.13.11.29.16.47.17v.18h-2.11l-2.16-3.06h-.44Z"/>
    <path class="cls-1" d="m20.27,7.16l-.99-2.3-1.03,2.3h2.03Zm.17.36h-2.36l-.28.65c-.1.22-.14.4-.14.54,0,.19.07.32.23.42.08.05.31.09.66.12v.18h-2.23v-.18c.24-.04.44-.13.59-.3.16-.17.35-.5.58-1.01l2.4-5.35h.1l2.41,5.5c.23.52.42.85.56.98.11.11.28.16.48.18v.18h-3.24v-.18h.13c.26,0,.44-.04.55-.11.07-.05.11-.13.11-.23,0-.06-.01-.12-.02-.18-.01-.02-.06-.16-.14-.37l-.37-.84Z"/>
    <path class="cls-1" d="m26.86,3.12v2.76h.19c.3,0,.54-.05.73-.13.19-.08.35-.24.48-.44.13-.2.22-.49.25-.85h.17v3.37h-.17c-.06-.64-.23-1.05-.52-1.26-.28-.2-.6-.3-.95-.3h-.19v2.05c0,.35.02.55.06.65.04.1.11.16.23.23.11.06.26.1.44.1h.23v.18h-3.51v-.18h.23c.19,0,.35-.04.47-.11.08-.05.16-.12.19-.24.04-.08.06-.29.06-.62V3.88c0-.35-.02-.55-.06-.65-.04-.08-.11-.16-.22-.23-.11-.06-.26-.1-.44-.1h-.23v-.18h5.65v1.92h-.2c-.05-.46-.17-.79-.35-1.01-.19-.22-.47-.37-.83-.46-.19-.05-.56-.07-1.09-.07h-.62Z"/>
    <path class="cls-1" d="m36.9,2.73v1.81h-.18c-.11-.42-.23-.72-.35-.9-.13-.18-.3-.32-.53-.43-.12-.06-.35-.08-.66-.08h-.5v5.17c0,.35.02.55.06.65.04.1.11.16.23.23.11.06.26.1.46.1h.23v.18h-3.51v-.18h.23c.19,0,.35-.04.47-.11.08-.05.16-.12.2-.24.04-.08.06-.29.06-.62V3.12h-.48c-.46,0-.78.1-.98.29-.29.26-.47.65-.54,1.14h-.19v-1.81h6Z"/>
    <line class="cls-2" x1="14.86" y1=".68" x2=".05" y2=".68"/>
    <line class="cls-2" x1="37.2" y1=".68" x2="22.4" y2=".68"/>
    <line class="cls-2" x1="9.05" y1="11.64" x2="0" y2="11.64"/>
    <line class="cls-2" x1="37.14" y1="11.64" x2="27.77" y2="11.64"/>
    <path class="cls-1" d="m11.94,10.83v.65h-.05c-.06-.18-.16-.31-.28-.4-.12-.1-.25-.13-.4-.13-.13,0-.25.04-.34.12-.1.07-.16.18-.19.32-.04.13-.06.28-.06.42,0,.18.02.32.06.46.04.13.11.23.2.29.1.06.2.1.32.1.05,0,.08,0,.13-.01.05-.01.1-.02.14-.04v-.38c0-.07,0-.12-.01-.14-.01-.02-.04-.04-.06-.06-.04-.01-.07-.02-.11-.02h-.05v-.05h.89v.05c-.07,0-.12.01-.14.02-.02.01-.05.04-.06.07-.01.01-.01.06-.01.12v.38c-.12.05-.24.1-.36.12-.13.02-.25.04-.4.04-.17,0-.31-.02-.43-.07s-.22-.11-.3-.18c-.08-.07-.16-.17-.2-.26-.06-.12-.1-.26-.1-.42,0-.28.1-.5.29-.7.19-.19.43-.29.73-.29.1,0,.17.01.24.02.04.01.11.02.19.06s.14.05.16.05c.02,0,.05-.01.07-.02.02-.02.04-.05.06-.11h.05Z"/>
    <path class="cls-1" d="m14.56,10.98v.8h.07c.12,0,.22-.01.28-.04.06-.02.11-.06.14-.12.04-.06.05-.13.05-.23,0-.14-.04-.24-.1-.31-.06-.07-.17-.1-.31-.1h-.13Zm0,.89v.52c0,.1.01.16.02.19.01.02.04.05.06.06.04.01.08.02.17.02v.05h-.94v-.05c.08,0,.14-.01.17-.02.04-.01.05-.04.06-.06.01-.02.02-.08.02-.18v-1.2c0-.1-.01-.16-.02-.19-.01-.02-.04-.05-.06-.06-.02-.01-.08-.02-.17-.02v-.05h.85c.22,0,.38.01.48.05.11.04.18.08.25.17.06.08.1.18.1.29,0,.13-.05.25-.14.34-.06.06-.14.1-.26.12l.44.62c.06.08.1.13.12.14.04.02.08.05.13.05v.05h-.58l-.59-.83h-.12Z"/>
    <path class="cls-1" d="m18.56,10.94c-.17,0-.3.08-.38.25-.07.14-.11.34-.11.6,0,.31.06.54.17.69.07.11.18.16.32.16.1,0,.17-.02.23-.07.08-.06.14-.14.18-.27.05-.13.07-.29.07-.49,0-.24-.02-.42-.07-.54-.05-.12-.11-.2-.17-.25-.07-.05-.16-.07-.24-.07Zm-.02-.1c.29-.01.53.07.71.25.18.18.28.41.28.67,0,.23-.07.43-.2.61-.18.23-.43.35-.76.35s-.59-.11-.77-.34c-.14-.18-.22-.38-.22-.62,0-.28.1-.49.28-.68.19-.16.42-.25.68-.24Z"/>
    <path class="cls-1" d="m21.34,10.87h.95v.05h-.05c-.07,0-.12.01-.14.02-.02.01-.05.04-.06.06-.01.02-.01.1-.01.19v.9c0,.17.01.28.04.32.02.05.06.1.12.13.06.04.13.05.22.05.1,0,.18-.02.25-.07.07-.05.12-.11.16-.18.04-.08.05-.22.05-.41v-.74c0-.08-.01-.14-.02-.18-.01-.04-.04-.06-.06-.07-.04-.02-.1-.04-.17-.04v-.05h.64v.05h-.04s-.1.01-.13.04c-.04.02-.06.05-.07.1-.01.02-.01.08-.01.16v.7c0,.22-.01.37-.05.47-.02.1-.1.18-.2.26-.11.08-.26.12-.44.12-.16,0-.28-.02-.37-.06-.12-.06-.2-.13-.25-.22-.05-.08-.07-.22-.07-.36v-.9c0-.11,0-.17-.01-.19-.01-.02-.04-.05-.06-.06s-.08-.02-.16-.02v-.06h-.02Z"/>
    <path class="cls-1" d="m25.66,10.98v.79h.07c.11,0,.19-.04.25-.1.06-.06.08-.17.08-.3s-.02-.24-.08-.3-.14-.1-.26-.1h-.06Zm0,.9v.5c0,.1.01.16.02.19.01.02.04.05.06.06.04.01.08.02.17.02v.05h-.92v-.05c.08,0,.14-.01.17-.02.04-.01.05-.04.06-.06.01-.02.02-.08.02-.18v-1.2c0-.1-.01-.16-.02-.19-.01-.02-.04-.05-.06-.06-.04-.01-.08-.02-.17-.02v-.05h.79c.26,0,.46.05.56.14.11.1.17.22.17.35,0,.12-.04.22-.11.3-.07.08-.18.14-.3.17-.08.04-.23.05-.44.05Z"/>
    <path class="cls-1" d="m17.3.02v.36h-.04c-.02-.08-.05-.14-.07-.18s-.06-.06-.11-.08c-.02-.01-.07-.01-.13-.01h-.08v1.03c0,.07,0,.11.01.13.01.01.02.04.05.05s.05.02.08.02h.05s-.69.01-.69.01v-.04h.05s.07-.01.1-.02c.01-.01.04-.02.04-.05.01-.01.01-.06.01-.12V.1h-.1c-.08,0-.16.02-.19.06-.06.05-.1.13-.11.23h-.04V.02h1.18Z"/>
    <path class="cls-1" d="m18.33.71v.41c0,.07,0,.11.01.13.01.01.02.04.05.05.02.01.05.02.08.02h.05v.04h-.7v-.04h.05s.07-.01.1-.02c.01-.01.02-.02.04-.05.01-.01.01-.06.01-.12V.25c0-.07,0-.11-.01-.13-.01-.01-.02-.04-.05-.05s-.05-.02-.08-.02h-.05V.01h.7v.04h-.05s-.07.01-.1.02c-.01.01-.04.02-.04.05-.01.01-.01.06-.01.12v.37h.47V.24c0-.07,0-.11-.01-.13-.01-.01-.02-.04-.05-.05s-.05-.02-.08-.02h-.05V0h.7v.04h-.04s-.07.01-.1.02c-.01.01-.04.02-.04.05-.01.01-.01.06-.01.12v.88c0,.07,0,.11.01.13.01.01.02.04.05.05s.05.02.08.02h.05v.05h-.7v-.04h.05s.07-.01.1-.02c.01-.01.04-.02.04-.05.01-.01.01-.06.01-.12v-.41h-.48Z"/>
    <path class="cls-1" d="m20.3.1v.54h.02c.08,0,.14-.02.18-.08.04-.05.06-.13.07-.24h.04v.69h-.04c-.01-.07-.02-.14-.05-.19-.02-.05-.06-.08-.08-.1s-.08-.02-.14-.02v.37c0,.07,0,.12.01.13s.01.02.04.04c.01.01.05.01.08.01h.08c.12,0,.23-.02.3-.08s.13-.14.16-.26h.04l-.06.42h-1.15v-.04h.05s.07-.01.1-.02c.01-.01.03-.02.03-.05.01-.01.01-.06.01-.12V.11s-.02-.04-.03-.05c-.02-.02-.06-.02-.11-.02h-.05v-.04h1.11v.4h-.04c-.02-.1-.05-.17-.08-.2-.04-.04-.08-.07-.14-.1-.04-.01-.11-.01-.2-.01h-.14Z"/>
  </g>
</svg>