<svg viewBox="0 0 463.39 123.74" xmlns="http://www.w3.org/2000/svg" xmlns:xlink="http://www.w3.org/1999/xlink" id="Layer_2" overflow="hidden"><defs></defs><g id="Layer_1"><path d="M227.25 0 250.76 0 250.76 123.72 227.25 123.72 227.25 0Z" fill="#002B5C"/><path d="M261.71 0 269.53 0C281.43 0 292.44 6.32 298.43 16.6L315.44 45.77 341.95 91.37 341.6 45.59 341.42 0 362.1 0 362.1 123.72 354.02 123.72C342.16 123.72 331.19 117.43 325.17 107.21L308.18 78.3 281.85 33.06 282.2 78.3 282.38 123.72 261.7 123.72 261.7 0Z" fill="#002B5C"/><path d="M373.07 0 463.39 0 463.39 18.73 396.58 18.73 396.58 50.9 446.25 50.9 446.25 69.28 396.58 69.28 396.58 105.33 463.39 105.33 463.39 123.71 373.07 123.71 373.07 0Z" fill="#002B5C"/><path d="M82.37 63.64C94.21 58.34 100.75 47.74 100.75 33.95 100.75 12.73 85.37 0 60.27 0L0 0 0 123.72 23.51 123.72 23.51 72.64 58.68 72.64C69.11 72.64 73.71 77.05 73.89 87.85L73.85 123.73 97.23 123.73 97.23 88.21C96.87 75.84 93.35 67.18 82.39 63.65L82.38 63.65ZM58.5 54.45 23.51 54.45 23.51 18.56 58.5 18.56C70.17 18.56 77.59 24.74 77.59 36.41 77.59 48.08 70.17 54.44 58.5 54.44Z" fill="#002B5C"/><path d="M176.87 0 148.77 0 120.99 75.4 127.34 75.4C137.24 75.4 146.03 69.1 149.22 59.73L162.02 21.92 196.85 123.73 222.65 123.73 176.87 0Z" fill="#002B5C"/><path d="M141.28 79.55C128.13 79.55 116.35 87.73 111.77 100.06L106.48 114.31C106 115.57 107.38 116.75 108.56 116.07L149.74 92.47 112.67 121.13C111.57 121.97 112.18 123.72 113.56 123.72L130.79 123.72C143.94 123.72 155.72 115.54 160.3 103.21L169.09 79.55 141.29 79.55Z" fill="#47A942"/></g></svg>