<?xml version="1.0" encoding="UTF-8"?>
<svg id="_Слой_2" data-name="Слой 2" xmlns="http://www.w3.org/2000/svg" viewBox="0 0 150.5 150.5">
  <defs>
    <style>
      .cls-1 {
        fill: none;
        stroke: #fff;
        stroke-linejoin: round;
        stroke-width: 1.5px;
      }

      .cls-2 {
        fill: #f56600;
      }

      .cls-2, .cls-3, .cls-4, .cls-5, .cls-6, .cls-7, .cls-8 {
        fill-rule: evenodd;
      }

      .cls-9 {
        font-size: 12px;
      }

      .cls-9, .cls-10 {
        fill: #fff;
        font-family: Calibri-Light, Calibri;
        font-weight: 300;
      }

      .cls-10 {
        font-size: 12.02px;
      }

      .cls-3 {
        fill: #5290e0;
      }

      .cls-4 {
        fill: #ffd828;
      }

      .cls-5 {
        fill: #869198;
      }

      .cls-6 {
        fill: #0c9899;
      }

      .cls-7 {
        fill: #490e5a;
      }

      .cls-11 {
        letter-spacing: 0em;
      }

      .cls-12 {
        letter-spacing: 0em;
      }

      .cls-8 {
        fill: #029d72;
      }
    </style>
  </defs>
  <g id="_Слой_1-2" data-name="Слой 1">
    <path class="cls-7" d="m75.62.75c41.35,0,74.88,33.53,74.88,74.88s-33.53,74.87-74.88,74.87c-26.8,0-51.56-14.33-64.92-37.57l32.46-18.65c10.3,17.93,33.19,24.11,51.11,13.81,17.93-10.3,24.11-33.19,13.81-51.11-6.67-11.62-19.05-18.79-32.46-18.79V.75Z"/>
    <path class="cls-8" d="m10.7,112.93c-.86-1.5-1.67-3.02-2.42-4.57l33.67-16.37c.38.78.78,1.54,1.21,2.29l-32.46,18.65Z"/>
    <path class="cls-1" d="m10.7,112.93c-.86-1.5-1.67-3.02-2.42-4.57l33.67-16.37c.38.78.78,1.54,1.21,2.29l-32.46,18.65Z"/>
    <path class="cls-1" d="m8.28,108.36l33.67-16.37-33.67,16.37Z"/>
    <path class="cls-6" d="m8.28,108.36c-.21-.43-.41-.85-.61-1.28l33.97-15.73c.1.22.2.43.3.64l-33.67,16.37Z"/>
    <path class="cls-1" d="m8.28,108.36c-.21-.43-.41-.85-.61-1.28l33.97-15.73c.1.22.2.43.3.64l-33.67,16.37Z"/>
    <path class="cls-5" d="m7.68,107.08c-2.64-5.7-4.55-11.71-5.69-17.88l36.82-6.79c.57,3.09,1.52,6.09,2.84,8.94l-33.97,15.73Z"/>
    <path class="cls-1" d="m7.68,107.08c-2.64-5.7-4.55-11.71-5.69-17.88l36.82-6.79c.57,3.09,1.52,6.09,2.84,8.94l-33.97,15.73Z"/>
    <path class="cls-4" d="m1.99,89.2c-.85-4.63-1.27-9.33-1.24-14.04l37.44.23c-.01,2.36.19,4.71.62,7.02L1.99,89.2Z"/>
    <path class="cls-1" d="m1.99,89.2c-.85-4.63-1.27-9.33-1.24-14.04l37.44.23c-.01,2.36.19,4.71.62,7.02L1.99,89.2Z"/>
    <path class="cls-1" d="m.75,75.16l37.43.23-37.43-.23Z"/>
    <path class="cls-2" d="m.75,75.16c.01-1.88.09-3.77.25-5.64l37.31,3.05c-.08.94-.12,1.88-.12,2.82l-37.43-.23Z"/>
    <path class="cls-1" d="m.75,75.16c.01-1.88.09-3.77.25-5.64l37.31,3.05c-.08.94-.12,1.88-.12,2.82l-37.43-.23Z"/>
    <path class="cls-3" d="m1,69.52C4.18,30.67,36.64.75,75.62.75v37.44c-19.49,0-35.72,14.96-37.31,34.38L1,69.52Z"/>
    <path class="cls-1" d="m1,69.52C4.18,30.67,36.64.75,75.62.75v37.44c-19.49,0-35.72,14.96-37.31,34.38L1,69.52Z"/>
    <text class="cls-10" transform="translate(113.86 107.9)"><tspan class="cls-12" x="0" y="0">67</tspan><tspan x="12.24" y="0">%</tspan></text>
    <text class="cls-9" transform="translate(27.2 38.47)"><tspan class="cls-11" x="0" y="0">24</tspan><tspan x="12.24" y="0">%</tspan></text>
  </g>
</svg>