<?xml version="1.0" encoding="UTF-8"?>
<svg id="_Слой_2" data-name="Слой 2" xmlns="http://www.w3.org/2000/svg" viewBox="0 0 683.56 181.53">
  <defs>
    <style>
      .cls-1 {
        fill: #5290e0;
      }

      .cls-2 {
        letter-spacing: 0em;
      }

      .cls-3 {
        letter-spacing: 0em;
      }

      .cls-4 {
        letter-spacing: 0em;
      }

      .cls-5 {
        letter-spacing: 0em;
      }

      .cls-6 {
        fill: #029d72;
      }

      .cls-7 {
        letter-spacing: 0em;
      }

      .cls-8 {
        fill: #0229b1;
      }

      .cls-9 {
        fill: orange;
        font-family: Calibri-Bold, Calibri;
        font-size: 8.42px;
        font-weight: 700;
      }

      .cls-10 {
        letter-spacing: 0em;
      }

      .cls-11 {
        fill: #0a2535;
        font-size: 8.8px;
      }

      .cls-11, .cls-12, .cls-13 {
        font-family: Calibri-Light, Calibri;
        font-weight: 300;
      }

      .cls-14 {
        fill: #490e59;
      }

      .cls-15 {
        letter-spacing: 0em;
      }

      .cls-16 {
        letter-spacing: 0em;
      }

      .cls-17 {
        stroke-width: 2.25px;
      }

      .cls-17, .cls-18 {
        stroke: orange;
        stroke-miterlimit: 8;
      }

      .cls-17, .cls-18, .cls-19 {
        fill: none;
      }

      .cls-20 {
        letter-spacing: 0em;
      }

      .cls-21 {
        letter-spacing: 0em;
      }

      .cls-18 {
        stroke-width: 3px;
      }

      .cls-22 {
        fill: #869198;
      }

      .cls-12, .cls-13 {
        font-size: 7.85px;
      }

      .cls-23 {
        letter-spacing: 0em;
      }

      .cls-24 {
        letter-spacing: 0em;
      }

      .cls-25 {
        letter-spacing: 0em;
      }

      .cls-26 {
        fill: #878785;
      }

      .cls-27 {
        letter-spacing: 0em;
      }

      .cls-28 {
        letter-spacing: 0em;
      }

      .cls-29 {
        letter-spacing: 0em;
      }

      .cls-30 {
        letter-spacing: 0em;
      }

      .cls-31 {
        letter-spacing: 0em;
      }

      .cls-32 {
        letter-spacing: 0em;
      }

      .cls-33 {
        letter-spacing: 0em;
      }

      .cls-19 {
        stroke: #869198;
        stroke-linejoin: round;
        stroke-width: .75px;
      }

      .cls-34 {
        letter-spacing: 0em;
      }

      .cls-13 {
        fill: #fff;
      }

      .cls-35 {
        letter-spacing: 0em;
      }

      .cls-36 {
        letter-spacing: 0em;
      }

      .cls-37 {
        letter-spacing: 0em;
      }

      .cls-38 {
        letter-spacing: 0em;
      }

      .cls-39 {
        letter-spacing: 0em;
      }

      .cls-40 {
        letter-spacing: 0em;
      }

      .cls-41 {
        letter-spacing: 0em;
      }

      .cls-42 {
        letter-spacing: 0em;
      }
    </style>
  </defs>
  <g id="_Слой_1-2" data-name="Слой 1">
    <rect class="cls-26" x="4.66" y="152.56" width="26.65" height=".18"/>
    <rect class="cls-22" x="40.64" y="150.24" width="26.65" height="2.49"/>
    <rect class="cls-22" x="76.62" y="148.07" width="26.65" height="4.67"/>
    <rect class="cls-22" x="112.6" y="138.32" width="26.65" height="14.42"/>
    <rect class="cls-22" x="148.57" y="129.39" width="26.65" height="23.35"/>
    <rect class="cls-1" x="184.55" y="135.1" width="26.65" height="17.64"/>
    <rect class="cls-1" x="220.53" y="133.15" width="26.65" height="19.58"/>
    <rect class="cls-1" x="256.5" y="122.9" width="26.65" height="29.84"/>
    <rect class="cls-1" x="292.48" y="126.58" width="26.65" height="26.15"/>
    <rect class="cls-8" x="328.46" y="127.88" width="26.65" height="24.85"/>
    <rect class="cls-8" x="364.43" y="92.49" width="26.65" height="60.25"/>
    <rect class="cls-8" x="400.41" y="66.32" width="26.65" height="86.42"/>
    <rect class="cls-8" x="436.39" y="96.58" width="26.65" height="56.16"/>
    <rect class="cls-14" x="472.36" y="86.94" width="26.65" height="65.79"/>
    <rect class="cls-14" x="508.34" y="36.77" width="26.65" height="115.96"/>
    <rect class="cls-14" x="544.32" y="70.53" width="26.65" height="82.2"/>
    <rect class="cls-14" x="580.3" y="73.64" width="26.65" height="79.09"/>
    <rect class="cls-6" x="616.27" y="15.57" width="26.65" height="137.17"/>
    <rect class="cls-6" x="652.25" width="26.65" height="152.74"/>
    <line class="cls-19" y1="152.74" x2="683.56" y2="152.74"/>
    <text class="cls-12" transform="translate(13.69 149.03) scale(1.25 1)"><tspan class="cls-5" x="0" y="0">$</tspan><tspan x="4.02" y="0">1</tspan></text>
    <text class="cls-12" transform="translate(47.89 148.45) scale(1.25 1)"><tspan class="cls-5" x="0" y="0">$1</tspan><tspan x="8.03" y="0">8</tspan></text>
    <text class="cls-12" transform="translate(83.24 147) scale(1.25 1)"><tspan class="cls-34" x="0" y="0">$</tspan><tspan class="cls-29" x="4.01" y="0">3</tspan><tspan class="cls-25" x="7.94" y="0">4</tspan></text>
    <text class="cls-13" transform="translate(115.88 149.45) scale(1.25 1)"><tspan class="cls-5" x="0" y="0">$10</tspan><tspan x="12.05" y="0">5</tspan></text>
    <text class="cls-13" transform="translate(187.83 146.24) scale(1.25 1)"><tspan class="cls-5" x="0" y="0">$12</tspan><tspan x="12.05" y="0">9</tspan></text>
    <text class="cls-13" transform="translate(152 136.53) scale(1.25 1)"><tspan class="cls-34" x="0" y="0">$1</tspan><tspan class="cls-29" x="8.02" y="0">7</tspan><tspan x="11.95" y="0">1</tspan></text>
    <text class="cls-13" transform="translate(223.81 144.28) scale(1.25 1)"><tspan class="cls-5" x="0" y="0">$14</tspan><tspan x="12.05" y="0">3</tspan></text>
    <text class="cls-13" transform="translate(260.07 130.14) scale(1.25 1)"><tspan class="cls-5" x="0" y="0">$21</tspan><tspan x="12.05" y="0">8</tspan></text>
    <text class="cls-13" transform="translate(295.79 133.25) scale(1.25 1)"><tspan class="cls-5" x="0" y="0">$19</tspan><tspan x="12.05" y="0">1</tspan></text>
    <text class="cls-13" transform="translate(331.76 139) scale(1.25 1)"><tspan class="cls-5" x="0" y="0">$18</tspan><tspan x="12.05" y="0">2</tspan></text>
    <text class="cls-13" transform="translate(367.74 103.19) scale(1.25 1)"><tspan class="cls-15" x="0" y="0">$44</tspan><tspan x="12.05" y="0">0</tspan></text>
    <text class="cls-13" transform="translate(403.74 77.43) scale(1.25 1)"><tspan class="cls-15" x="0" y="0">$63</tspan><tspan x="12.05" y="0">1</tspan></text>
    <text class="cls-13" transform="translate(439.71 103.4) scale(1.25 1)"><tspan class="cls-15" x="0" y="0">$41</tspan><tspan x="12.05" y="0">0</tspan></text>
    <text class="cls-13" transform="translate(475.69 98.06) scale(1.25 1)"><tspan class="cls-15" x="0" y="0">$48</tspan><tspan x="12.05" y="0">0</tspan></text>
    <text class="cls-13" transform="translate(511.67 47.07) scale(1.25 1)"><tspan class="cls-15" x="0" y="0">$84</tspan><tspan x="12.05" y="0">7</tspan></text>
    <text class="cls-13" transform="translate(547.67 81.64) scale(1.25 1)"><tspan class="cls-15" x="0" y="0">$60</tspan><tspan x="12.05" y="0">0</tspan></text>
    <text class="cls-13" transform="translate(583.64 84.76) scale(1.25 1)"><tspan class="cls-15" x="0" y="0">$57</tspan><tspan x="12.05" y="0">8</tspan></text>
    <text class="cls-13" transform="translate(615.9 26.68) scale(1.25 1)"><tspan class="cls-24" x="0" y="0">$1</tspan><tspan class="cls-42" x="8.02" y="0">,</tspan><tspan class="cls-40" x="9.94" y="0">0</tspan><tspan class="cls-24" x="13.94" y="0">0</tspan><tspan x="17.95" y="0">2</tspan></text>
    <text class="cls-13" transform="translate(651.03 9.51) scale(1.25 1)"><tspan class="cls-24" x="0" y="0">$1</tspan><tspan class="cls-42" x="8.02" y="0">,</tspan><tspan class="cls-39" x="9.94" y="0">1</tspan><tspan class="cls-37" x="13.86" y="0">1</tspan><tspan x="17.79" y="0">5</tspan></text>
    <line class="cls-18" x1="467.04" y1="63.33" x2="608.03" y2="63.33"/>
    <text class="cls-11" transform="translate(336.99 179.17) scale(1.25 1)"><tspan x="0" y="0">A</tspan><tspan class="cls-30" x="4.96" y="0">v</tspan><tspan class="cls-10" x="8.82" y="0">e</tspan><tspan x="13.12" y="0">rage</tspan></text>
    <text class="cls-11" transform="translate(353.43 179.17) scale(1.25 1)"><tspan x="0" y="0"> </tspan></text>
    <text class="cls-11" transform="translate(656.07 177.41) scale(1.25 1)"><tspan class="cls-10" x="0" y="0">L</tspan><tspan class="cls-32" x="3.64" y="0">T</tspan><tspan class="cls-16" x="7.94" y="0">M</tspan></text>
    <line class="cls-18" x1="326.09" y1="95.09" x2="466.56" y2="95.09"/>
    <line class="cls-18" x1="183.16" y1="134.32" x2="321.4" y2="134.32"/>
    <line class="cls-18" x1="39" y1="140.1" x2="178.94" y2="140.1"/>
    <text class="cls-9" transform="translate(39.68 136.91) scale(1.25 1)"><tspan class="cls-27" x="0" y="0">$8</tspan><tspan x="8.6" y="0">2</tspan></text>
    <text class="cls-9" transform="translate(183.2 131.15) scale(1.25 1)"><tspan class="cls-27" x="0" y="0">$17</tspan><tspan class="cls-28" x="12.91" y="0">0</tspan></text>
    <text class="cls-9" transform="translate(322.71 92.17) scale(1.25 1)"><tspan class="cls-27" x="0" y="0">$41</tspan><tspan x="12.91" y="0">5</tspan></text>
    <text class="cls-9" transform="translate(467.36 60.28) scale(1.25 1)"><tspan class="cls-31" x="0" y="0">$62</tspan><tspan class="cls-41" x="12.91" y="0">6</tspan></text>
    <line class="cls-17" x1="319.04" y1="176.57" x2="332.58" y2="176.57"/>
    <text class="cls-11" transform="translate(6.85 166.71) scale(1.25 1)"><tspan class="cls-3" x="0" y="0">2</tspan><tspan class="cls-4" x="4.41" y="0">0</tspan><tspan class="cls-3" x="8.9" y="0">0</tspan><tspan x="13.31" y="0">7</tspan></text>
    <text class="cls-11" transform="translate(23.52 166.71) scale(1.25 1)"><tspan x="0" y="0"> </tspan></text>
    <text class="cls-11" transform="translate(42.82 166.71) scale(1.25 1)"><tspan class="cls-33" x="0" y="0">2</tspan><tspan class="cls-4" x="4.41" y="0">0</tspan><tspan class="cls-3" x="8.9" y="0">0</tspan><tspan x="13.31" y="0">8</tspan></text>
    <text class="cls-11" transform="translate(59.49 166.71) scale(1.25 1)"><tspan x="0" y="0"> </tspan></text>
    <text class="cls-11" transform="translate(78.8 166.71) scale(1.25 1)"><tspan class="cls-21" x="0" y="0">2</tspan><tspan class="cls-36" x="4.43" y="0">0</tspan><tspan class="cls-7" x="8.93" y="0">0</tspan><tspan class="cls-23" x="13.36" y="0">9</tspan></text>
    <text class="cls-11" transform="translate(95.54 166.71) scale(1.25 1)"><tspan x="0" y="0"> </tspan></text>
    <text class="cls-11" transform="translate(114.8 166.71) scale(1.25 1)"><tspan class="cls-33" x="0" y="0">2</tspan><tspan class="cls-4" x="4.41" y="0">0</tspan><tspan class="cls-3" x="8.9" y="0">1</tspan><tspan x="13.31" y="0">0</tspan></text>
    <text class="cls-11" transform="translate(131.47 166.71) scale(1.25 1)"><tspan x="0" y="0"> </tspan></text>
    <text class="cls-11" transform="translate(150.78 166.71) scale(1.25 1)"><tspan class="cls-3" x="0" y="0">2</tspan><tspan class="cls-4" x="4.41" y="0">0</tspan><tspan class="cls-3" x="8.9" y="0">1</tspan><tspan x="13.31" y="0">1</tspan></text>
    <text class="cls-11" transform="translate(167.45 166.71) scale(1.25 1)"><tspan x="0" y="0"> </tspan></text>
    <text class="cls-11" transform="translate(186.75 166.71) scale(1.25 1)"><tspan class="cls-33" x="0" y="0">2</tspan><tspan class="cls-4" x="4.41" y="0">0</tspan><tspan class="cls-3" x="8.9" y="0">1</tspan><tspan x="13.31" y="0">2</tspan></text>
    <text class="cls-11" transform="translate(203.42 166.71) scale(1.25 1)"><tspan x="0" y="0"> </tspan></text>
    <text class="cls-11" transform="translate(222.73 166.71) scale(1.25 1)"><tspan class="cls-7" x="0" y="0">2</tspan><tspan class="cls-36" x="4.43" y="0">0</tspan><tspan class="cls-7" x="8.93" y="0">1</tspan><tspan class="cls-23" x="13.36" y="0">3</tspan></text>
    <text class="cls-11" transform="translate(239.46 166.71) scale(1.25 1)"><tspan x="0" y="0"> </tspan></text>
    <text class="cls-11" transform="translate(258.73 166.71) scale(1.25 1)"><tspan class="cls-3" x="0" y="0">2</tspan><tspan class="cls-4" x="4.41" y="0">0</tspan><tspan class="cls-3" x="8.9" y="0">1</tspan><tspan x="13.31" y="0">4</tspan></text>
    <text class="cls-11" transform="translate(275.4 166.71) scale(1.25 1)"><tspan x="0" y="0"> </tspan></text>
    <text class="cls-11" transform="translate(294.71 166.71) scale(1.25 1)"><tspan class="cls-33" x="0" y="0">2</tspan><tspan class="cls-4" x="4.41" y="0">0</tspan><tspan class="cls-3" x="8.9" y="0">1</tspan><tspan x="13.31" y="0">5</tspan></text>
    <text class="cls-11" transform="translate(311.38 166.71) scale(1.25 1)"><tspan x="0" y="0"> </tspan></text>
    <text class="cls-11" transform="translate(330.68 166.71) scale(1.25 1)"><tspan class="cls-3" x="0" y="0">2</tspan><tspan class="cls-35" x="4.41" y="0">0</tspan><tspan class="cls-3" x="8.9" y="0">1</tspan><tspan class="cls-16" x="13.31" y="0">6</tspan></text>
    <text class="cls-11" transform="translate(347.35 166.71) scale(1.25 1)"><tspan x="0" y="0"> </tspan></text>
    <text class="cls-11" transform="translate(366.66 166.71) scale(1.25 1)"><tspan class="cls-21" x="0" y="0">2</tspan><tspan class="cls-20" x="4.43" y="0">0</tspan><tspan class="cls-2" x="8.93" y="0">1</tspan><tspan x="13.36" y="0">7</tspan></text>
    <text class="cls-11" transform="translate(383.39 166.71) scale(1.25 1)"><tspan x="0" y="0"> </tspan></text>
    <text class="cls-11" transform="translate(402.66 166.71) scale(1.25 1)"><tspan class="cls-3" x="0" y="0">2</tspan><tspan class="cls-35" x="4.41" y="0">0</tspan><tspan class="cls-3" x="8.9" y="0">1</tspan><tspan class="cls-16" x="13.31" y="0">8</tspan></text>
    <text class="cls-11" transform="translate(419.33 166.71) scale(1.25 1)"><tspan x="0" y="0"> </tspan></text>
    <text class="cls-11" transform="translate(438.63 166.71) scale(1.25 1)"><tspan class="cls-3" x="0" y="0">2</tspan><tspan class="cls-35" x="4.41" y="0">0</tspan><tspan class="cls-3" x="8.9" y="0">1</tspan><tspan class="cls-16" x="13.31" y="0">9</tspan></text>
    <text class="cls-11" transform="translate(455.3 166.71) scale(1.25 1)"><tspan x="0" y="0"> </tspan></text>
    <text class="cls-11" transform="translate(474.61 166.71) scale(1.25 1)"><tspan class="cls-3" x="0" y="0">2</tspan><tspan class="cls-35" x="4.41" y="0">0</tspan><tspan class="cls-3" x="8.9" y="0">2</tspan><tspan class="cls-16" x="13.31" y="0">0</tspan></text>
    <text class="cls-11" transform="translate(491.28 166.71) scale(1.25 1)"><tspan x="0" y="0"> </tspan></text>
    <text class="cls-11" transform="translate(510.59 166.71) scale(1.25 1)"><tspan class="cls-21" x="0" y="0">2</tspan><tspan class="cls-20" x="4.43" y="0">0</tspan><tspan class="cls-2" x="8.93" y="0">2</tspan><tspan x="13.36" y="0">1</tspan></text>
    <text class="cls-11" transform="translate(527.32 166.71) scale(1.25 1)"><tspan x="0" y="0"> </tspan></text>
    <text class="cls-11" transform="translate(546.59 166.71) scale(1.25 1)"><tspan class="cls-3" x="0" y="0">2</tspan><tspan class="cls-35" x="4.41" y="0">0</tspan><tspan class="cls-3" x="8.9" y="0">2</tspan><tspan class="cls-16" x="13.31" y="0">2</tspan></text>
    <text class="cls-11" transform="translate(563.26 166.71) scale(1.25 1)"><tspan x="0" y="0"> </tspan></text>
    <text class="cls-11" transform="translate(582.56 166.71) scale(1.25 1)"><tspan class="cls-3" x="0" y="0">2</tspan><tspan class="cls-35" x="4.41" y="0">0</tspan><tspan class="cls-3" x="8.9" y="0">2</tspan><tspan class="cls-16" x="13.31" y="0">3</tspan></text>
    <text class="cls-11" transform="translate(599.23 166.71) scale(1.25 1)"><tspan x="0" y="0"> </tspan></text>
    <text class="cls-11" transform="translate(618.54 166.71) scale(1.25 1)"><tspan class="cls-3" x="0" y="0">2</tspan><tspan class="cls-35" x="4.41" y="0">0</tspan><tspan class="cls-3" x="8.9" y="0">2</tspan><tspan class="cls-16" x="13.31" y="0">4</tspan></text>
    <text class="cls-11" transform="translate(635.21 166.71) scale(1.25 1)"><tspan x="0" y="0"> </tspan></text>
    <text class="cls-11" transform="translate(652.47 166.71) scale(1.25 1)"><tspan class="cls-3" x="0" y="0">1</tspan><tspan class="cls-38" x="4.41" y="0">Q</tspan><tspan class="cls-3" x="10.33" y="0">&apos;</tspan><tspan class="cls-35" x="12.16" y="0">2</tspan><tspan class="cls-16" x="16.64" y="0">5</tspan></text>
  </g>
</svg>