<?xml version="1.0" encoding="UTF-8"?>
<svg id="_Слой_2" data-name="Слой 2" xmlns="http://www.w3.org/2000/svg" viewBox="0 0 339.44 263.42">
  <defs>
    <style>
      .cls-1 {
        letter-spacing: 0em;
      }

      .cls-2 {
        letter-spacing: 0em;
      }

      .cls-3 {
        letter-spacing: 0em;
      }

      .cls-4 {
        letter-spacing: 0em;
      }

      .cls-5 {
        font-size: 10.56px;
      }

      .cls-5, .cls-6, .cls-7, .cls-8, .cls-9, .cls-10, .cls-11, .cls-12 {
        font-family: Calibri-Light, Calibri;
        font-weight: 300;
      }

      .cls-5, .cls-8, .cls-9, .cls-11, .cls-12 {
        fill: #0a2535;
      }

      .cls-13, .cls-7 {
        fill: #029d72;
      }

      .cls-14 {
        letter-spacing: 0em;
      }

      .cls-6, .cls-7 {
        font-size: 11.04px;
      }

      .cls-6, .cls-10, .cls-15 {
        fill: #fff;
      }

      .cls-16 {
        letter-spacing: 0em;
      }

      .cls-17 {
        letter-spacing: 0em;
      }

      .cls-18 {
        fill: #869198;
      }

      .cls-19 {
        letter-spacing: 0em;
      }

      .cls-20 {
        letter-spacing: 0em;
      }

      .cls-21 {
        letter-spacing: 0em;
      }

      .cls-22 {
        letter-spacing: -.01em;
      }

      .cls-23 {
        letter-spacing: -.05em;
      }

      .cls-24 {
        letter-spacing: .02em;
      }

      .cls-25 {
        letter-spacing: 0em;
      }

      .cls-8 {
        font-size: 9px;
      }

      .cls-26 {
        letter-spacing: 0em;
      }

      .cls-27 {
        letter-spacing: -.01em;
      }

      .cls-28 {
        letter-spacing: 0em;
      }

      .cls-9 {
        font-size: 12.02px;
      }

      .cls-10 {
        font-size: 11.06px;
      }

      .cls-29 {
        letter-spacing: 0em;
      }

      .cls-30 {
        stroke-linecap: round;
        stroke-width: 2.25px;
      }

      .cls-30, .cls-31, .cls-32 {
        fill: none;
        stroke-linejoin: round;
      }

      .cls-30, .cls-32 {
        stroke: #029d72;
      }

      .cls-11 {
        font-size: 12px;
      }

      .cls-33 {
        letter-spacing: 0em;
      }

      .cls-34 {
        letter-spacing: 0em;
      }

      .cls-35 {
        letter-spacing: 0em;
      }

      .cls-36 {
        letter-spacing: 0em;
      }

      .cls-37 {
        letter-spacing: 0em;
      }

      .cls-31 {
        stroke: #869198;
      }

      .cls-31, .cls-32 {
        stroke-width: .75px;
      }

      .cls-38 {
        letter-spacing: 0em;
      }

      .cls-15 {
        font-family: Calibri, Calibri;
        font-size: .96px;
      }

      .cls-39 {
        letter-spacing: .01em;
      }

      .cls-40 {
        letter-spacing: 0em;
      }

      .cls-41 {
        letter-spacing: 0em;
      }

      .cls-42 {
        letter-spacing: 0em;
      }

      .cls-43 {
        letter-spacing: 0em;
      }

      .cls-44 {
        letter-spacing: 0em;
      }

      .cls-45 {
        letter-spacing: 0em;
      }

      .cls-12 {
        font-size: 8.04px;
      }

      .cls-46 {
        letter-spacing: 0em;
      }

      .cls-47 {
        letter-spacing: 0em;
      }

      .cls-48 {
        letter-spacing: 0em;
      }

      .cls-49 {
        letter-spacing: 0em;
      }

      .cls-50 {
        letter-spacing: 0em;
      }

      .cls-51 {
        letter-spacing: 0em;
      }

      .cls-52 {
        letter-spacing: 0em;
      }

      .cls-53 {
        letter-spacing: 0em;
      }
    </style>
  </defs>
  <g id="_Слой_1-2" data-name="Слой 1">
    <path class="cls-18" d="m295.85,17.45h26.28v207.66h-26.28V17.45Zm-55.32,77.88h26.28v129.78h-26.28V95.33Zm-55.32,43.8h26.4v85.98h-26.4v-85.98Zm-55.2,50.76h26.28v35.22h-26.28v-35.22Zm-55.32,18.24h26.28v16.98h-26.28v-16.98Zm-55.32,16.68h26.4v.3h-26.4v-.3Z"/>
    <line class="cls-31" x1="4.95" y1="225.11" x2="336.61" y2="225.11"/>
    <polyline class="cls-30" points="32.59 205 87.89 203.33 143.09 193.37 198.41 177.89 253.73 122.45 308.97 82.59"/>
    <rect class="cls-13" x="30.02" y="202.46" width="5.04" height="5.04"/>
    <rect class="cls-32" x="30.02" y="202.46" width="5.04" height="5.04"/>
    <rect class="cls-13" x="85.34" y="200.78" width="5.04" height="5.04"/>
    <rect class="cls-32" x="85.34" y="200.78" width="5.04" height="5.04"/>
    <rect class="cls-13" x="140.54" y="190.82" width="5.04" height="5.04"/>
    <rect class="cls-32" x="140.54" y="190.82" width="5.04" height="5.04"/>
    <rect class="cls-13" x="195.86" y="175.34" width="5.04" height="5.04"/>
    <rect class="cls-32" x="195.86" y="175.34" width="5.04" height="5.04"/>
    <rect class="cls-13" x="251.18" y="119.9" width="5.04" height="5.04"/>
    <rect class="cls-32" x="251.18" y="119.9" width="5.04" height="5.04"/>
    <rect class="cls-13" x="306.38" y="80.06" width="5.04" height="5.04"/>
    <rect class="cls-32" x="306.38" y="80.06" width="5.04" height="5.04"/>
    <text class="cls-11" transform="translate(26.4 217.2)"><tspan class="cls-4" x="0" y="0">$</tspan><tspan x="6.14" y="0">1</tspan></text>
    <text class="cls-11" transform="translate(78.7 200.47)"><tspan class="cls-43" x="0" y="0">$8</tspan><tspan x="12.24" y="0">2</tspan></text>
    <text class="cls-11" transform="translate(130.85 180.27)"><tspan class="cls-4" x="0" y="0">$17</tspan><tspan x="18.43" y="0">0</tspan></text>
    <text class="cls-9" transform="translate(186.15 131.43)"><tspan class="cls-46" x="0" y="0">$41</tspan><tspan x="18.35" y="0">5</tspan></text>
    <text class="cls-11" transform="translate(241.42 87.7)"><tspan class="cls-4" x="0" y="0">$62</tspan><tspan x="18.43" y="0">6</tspan></text>
    <text class="cls-7" transform="translate(22.13 194.52)"><tspan class="cls-14" x="0" y="0">$4</tspan><tspan class="cls-2" x="11.28" y="0">7</tspan></text>
    <text class="cls-11" transform="translate(292.27 9.79)"><tspan x="0" y="0">$</tspan><tspan class="cls-4" x="6.08" y="0">1</tspan><tspan class="cls-19" x="12.22" y="0">,</tspan><tspan x="15.11" y="0">0</tspan><tspan class="cls-17" x="21.19" y="0">0</tspan><tspan x="27.34" y="0">2</tspan></text>
    <text class="cls-10" transform="translate(79.42 220.85)"><tspan class="cls-20" x="0" y="0">$5</tspan><tspan class="cls-37" x="11.26" y="0">5</tspan></text>
    <text class="cls-6" transform="translate(131.81 210.91)"><tspan class="cls-52" x="0" y="0">$10</tspan><tspan x="16.98" y="0">3</tspan></text>
    <text class="cls-6" transform="translate(187.11 195.36)"><tspan class="cls-49" x="0" y="0">$17</tspan><tspan class="cls-2" x="16.92" y="0">8</tspan></text>
    <text class="cls-6" transform="translate(242.4 140.02)"><tspan class="cls-49" x="0" y="0">$44</tspan><tspan class="cls-2" x="16.92" y="0">5</tspan></text>
    <text class="cls-6" transform="translate(297.67 100.08)"><tspan class="cls-14" x="0" y="0">$63</tspan><tspan class="cls-2" x="16.92" y="0">8</tspan></text>
    <text class="cls-15" transform="translate(337.59 225.48)"><tspan class="cls-24" x="0" y="0"> </tspan><tspan class="cls-23" x=".24" y="0">(</tspan><tspan x=".48" y="0">5</tspan></text>
    <text class="cls-15" transform="translate(338.07 225.48)"><tspan x="0" y="0"> </tspan></text>
    <text class="cls-15" transform="translate(338.67 225.48)"><tspan class="cls-28" x="0" y="0">0</tspan><tspan x=".48" y="0">)</tspan></text>
    <text class="cls-15" transform="translate(337.59 184.01)"><tspan class="cls-24" x="0" y="0"> </tspan><tspan class="cls-29" x=".24" y="0">15</tspan><tspan class="cls-21" x="1.2" y="0">0</tspan></text>
    <text class="cls-15" transform="translate(337.59 142.56)"><tspan class="cls-24" x="0" y="0"> </tspan><tspan class="cls-29" x=".24" y="0">35</tspan><tspan class="cls-21" x="1.2" y="0">0</tspan></text>
    <text class="cls-15" transform="translate(337.59 101.09)"><tspan class="cls-24" x="0" y="0"> </tspan><tspan class="cls-29" x=".24" y="0">55</tspan><tspan class="cls-21" x="1.2" y="0">0</tspan></text>
    <text class="cls-15" transform="translate(337.59 59.62)"><tspan class="cls-24" x="0" y="0"> </tspan><tspan class="cls-29" x=".24" y="0">75</tspan><tspan class="cls-21" x="1.2" y="0">0</tspan></text>
    <text class="cls-15" transform="translate(337.59 18.17)"><tspan class="cls-24" x="0" y="0"> </tspan><tspan class="cls-29" x=".24" y="0">95</tspan><tspan class="cls-21" x="1.2" y="0">0</tspan></text>
    <text class="cls-15" transform="translate(1.75 225.48)"><tspan class="cls-28" x="0" y="0">$0</tspan><tspan class="cls-21" x=".96" y="0">.</tspan></text>
    <text class="cls-15" transform="translate(2.71 225.48)"><tspan x="0" y="0"> </tspan></text>
    <text class="cls-15" transform="translate(3.07 225.48)"><tspan class="cls-28" x="0" y="0">0</tspan><tspan x=".48" y="0">0</tspan></text>
    <text class="cls-15" transform="translate(.74 184.01)"><tspan class="cls-28" x="0" y="0">$2</tspan><tspan class="cls-21" x=".96" y="0">0</tspan></text>
    <text class="cls-15" transform="translate(1.7 184.01)"><tspan x="0" y="0"> </tspan></text>
    <text class="cls-15" transform="translate(2.3 184.01)"><tspan class="cls-28" x="0" y="0">0</tspan><tspan x=".48" y="0">.</tspan><tspan class="cls-28" x=".72" y="0">0</tspan><tspan x="1.2" y="0">0</tspan></text>
    <text class="cls-15" transform="translate(.74 142.56)"><tspan class="cls-28" x="0" y="0">$4</tspan><tspan class="cls-21" x=".96" y="0">0</tspan></text>
    <text class="cls-15" transform="translate(1.7 142.56)"><tspan x="0" y="0"> </tspan></text>
    <text class="cls-15" transform="translate(2.3 142.56)"><tspan class="cls-28" x="0" y="0">0</tspan><tspan x=".48" y="0">.</tspan><tspan class="cls-28" x=".72" y="0">0</tspan><tspan x="1.2" y="0">0</tspan></text>
    <text class="cls-15" transform="translate(.74 101.09)"><tspan class="cls-28" x="0" y="0">$6</tspan><tspan class="cls-21" x=".96" y="0">0</tspan></text>
    <text class="cls-15" transform="translate(1.7 101.09)"><tspan x="0" y="0"> </tspan></text>
    <text class="cls-15" transform="translate(2.3 101.09)"><tspan class="cls-28" x="0" y="0">0</tspan><tspan x=".48" y="0">.</tspan><tspan class="cls-28" x=".72" y="0">0</tspan><tspan x="1.2" y="0">0</tspan></text>
    <text class="cls-15" transform="translate(.74 59.62)"><tspan class="cls-28" x="0" y="0">$8</tspan><tspan class="cls-21" x=".96" y="0">0</tspan></text>
    <text class="cls-15" transform="translate(1.7 59.62)"><tspan x="0" y="0"> </tspan></text>
    <text class="cls-15" transform="translate(2.3 59.62)"><tspan class="cls-28" x="0" y="0">0</tspan><tspan x=".48" y="0">.</tspan><tspan class="cls-28" x=".72" y="0">0</tspan><tspan x="1.2" y="0">0</tspan></text>
    <text class="cls-15" transform="translate(0 18.17)"><tspan class="cls-28" x="0" y="0">$1</tspan><tspan x=".96" y="0">,</tspan></text>
    <text class="cls-15" transform="translate(.96 18.17)"><tspan x="0" y="0"> </tspan></text>
    <text class="cls-15" transform="translate(1.32 18.17)"><tspan class="cls-28" x="0" y="0">000</tspan><tspan x="1.44" y="0">.</tspan><tspan class="cls-28" x="1.68" y="0">0</tspan><tspan x="2.17" y="0">0</tspan></text>
    <text class="cls-5" transform="translate(21.96 241.83)"><tspan class="cls-35" x="0" y="0">2</tspan><tspan class="cls-3" x="5.29" y="0">0</tspan><tspan class="cls-35" x="10.67" y="0">0</tspan><tspan x="15.96" y="0">7</tspan></text>
    <rect class="cls-18" x="11.67" y="255.92" width="19.2" height="4.94"/>
    <text class="cls-5" transform="translate(298.37 241.83)"><tspan class="cls-35" x="0" y="0">2</tspan><tspan class="cls-3" x="5.29" y="0">0</tspan><tspan class="cls-35" x="10.67" y="0">2</tspan><tspan x="15.96" y="0">4</tspan></text>
    <line class="cls-30" x1="200.23" y1="258.39" x2="219.43" y2="258.39"/>
    <rect class="cls-13" x="207.29" y="255.77" width="5.04" height="5.04"/>
    <rect class="cls-32" x="207.29" y="255.77" width="5.04" height="5.04"/>
    <text class="cls-5" transform="translate(64.99 241.83)"><tspan class="cls-35" x="0" y="0">2</tspan><tspan class="cls-3" x="5.29" y="0">0</tspan><tspan class="cls-35" x="10.67" y="0">08</tspan><tspan x="21.25" y="0">-</tspan><tspan class="cls-53" x="24.48" y="0">2</tspan><tspan class="cls-25" x="29.78" y="0">0</tspan><tspan class="cls-35" x="35.17" y="0">1</tspan><tspan class="cls-36" x="40.46" y="0">1</tspan></text>
    <text class="cls-5" transform="translate(105.4 241.83)"><tspan x="0" y="0"> </tspan></text>
    <text class="cls-5" transform="translate(120.27 241.83)"><tspan class="cls-35" x="0" y="0">2</tspan><tspan class="cls-26" x="5.29" y="0">0</tspan><tspan class="cls-41" x="10.7" y="0">12</tspan><tspan class="cls-36" x="21.28" y="0">-</tspan><tspan class="cls-53" x="24.52" y="0">2</tspan><tspan class="cls-26" x="29.81" y="0">0</tspan><tspan class="cls-35" x="35.23" y="0">1</tspan><tspan x="40.52" y="0">5</tspan></text>
    <text class="cls-5" transform="translate(160.74 241.83)"><tspan x="0" y="0"> </tspan></text>
    <text class="cls-5" transform="translate(175.56 241.83)"><tspan class="cls-35" x="0" y="0">2</tspan><tspan class="cls-3" x="5.29" y="0">0</tspan><tspan class="cls-35" x="10.67" y="0">16</tspan><tspan x="21.25" y="0">-</tspan><tspan class="cls-53" x="24.48" y="0">2</tspan><tspan class="cls-25" x="29.78" y="0">0</tspan><tspan class="cls-35" x="35.17" y="0">1</tspan><tspan class="cls-36" x="40.46" y="0">9</tspan></text>
    <text class="cls-5" transform="translate(215.97 241.83)"><tspan x="0" y="0"> </tspan></text>
    <text class="cls-5" transform="translate(230.83 241.83)"><tspan class="cls-35" x="0" y="0">2</tspan><tspan class="cls-34" x="5.29" y="0">0</tspan><tspan class="cls-35" x="10.7" y="0">20</tspan><tspan class="cls-36" x="21.28" y="0">-</tspan><tspan class="cls-53" x="24.52" y="0">2</tspan><tspan class="cls-26" x="29.81" y="0">0</tspan><tspan class="cls-35" x="35.23" y="0">2</tspan><tspan x="40.52" y="0">3</tspan></text>
    <text class="cls-8" transform="translate(32.9 261)"><tspan class="cls-1" x="0" y="0">A</tspan><tspan x="5.04" y="0">ver</tspan><tspan class="cls-40" x="16.55" y="0">a</tspan><tspan class="cls-47" x="20.77" y="0">g</tspan><tspan x="25.08" y="0">e </tspan><tspan class="cls-27" x="31.56" y="0">K</tspan><tspan class="cls-39" x="36" y="0">C</tspan><tspan class="cls-50" x="40.91" y="0">M</tspan><tspan x="48.48" y="0" xml:space="preserve"> Tr</tspan><tspan class="cls-50" x="57.96" y="0">a</tspan><tspan x="62.16" y="0">ns</tspan><tspan class="cls-16" x="70.32" y="0">a</tspan><tspan x="74.63" y="0">c</tspan><tspan class="cls-38" x="78.46" y="0">t</tspan><tspan class="cls-48" x="81.36" y="0">i</tspan><tspan x="83.39" y="0">on </tspan><tspan class="cls-51" x="94.79" y="0">F</tspan><tspan x="98.88" y="0">ees </tspan><tspan class="cls-44" x="113.29" y="0">(</tspan><tspan x="116.03" y="0">$ </tspan><tspan class="cls-51" x="122.63" y="0">i</tspan><tspan x="124.56" y="0">n </tspan><tspan class="cls-50" x="131.27" y="0">m</tspan><tspan class="cls-48" x="138.36" y="0">il</tspan><tspan class="cls-33" x="142.42" y="0">l</tspan><tspan class="cls-48" x="144.34" y="0">i</tspan><tspan x="146.37" y="0">ons)</tspan></text>
    <text class="cls-8" transform="translate(221.5 261)"><tspan class="cls-1" x="0" y="0">A</tspan><tspan x="5.04" y="0">ver</tspan><tspan class="cls-40" x="16.55" y="0">a</tspan><tspan class="cls-47" x="20.77" y="0">g</tspan><tspan x="25.08" y="0">e </tspan><tspan class="cls-27" x="31.56" y="0">K</tspan><tspan x="36" y="0">K</tspan><tspan class="cls-42" x="40.54" y="0">R</tspan><tspan x="45.35" y="0" xml:space="preserve"> AU</tspan><tspan class="cls-40" x="58.18" y="0">M</tspan><tspan x="65.76" y="0"> </tspan><tspan class="cls-45" x="67.8" y="0">(</tspan><tspan x="70.55" y="0">$ </tspan><tspan class="cls-51" x="77.15" y="0">i</tspan><tspan x="79.08" y="0">n b</tspan><tspan class="cls-48" x="90.46" y="0">i</tspan><tspan class="cls-33" x="92.5" y="0">l</tspan><tspan class="cls-48" x="94.42" y="0">l</tspan><tspan class="cls-33" x="96.45" y="0">i</tspan><tspan class="cls-47" x="98.37" y="0">o</tspan><tspan class="cls-22" x="103.16" y="0">n</tspan><tspan x="107.73" y="0">s)</tspan></text>
    <text class="cls-12" transform="translate(321.22 236.88)"><tspan x="0" y="0">(1)</tspan></text>
  </g>
</svg>