<?xml version="1.0" encoding="UTF-8"?>
<svg id="_Слой_2" data-name="Слой 2" xmlns="http://www.w3.org/2000/svg" xmlns:xlink="http://www.w3.org/1999/xlink" viewBox="0 0 331.56 284">
  <defs>
    <style>
      .cls-1 {
        letter-spacing: 0em;
      }

      .cls-2 {
        letter-spacing: 0em;
      }

      .cls-3 {
        letter-spacing: 0em;
      }

      .cls-4 {
        letter-spacing: 0em;
      }

      .cls-5 {
        letter-spacing: 0em;
      }

      .cls-6 {
        letter-spacing: -.01em;
      }

      .cls-7 {
        letter-spacing: 0em;
      }

      .cls-8 {
        letter-spacing: 0em;
      }

      .cls-9 {
        letter-spacing: 0em;
      }

      .cls-10 {
        letter-spacing: -.03em;
      }

      .cls-11, .cls-12, .cls-13, .cls-14 {
        fill: #0a2535;
      }

      .cls-15 {
        letter-spacing: .03em;
      }

      .cls-16 {
        letter-spacing: 0em;
      }

      .cls-17 {
        letter-spacing: 0em;
      }

      .cls-18 {
        letter-spacing: 0em;
      }

      .cls-19 {
        letter-spacing: -.03em;
      }

      .cls-20 {
        fill: #869198;
      }

      .cls-21 {
        letter-spacing: 0em;
      }

      .cls-22 {
        fill: #fff;
      }

      .cls-22, .cls-13 {
        font-family: Calibri-Light, Calibri;
        font-size: 12px;
        font-weight: 300;
      }

      .cls-23 {
        letter-spacing: 0em;
      }

      .cls-12 {
        font-size: 9.96px;
      }

      .cls-12, .cls-14 {
        font-family: Calibri-Bold, Calibri;
        font-weight: 700;
      }

      .cls-24 {
        letter-spacing: 0em;
      }

      .cls-25 {
        letter-spacing: 0em;
      }

      .cls-26 {
        letter-spacing: 0em;
      }

      .cls-27 {
        letter-spacing: 0em;
      }

      .cls-28 {
        letter-spacing: 0em;
      }

      .cls-29 {
        letter-spacing: 0em;
      }

      .cls-30 {
        letter-spacing: 0em;
      }

      .cls-31 {
        letter-spacing: 0em;
      }

      .cls-32 {
        letter-spacing: 0em;
      }

      .cls-33 {
        letter-spacing: 0em;
      }

      .cls-34 {
        letter-spacing: 0em;
      }

      .cls-35 {
        letter-spacing: -.01em;
      }

      .cls-36 {
        letter-spacing: 0em;
      }

      .cls-37 {
        clip-path: url(#clippath);
      }

      .cls-38 {
        letter-spacing: 0em;
      }

      .cls-39 {
        stroke: #869198;
        stroke-linejoin: round;
        stroke-width: .75px;
      }

      .cls-39, .cls-40 {
        fill: none;
      }

      .cls-41 {
        letter-spacing: 0em;
      }

      .cls-42 {
        letter-spacing: 0em;
      }

      .cls-43 {
        letter-spacing: 0em;
      }

      .cls-44 {
        letter-spacing: 0em;
      }

      .cls-45 {
        letter-spacing: .01em;
      }

      .cls-46 {
        letter-spacing: 0em;
      }

      .cls-47 {
        letter-spacing: 0em;
      }

      .cls-14 {
        font-size: 9.98px;
      }

      .cls-48 {
        letter-spacing: 0em;
      }

      .cls-49 {
        letter-spacing: 0em;
      }
    </style>
    <clipPath id="clippath">
      <rect class="cls-40" width="331.56" height="284"/>
    </clipPath>
  </defs>
  <g id="_Слой_1-2" data-name="Слой 1">
    <path class="cls-20" d="m279.8,33.44h36.96v226.76h-36.96V33.44Zm-66.48,95.88h36.96v130.88h-36.96v-130.88Zm-66.6-4.92h36.96v135.8h-36.96V124.4Zm-66.48-55.92h36.96v191.72h-36.96V68.48ZM13.64,151.52h36.96v108.68H13.64v-108.68Z"/>
    <g class="cls-37">
      <line class="cls-39" x1="7.73" y1="247.82" x2="331.63" y2="247.82"/>
    </g>
    <text class="cls-22" transform="translate(20.02 167.5)"><tspan class="cls-41" x="0" y="0">$48</tspan><tspan x="18.35" y="0">0</tspan></text>
    <text class="cls-22" transform="translate(86.55 84.39)"><tspan class="cls-41" x="0" y="0">$84</tspan><tspan x="18.35" y="0">7</tspan></text>
    <text class="cls-22" transform="translate(153.1 140.34)"><tspan class="cls-41" x="0" y="0">$60</tspan><tspan x="18.35" y="0">0</tspan></text>
    <text class="cls-22" transform="translate(219.67 145.3)"><tspan class="cls-41" x="0" y="0">$57</tspan><tspan x="18.35" y="0">8</tspan></text>
    <text class="cls-22" transform="translate(281.66 49.35)"><tspan x="0" y="0">$</tspan><tspan class="cls-18" x="6.08" y="0">1</tspan><tspan class="cls-21" x="12.22" y="0">,</tspan><tspan x="15.11" y="0">0</tspan><tspan class="cls-7" x="21.19" y="0">0</tspan><tspan x="27.34" y="0">2</tspan></text>
    <text class="cls-13" transform="translate(20.1 279.27)"><tspan x="0" y="0">2</tspan><tspan class="cls-28" x="6.08" y="0">0</tspan><tspan x="12.13" y="0">20</tspan></text>
    <text class="cls-13" transform="translate(86.66 279.27)"><tspan x="0" y="0">2</tspan><tspan class="cls-28" x="6.08" y="0">0</tspan><tspan x="12.13" y="0">21</tspan></text>
    <text class="cls-13" transform="translate(153.21 279.27)"><tspan x="0" y="0">2</tspan><tspan class="cls-28" x="6.08" y="0">0</tspan><tspan x="12.13" y="0">22</tspan></text>
    <text class="cls-13" transform="translate(219.76 279.27)"><tspan x="0" y="0">2</tspan><tspan class="cls-28" x="6.08" y="0">0</tspan><tspan x="12.13" y="0">23</tspan></text>
    <text class="cls-13" transform="translate(286.29 279.27)"><tspan x="0" y="0">2</tspan><tspan class="cls-28" x="6.08" y="0">0</tspan><tspan x="12.13" y="0">24</tspan></text>
    <path class="cls-11" d="m265.74,40.63l6,3-6,3v-6Zm-37.92,2.25h38.92v1.5h-38.92v-1.5Z"/>
    <text class="cls-14" transform="translate(69.06 43.66)"><tspan x="0" y="0">R</tspan><tspan class="cls-48" x="5.62" y="0">e</tspan><tspan x="10.67" y="0">c</tspan><tspan class="cls-31" x="14.84" y="0">o</tspan><tspan class="cls-25" x="20.26" y="0">r</tspan><tspan class="cls-29" x="23.85" y="0">d</tspan><tspan class="cls-19" x="29.24" y="0"> </tspan><tspan class="cls-24" x="31.16" y="0">Y</tspan><tspan x="36.32" y="0">ea</tspan><tspan class="cls-25" x="46.28" y="0">r</tspan><tspan class="cls-49" x="49.87" y="0"> </tspan><tspan class="cls-2" x="52.02" y="0">i</tspan><tspan class="cls-29" x="54.43" y="0">n</tspan><tspan x="59.81" y="0"> </tspan></text>
    <text class="cls-12" transform="translate(68.1 55.69)"><tspan class="cls-32" x="0" y="0">R</tspan><tspan class="cls-17" x="5.63" y="0">e</tspan><tspan class="cls-32" x="10.65" y="0">c</tspan><tspan class="cls-42" x="14.84" y="0">o</tspan><tspan class="cls-43" x="20.22" y="0">rd</tspan><tspan class="cls-10" x="29.19" y="0"> </tspan><tspan class="cls-43" x="31.11" y="0">M</tspan><tspan x="39.86" y="0">a</tspan><tspan class="cls-43" x="44.77" y="0">r</tspan><tspan x="48.35" y="0">k</tspan><tspan class="cls-42" x="53.13" y="0">e</tspan><tspan x="58.18" y="0">t</tspan></text>
    <text class="cls-14" transform="translate(163.23 100.18)"><tspan x="0" y="0">R</tspan><tspan class="cls-48" x="5.62" y="0">e</tspan><tspan x="10.67" y="0">s</tspan><tspan class="cls-9" x="14.65" y="0">i</tspan><tspan class="cls-2" x="17.03" y="0">li</tspan><tspan class="cls-16" x="21.84" y="0">e</tspan><tspan class="cls-8" x="26.86" y="0">n</tspan><tspan x="32.27" y="0">t</tspan><tspan class="cls-15" x="35.73" y="0"> </tspan><tspan class="cls-24" x="38.25" y="0">Y</tspan><tspan x="43.42" y="0">ea</tspan><tspan class="cls-25" x="53.37" y="0">r</tspan><tspan x="56.96" y="0">s</tspan><tspan class="cls-6" x="60.94" y="0"> </tspan><tspan class="cls-2" x="63.08" y="0">i</tspan><tspan class="cls-30" x="65.48" y="0">n</tspan><tspan class="cls-26" x="70.87" y="0"> </tspan></text>
    <text class="cls-12" transform="translate(160.47 112.21)"><tspan class="cls-47" x="0" y="0">D</tspan><tspan class="cls-1" x="6.25" y="0">i</tspan><tspan class="cls-3" x="8.66" y="0">s</tspan><tspan class="cls-34" x="12.63" y="0">l</tspan><tspan class="cls-42" x="15.02" y="0">o</tspan><tspan class="cls-32" x="20.41" y="0">c</tspan><tspan x="24.6" y="0">at</tspan><tspan class="cls-42" x="32.97" y="0">e</tspan><tspan class="cls-46" x="38.01" y="0">d</tspan><tspan x="43.39" y="0"> </tspan><tspan class="cls-36" x="45.65" y="0">M</tspan><tspan class="cls-3" x="54.41" y="0">a</tspan><tspan class="cls-33" x="59.33" y="0">r</tspan><tspan x="62.91" y="0">k</tspan><tspan class="cls-42" x="67.69" y="0">e</tspan><tspan x="72.73" y="0">t</tspan></text>
    <text class="cls-12" transform="translate(216.3 14.43)"><tspan class="cls-32" x="0" y="0">R</tspan><tspan class="cls-17" x="5.63" y="0">e</tspan><tspan class="cls-32" x="10.65" y="0">c</tspan><tspan class="cls-42" x="14.84" y="0">o</tspan><tspan class="cls-43" x="20.22" y="0">rd</tspan><tspan class="cls-10" x="29.19" y="0"> </tspan><tspan x="31.11" y="0">Yea</tspan><tspan class="cls-23" x="46.22" y="0">r</tspan><tspan class="cls-5" x="49.82" y="0"> </tspan><tspan class="cls-4" x="51.98" y="0">i</tspan><tspan class="cls-46" x="54.39" y="0">n</tspan><tspan class="cls-45" x="59.77" y="0"> </tspan><tspan class="cls-3" x="62.15" y="0">a</tspan></text>
    <text class="cls-12" transform="translate(283.42 14.43)"><tspan x="0" y="0"> </tspan></text>
    <text class="cls-12" transform="translate(212.35 26.43)"><tspan class="cls-32" x="0" y="0">R</tspan><tspan class="cls-17" x="5.63" y="0">e</tspan><tspan class="cls-44" x="10.65" y="0">o</tspan><tspan class="cls-43" x="16.04" y="0">p</tspan><tspan class="cls-17" x="21.42" y="0">e</tspan><tspan class="cls-43" x="26.44" y="0">n</tspan><tspan class="cls-27" x="31.83" y="0">e</tspan><tspan class="cls-43" x="36.85" y="0">d</tspan><tspan class="cls-35" x="42.24" y="0"> </tspan><tspan class="cls-38" x="44.37" y="0">M</tspan><tspan class="cls-3" x="53.12" y="0">a</tspan><tspan class="cls-33" x="58.04" y="0">r</tspan><tspan x="61.62" y="0">k</tspan><tspan class="cls-42" x="66.4" y="0">e</tspan><tspan x="71.45" y="0">t</tspan></text>
  </g>
</svg>