<?xml version="1.0" encoding="UTF-8"?>
<svg id="_Слой_2" data-name="Слой 2" xmlns="http://www.w3.org/2000/svg" viewBox="0 0 151.24 151.26">
  <defs>
    <style>
      .cls-1 {
        fill: #0228b1;
      }

      .cls-1, .cls-2, .cls-3, .cls-4, .cls-5, .cls-6, .cls-7, .cls-8, .cls-9 {
        fill-rule: evenodd;
      }

      .cls-10 {
        fill: none;
        stroke: #fff;
        stroke-linejoin: round;
        stroke-width: 1.5px;
      }

      .cls-2 {
        fill: #f56600;
      }

      .cls-3 {
        fill: #4c5c67;
      }

      .cls-11 {
        fill: #fff;
        font-family: Calibri-Light, Calibri;
        font-size: 12px;
        font-weight: 300;
      }

      .cls-4 {
        fill: #5290e0;
      }

      .cls-5 {
        fill: #ffd828;
      }

      .cls-6 {
        fill: #869198;
      }

      .cls-7 {
        fill: #490e5a;
      }

      .cls-12 {
        letter-spacing: 0em;
      }

      .cls-8 {
        fill: #8e91ca;
      }

      .cls-9 {
        fill: #029d72;
      }
    </style>
  </defs>
  <g id="_Слой_1-2" data-name="Слой 1">
    <path class="cls-7" d="m75.62.75c41.35,0,74.87,33.53,74.87,74.88,0,15.35-4.72,30.33-13.52,42.91l-30.68-21.45c11.85-16.95,7.73-40.29-9.21-52.14-6.29-4.4-13.79-6.76-21.46-6.76V.75Z"/>
    <path class="cls-10" d="m75.62.75c41.35,0,74.87,33.53,74.87,74.88,0,15.35-4.72,30.33-13.52,42.91l-30.68-21.45c11.85-16.95,7.73-40.29-9.21-52.14-6.29-4.4-13.79-6.76-21.46-6.76V.75Z"/>
    <path class="cls-6" d="m136.97,118.54c-23.7,33.89-70.39,42.14-104.27,18.44-2.35-1.64-4.6-3.42-6.75-5.32l24.84-28.02c15.47,13.72,39.13,12.29,52.84-3.18.95-1.07,1.84-2.2,2.66-3.37l30.68,21.45Z"/>
    <path class="cls-10" d="m136.97,118.54c-23.7,33.89-70.39,42.14-104.27,18.44-2.35-1.64-4.6-3.42-6.75-5.32l24.84-28.02c15.47,13.72,39.13,12.29,52.84-3.18.95-1.07,1.84-2.2,2.66-3.37l30.68,21.45Z"/>
    <path class="cls-1" d="m25.95,131.66c-.66-.59-1.32-1.2-1.97-1.81l25.82-27.11c.32.31.65.61.99.9l-24.84,28.02Z"/>
    <path class="cls-10" d="m25.95,131.66c-.66-.59-1.32-1.2-1.97-1.81l25.82-27.11c.32.31.65.61.99.9l-24.84,28.02Z"/>
    <path class="cls-2" d="m23.98,129.85c-4.25-4.05-8.01-8.59-11.2-13.51l31.42-20.36c1.59,2.47,3.47,4.73,5.6,6.76l-25.82,27.11Z"/>
    <path class="cls-10" d="m23.98,129.85c-4.25-4.05-8.01-8.59-11.2-13.51l31.42-20.36c1.59,2.47,3.47,4.73,5.6,6.76l-25.82,27.11Z"/>
    <path class="cls-5" d="m12.78,116.34c-2.25-3.48-4.21-7.14-5.86-10.94l34.35-14.88c.82,1.9,1.8,3.72,2.93,5.46l-31.42,20.36Z"/>
    <path class="cls-10" d="m12.78,116.34c-2.25-3.48-4.21-7.14-5.86-10.94l34.35-14.88c.82,1.9,1.8,3.72,2.93,5.46l-31.42,20.36Z"/>
    <path class="cls-9" d="m6.92,105.4c-2.09-4.81-3.66-9.84-4.7-14.99l36.7-7.39c.52,2.57,1.3,5.09,2.35,7.5l-34.35,14.88Z"/>
    <path class="cls-10" d="m6.92,105.4c-2.09-4.81-3.66-9.84-4.7-14.99l36.7-7.39c.52,2.57,1.3,5.09,2.35,7.5l-34.35,14.88Z"/>
    <path class="cls-8" d="m2.22,90.41c-.72-3.58-1.18-7.22-1.37-10.87l37.38-1.96c.1,1.83.33,3.65.69,5.44l-36.7,7.39Z"/>
    <path class="cls-10" d="m2.22,90.41c-.72-3.58-1.18-7.22-1.37-10.87l37.38-1.96c.1,1.83.33,3.65.69,5.44l-36.7,7.39Z"/>
    <path class="cls-3" d="m.85,79.54c-.81-15.32,3.12-30.52,11.24-43.54l31.76,19.81c-4.06,6.51-6.02,14.11-5.62,21.77l-37.38,1.96Z"/>
    <path class="cls-10" d="m.85,79.54c-.81-15.32,3.12-30.52,11.24-43.54l31.76,19.81c-4.06,6.51-6.02,14.11-5.62,21.77l-37.38,1.96Z"/>
    <path class="cls-4" d="m12.09,36C25.77,14.08,49.78.75,75.62.75v37.44c-12.92,0-24.93,6.66-31.77,17.62l-31.76-19.81Z"/>
    <path class="cls-10" d="m12.09,36C25.77,14.08,49.78.75,75.62.75v37.44c-12.92,0-24.93,6.66-31.77,17.62l-31.76-19.81Z"/>
    <text class="cls-11" transform="translate(115.09 53.83)"><tspan class="cls-12" x="0" y="0">35</tspan><tspan x="12.24" y="0">%</tspan></text>
    <text class="cls-11" transform="translate(71.87 135.55)"><tspan class="cls-12" x="0" y="0">27</tspan><tspan x="12.24" y="0">%</tspan></text>
    <text class="cls-11" transform="translate(10.89 65.73)"><tspan class="cls-12" x="0" y="0">10</tspan><tspan x="12.24" y="0">%</tspan></text>
    <text class="cls-11" transform="translate(38.03 30.67)"><tspan class="cls-12" x="0" y="0">16</tspan><tspan x="12.24" y="0">%</tspan></text>
  </g>
</svg>