<?xml version="1.0" encoding="UTF-8"?>
<svg id="_Слой_2" data-name="Слой 2" xmlns="http://www.w3.org/2000/svg" viewBox="0 0 149.04 46.08">
  <defs>
    <style>
      .cls-1 {
        fill: #fff;
        fill-rule: evenodd;
      }
    </style>
  </defs>
  <g id="_Слой_1-2" data-name="Слой 1">
    <path class="cls-1" d="m10.36,13.02h-.12L5.02,0H0v.87h.86c.33,0,1.34.94,1.34,1.31v13.02c0,.35-1,1.31-1.34,1.31h-.86v.86h5.4v-.86h-.86c-.33,0-1.33-.96-1.33-1.31V2.3l6.3,15.37L15.82,2.55v12.65c0,.35-1,1.31-1.34,1.31h-.86v.86h6.72v-.86h-.84c-.34,0-1.33-.96-1.33-1.31V2.18c0-.37.99-1.31,1.33-1.31h.85v-.87h-4.52l-5.48,13.02Zm16.23,2.58c-2.57,0-4.14-1.98-4.14-4.48,0-2.65,1.07-4.39,3.3-4.39,1.94,0,2.22,1.54,1.91,3.29l.69-.04,1.64-2.56c-1.02-1.03-2.21-1.55-3.97-1.55-2.95,0-5.36,2.34-5.36,5.96,0,3.2,2.03,5.82,5.14,5.82,2.81,0,4.31-1.54,5.04-4h-.69c-.79,1.31-1.61,1.95-3.57,1.95Zm49.34-1.36c0-1.81-1.39-2.78-2.59-3.27-.94-.35-1.58-.64-2.43-.99-1.17-.5-1.83-.85-1.83-1.81,0-.89.61-1.44,1.92-1.44,2.1,0,3.41,1.98,3.41,2.91h.69v-3.48h-.62c-.1.23-.29.31-.62.31-.86,0-1.55-.58-2.79-.58-2.07,0-3.38,1.07-3.38,3.1,0,1.56,1.02,2.44,2.38,3.06.9.4,1.55.67,2.33,1,1,.42,2.13.86,2.13,2.12,0,1.05-.79,1.53-2.2,1.53-2.43,0-3.95-2.24-3.95-3.29h-.69v3.96h.55c.29-.26.4-.38.86-.38.97,0,1.81.64,3.23.64,2.13,0,3.6-1.24,3.6-3.39Zm-38.19,2.27h-.86c-.33,0-1.34-.96-1.34-1.31v-4.61l1.77-1.9,6,8.68h16.1v-.86h-.65c-.33,0-1.24-.81-1.24-1.19v-5.66c0-.76,2.08-2.33,3.67-2.33,1.22,0,1.79.84,1.79,1.93v6.06c0,.38-.91,1.19-1.24,1.19h-.65v.86h5.89v-.86h-.7c-.32,0-1.24-.81-1.24-1.19v-6.18c0-1.93-1.37-3.22-3.11-3.22-2.02,0-3.07,1.17-4.43,2.55l-.42-2.31h-3.56v.85h.7c.33,0,1.24.85,1.24,1.2v7.11c0,.37-.9,1.19-1.24,1.19h-1.39c-.3,0-1.24-.82-1.24-1.19V6.16h-4.02v.85h.69c.33,0,1.24.85,1.24,1.2v7.11c0,.38-.9,1.19-1.24,1.19h-1.26c-.35,0-1.76-1.07-2.05-1.46l-6.07-8.09,4.21-4.53c.24-.25,1.88-1.56,2.21-1.56h.85v-.87h-6.29v.87h.84c.33,0,1.31,1.19,1.05,1.49l-6.2,6.92V2.18c0-.37,1-1.31,1.34-1.31h.86v-.87h-6.77v.87h.86c.33,0,1.33.94,1.33,1.31v13.02c0,.35-.99,1.31-1.33,1.31h-.86v.86h6.76v-.86Zm12.6-13.07c.77.04,1.42-.55,1.46-1.32v-.14c0-.88-.62-1.43-1.46-1.43s-1.48.55-1.48,1.43c-.02.78.58,1.43,1.36,1.46h.12Zm37.67,4.86l3.95,7.81-3.38,6.14.98.5,3.34-6.31,3.77-8.18c.25-.38,1.05-1.24,1.32-1.24h.52v-.85h-4.54v.85h.69c.3,0,1,.79.97,1.24l-2.48,5.51-2.71-5.54c0-.41.67-1.21.97-1.21h.7v-.85h-6.05v.85h.5c.29,0,1.26.93,1.45,1.28Zm-6.06-1.54c2.19,0,2.43,1.61,2.24,3.22l-5.59.47c.07-1.76,1.02-3.69,3.35-3.69Zm.05,10.87c2.76,0,4.22-1.5,4.96-3.96h-.7c-.71,1.29-1.62,1.93-3.52,1.93-2.55,0-4.03-2.31-4.07-4.36l7.48-.6-.05-.82c-.13-2.2-1.55-3.91-4.1-3.93-2.9-.03-5.16,2.55-5.16,5.89s2.18,5.85,5.16,5.85Zm38.49,19.67c-.48.85-1.67,1.98-2.76,1.98-.96.05-1.77-.69-1.81-1.65v-.13c0-1.12.47-1.86,1.89-2.22l2.69-.7v2.72Zm15.5,1.27v-6.18c0-1.93-1.39-3.22-3.12-3.22-2.02,0-3.08,1.17-4.43,2.56l-.42-2.32h-3.56v.86h.69c.34,0,1.24.84,1.24,1.19v7.1c0,.39-.9,1.2-1.24,1.2h-1.35c-.31,0-1.24-.81-1.24-1.2v-6.03c0-2.22-1.9-3.41-4.33-3.41-2.29,0-3.75.83-4.67,1.79l1.5,2.26h.81c-.84-1.93-.07-3.22,1.86-3.22s2.78.96,2.76,2.56l-.03,1.33-2.9.6c-1.59.34-3.68,1.1-3.68,3.35,0,1.84,1.34,3.05,2.88,3.05,1.68,0,2.87-1.36,3.77-2.52l.29,2.31h9.52v-.85h-.64c-.34,0-1.24-.82-1.24-1.2v-5.66c0-.77,2.07-2.34,3.67-2.34,1.21,0,1.79.84,1.79,1.94v6.05c0,.38-.91,1.2-1.24,1.2h-.65v.85h5.89v-.85h-.69c-.34,0-1.24-.82-1.24-1.2Zm-57.67-1.72c-.22,1.76-1.19,2.98-3.31,2.98s-3.05-1.26-3.31-3c-.16-1.24-.16-2.5,0-3.74.26-1.8,1.29-2.99,3.31-2.99s3.09,1.19,3.31,3.01c.14,1.24.14,2.5,0,3.74Zm-3.33-7.72c-2.98,0-5.63,2.23-5.63,5.89s2.65,5.92,5.63,5.92,5.59-2.27,5.59-5.92-2.62-5.89-5.59-5.89Zm20.54,10.64h-.64v.85h5.75v-.85h-.65c-.34,0-1.19-.82-1.19-1.2v-6.18c0-2.05-1.38-3.19-3.07-3.19-1.91,0-2.79,1-4.17,2.36-.21-1.58-1.48-2.39-2.98-2.39-1.98,0-2.8,1.05-4.09,2.41l-.45-2.17h-3.46v.86h.64c.34,0,1.19.84,1.19,1.19v7.11c0,.38-.85,1.2-1.19,1.2h-.64v.85h5.74v-.85h-.64c-.34,0-1.19-.82-1.19-1.2v-5.77c0-.77,1.83-2.27,3.3-2.27,1.22,0,1.79.76,1.79,1.86v6.18c0,.38-.85,1.2-1.19,1.2h-.64v.85h5.74v-.85h-.64c-.34,0-1.19-.82-1.19-1.2v-5.84c0-.76,1.83-2.18,3.3-2.18,1.22,0,1.76.75,1.76,1.85v6.18c0,.37-.85,1.19-1.19,1.19Zm48.99-10.36v.86h.68c.31,0,1,.79.98,1.24l-2.48,5.51-2.7-5.54c0-.41.66-1.21.97-1.21h.7v-.86h-6.06v.86h.5c.29,0,1.26.93,1.45,1.29l3.95,7.79-3.38,6.16.98.5,3.33-6.31,3.78-8.19c.25-.37,1.05-1.24,1.32-1.24h.52v-.86h-4.54Zm-33.9,7.25c-.24,1.79-1.14,3.01-3.07,3.01-1.78.02-3.25-1.41-3.27-3.19v-2.94c.55-1.77,1.63-3.08,3.53-3.08,1.62,0,2.59,1.14,2.84,2.93.12,1.09.11,2.19-.03,3.27Zm-2.24-7.53c-1.85,0-3.09.79-4.07,2.6l-.38-2.32h-3.65v.86h.74c.33,0,1.19.84,1.19,1.19v12.57c0,.38-.86,1.19-1.19,1.19h-.74v.86h5.96v-.86h-.74c-.31,0-1.19-.81-1.19-1.19v-5.4c.81,1.46,1.85,2.22,3.83,2.22,2.73,0,4.64-2.55,4.64-6.01s-1.66-5.71-4.4-5.71Zm-46.61,10.34c-3.53,0-5.62-2.45-5.91-5.49-.14-1.46-.15-2.94-.05-4.41.31-3.91,2.1-5.58,5.1-5.58,3.26,0,5.26,3.62,5.26,5.41h.73v-6.13h-.64c-.26.3-.52.45-1.07.45-1.35,0-2.53-.77-4.38-.77-4.86,0-7.76,3.96-7.76,8.93s3.22,9.06,8.19,9.06c3.46,0,5.89-1.86,7-4.97h-.9c-1.12,2.29-2.58,3.5-5.57,3.5Zm-23.88.08c-2.48,0-5.12-2.39-5.12-4.87,0-1.79.47-2.74,1.38-3.67,2.33,2.62,4.84,5.08,7.5,7.37-.97.74-2.21,1.17-3.76,1.17Zm5.9-2.6c.96-1.42,1.5-3.08,1.55-4.8.02-.52,1.21-1.89,1.54-1.89h.67v-.85h-6.15v.86c1.68.05,2.73,1,2.73,2.6,0,1.43-.24,2.5-.9,3.6-2.36-2.1-5.04-4.65-7.29-7.06-1.5-.57-2.46-1.69-2.46-3.08,0-1.57,1.12-2.47,2.98-2.47,2.31,0,4.02,2.33,4.02,3.49h.74v-4.08h-.74c-.19.28-.41.3-.81.3-.74,0-1.57-.52-3.17-.52-2.55,0-4.17,1.38-4.17,3.86,0,1.53.57,2.55,1.41,3.63-1.75,1.17-2.8,3.15-2.78,5.26,0,3.05,2.68,5.13,5.5,5.13,2.55,0,4.31-.74,5.69-2.08,1.43,1.32,2.62,1.77,4.31,1.77h1.86v-.86h-1.02c-1.22-.88-2.4-1.82-3.52-2.81Z"/>
  </g>
</svg>