<?xml version="1.0" encoding="UTF-8"?>
<svg id="_Слой_2" data-name="Слой 2" xmlns="http://www.w3.org/2000/svg" viewBox="0 0 7.6 4.01">
  <defs>
    <style>
      .cls-1 {
        fill: #051c2c;
      }

      .cls-2 {
        fill: none;
        stroke: #fff;
        stroke-miterlimit: 10;
        stroke-width: .16px;
      }
    </style>
  </defs>
  <g id="_Слой_1-2" data-name="Слой 1">
    <rect class="cls-2" x=".08" y=".08" width="7.44" height="3.85"/>
    <path class="cls-2" d="m6.57.08c0,.54.43.95.95.95"/>
    <path class="cls-2" d="m7.52,2.97c-.54,0-.95.43-.95.95"/>
    <path class="cls-2" d="m1.03,3.92c0-.54-.43-.95-.95-.95"/>
    <path class="cls-2" d="m.08,1.03c.54,0,.95-.43.95-.95"/>
    <path class="cls-1" d="m3.87,2.05v.54c.19-.01.31-.12.31-.28,0-.14-.1-.2-.29-.25h-.02Zm-.12-.14h0v-.48c-.16.01-.28.11-.28.24,0,.14.1.19.28.24Zm.41-.29c-.07-.1-.17-.17-.29-.19v.5h.06c.24.06.38.16.38.37s-.17.37-.44.4v.2h-.12v-.2c-.25-.02-.41-.17-.47-.31l.11-.07c.05.13.17.25.36.28v-.55h-.04c-.2-.06-.37-.12-.37-.36,0-.19.16-.35.41-.36v-.22h.12v.22c.19.02.31.12.38.23l-.1.07Z"/>
    <path class="cls-2" d="m3.87,2.05v.54c.19-.01.31-.12.31-.28,0-.14-.1-.2-.29-.25h-.02Zm-.12-.14h0v-.48c-.16.01-.28.11-.28.24,0,.14.1.19.28.24Zm.41-.29c-.07-.1-.17-.17-.29-.19v.5h.06c.24.06.38.16.38.37s-.17.37-.44.4v.2h-.12v-.2c-.25-.02-.41-.17-.47-.31l.11-.07c.05.13.17.25.36.28v-.55h-.04c-.2-.06-.37-.12-.37-.36,0-.19.16-.35.41-.36v-.22h.12v.22c.19.02.31.12.38.23l-.1.07Z"/>
  </g>
</svg>