<?xml version="1.0" encoding="UTF-8"?>
<svg id="_Слой_2" data-name="Слой 2" xmlns="http://www.w3.org/2000/svg" viewBox="0 0 7.61 7.52">
  <defs>
    <style>
      .cls-1 {
        fill: none;
        stroke: #fff;
        stroke-miterlimit: 10;
        stroke-width: .16px;
      }
    </style>
  </defs>
  <g id="_Слой_1-2" data-name="Слой 1">
    <line class="cls-1" x1="1.25" y1="1.06" x2=".43" y2="1.24"/>
    <line class="cls-1" x1="1.63" y1="1.53" x2=".97" y2="1.84"/>
    <line class="cls-1" x1="2.34" y1="1.99" x2="1.72" y2="2.32"/>
    <line class="cls-1" x1="3.24" y1="2.26" x2="2.72" y2="2.68"/>
    <line class="cls-1" x1="7.18" y1="1.24" x2="6.36" y2="1.06"/>
    <line class="cls-1" x1="6.64" y1="1.84" x2="5.96" y2="1.53"/>
    <line class="cls-1" x1="5.9" y1="2.32" x2="5.28" y2="1.99"/>
    <line class="cls-1" x1="4.9" y1="2.68" x2="4.38" y2="2.26"/>
    <circle class="cls-1" cx="3.8" cy=".57" r=".49"/>
    <line class="cls-1" x1="3.8" y1="1.08" x2="3.8" y2="7.52"/>
    <path class="cls-1" d="m3.41,7.15c.1.12.25.22.4.25"/>
    <path class="cls-1" d="m2.92,4.8c-.23.34.14.79.88.86"/>
    <path class="cls-1" d="m2.93,3.06c-.49.25-.56,1.24.86,1.37.22.01.42.06.62.16.1.05.18.12.25.22.23.34-.13.79-.86.86-1.06.11-.8,1,0,1,.74,0,.49.62,0,.74"/>
    <path class="cls-1" d="m4.66,3.06c.49.25.58,1.24-.85,1.37"/>
    <path class="cls-1" d="m4.46,6.03c.1.29-.17.62-.67.62"/>
    <path class="cls-1" d="m4.91.57c0,.61-.49,1.1-1.1,1.1s-1.1-.49-1.1-1.1H.11c.4,1.28,1.9,2.23,3.7,2.23s3.3-.95,3.7-2.23h-2.59Z"/>
  </g>
</svg>