<?xml version="1.0" encoding="UTF-8"?>
<svg id="_Слой_2" data-name="Слой 2" xmlns="http://www.w3.org/2000/svg" xmlns:xlink="http://www.w3.org/1999/xlink" viewBox="0 0 345.82 329.96">
  <defs>
    <style>
      .cls-1 {
        letter-spacing: 0em;
      }

      .cls-2 {
        letter-spacing: 0em;
      }

      .cls-3 {
        letter-spacing: 0em;
      }

      .cls-4 {
        letter-spacing: .01em;
      }

      .cls-5 {
        stroke: #000;
      }

      .cls-5, .cls-6 {
        stroke-linejoin: round;
        stroke-width: .75px;
      }

      .cls-5, .cls-6, .cls-7 {
        fill: none;
      }

      .cls-8 {
        letter-spacing: 0em;
      }

      .cls-9 {
        letter-spacing: 0em;
      }

      .cls-10 {
        letter-spacing: 0em;
      }

      .cls-11 {
        letter-spacing: 0em;
      }

      .cls-12 {
        letter-spacing: .05em;
      }

      .cls-13 {
        letter-spacing: -.02em;
      }

      .cls-14 {
        letter-spacing: .03em;
      }

      .cls-15 {
        letter-spacing: 0em;
      }

      .cls-16 {
        letter-spacing: 0em;
      }

      .cls-17, .cls-18 {
        fill: #fff;
      }

      .cls-19 {
        font-size: 6.98px;
      }

      .cls-19, .cls-20, .cls-21, .cls-22, .cls-23, .cls-18 {
        font-family: ArialMT, Arial;
      }

      .cls-24 {
        letter-spacing: -.02em;
      }

      .cls-25 {
        fill: #168cda;
      }

      .cls-26 {
        letter-spacing: -.02em;
      }

      .cls-27 {
        letter-spacing: .03em;
      }

      .cls-28 {
        letter-spacing: 0em;
      }

      .cls-29 {
        letter-spacing: 0em;
      }

      .cls-30 {
        fill: #1b6fc1;
      }

      .cls-31 {
        fill: #00a9f4;
      }

      .cls-32 {
        letter-spacing: 0em;
      }

      .cls-33 {
        letter-spacing: 0em;
      }

      .cls-34 {
        letter-spacing: -.02em;
      }

      .cls-20, .cls-35 {
        font-size: 10.56px;
      }

      .cls-21 {
        font-size: 9.98px;
      }

      .cls-36 {
        letter-spacing: 0em;
      }

      .cls-37 {
        clip-path: url(#clippath-2);
      }

      .cls-38, .cls-23, .cls-18 {
        font-size: 6.96px;
      }

      .cls-38, .cls-35 {
        font-family: Arial-BoldMT, Arial;
        font-weight: 700;
      }

      .cls-39 {
        letter-spacing: 0em;
      }

      .cls-40 {
        letter-spacing: 0em;
      }

      .cls-41 {
        letter-spacing: 0em;
      }

      .cls-42 {
        letter-spacing: 0em;
      }

      .cls-43 {
        letter-spacing: 0em;
      }

      .cls-44 {
        fill: #1954a9;
      }

      .cls-45 {
        letter-spacing: 0em;
      }

      .cls-22 {
        font-size: 9.96px;
      }

      .cls-46 {
        letter-spacing: .01em;
      }

      .cls-47 {
        letter-spacing: 0em;
      }

      .cls-48 {
        letter-spacing: 0em;
      }

      .cls-49 {
        clip-path: url(#clippath-1);
      }

      .cls-50 {
        letter-spacing: 0em;
      }

      .cls-51 {
        letter-spacing: .08em;
      }

      .cls-52 {
        letter-spacing: 0em;
      }

      .cls-53 {
        letter-spacing: 0em;
      }

      .cls-54 {
        letter-spacing: 0em;
      }

      .cls-55 {
        letter-spacing: -.02em;
      }

      .cls-56 {
        letter-spacing: .06em;
      }

      .cls-57 {
        letter-spacing: 0em;
      }

      .cls-58 {
        letter-spacing: 0em;
      }

      .cls-59 {
        letter-spacing: 0em;
      }

      .cls-60 {
        letter-spacing: 0em;
      }

      .cls-6 {
        stroke: #b3b3b3;
      }

      .cls-61 {
        letter-spacing: 0em;
      }

      .cls-62 {
        clip-path: url(#clippath);
      }

      .cls-63 {
        letter-spacing: 0em;
      }

      .cls-64 {
        letter-spacing: 0em;
      }

      .cls-65 {
        letter-spacing: 0em;
      }

      .cls-66 {
        fill: #133991;
      }

      .cls-67 {
        letter-spacing: 0em;
      }

      .cls-68 {
        letter-spacing: 0em;
      }

      .cls-69 {
        letter-spacing: 0em;
      }

      .cls-70 {
        clip-path: url(#clippath-3);
      }

      .cls-71 {
        letter-spacing: -.02em;
      }

      .cls-72 {
        letter-spacing: 0em;
      }

      .cls-73 {
        letter-spacing: 0em;
      }

      .cls-74 {
        letter-spacing: 0em;
      }

      .cls-75 {
        letter-spacing: 0em;
      }

      .cls-76 {
        letter-spacing: .01em;
      }

      .cls-77 {
        letter-spacing: .08em;
      }

      .cls-78 {
        letter-spacing: 0em;
      }

      .cls-79 {
        letter-spacing: -.02em;
      }

      .cls-80 {
        letter-spacing: 0em;
      }

      .cls-81 {
        letter-spacing: 0em;
      }

      .cls-82 {
        letter-spacing: 0em;
      }

      .cls-83 {
        letter-spacing: 0em;
      }

      .cls-84 {
        letter-spacing: 0em;
      }

      .cls-85 {
        letter-spacing: 0em;
      }
    </style>
    <clipPath id="clippath">
      <rect class="cls-7" x="22.42" y="18.81" width="323.4" height="277.08"/>
    </clipPath>
    <clipPath id="clippath-1">
      <rect class="cls-7" x="22.42" y="18.81" width="323.4" height="277.08"/>
    </clipPath>
    <clipPath id="clippath-2">
      <rect class="cls-7" x="22.42" y="18.81" width="323.4" height="277.08"/>
    </clipPath>
    <clipPath id="clippath-3">
      <rect class="cls-7" x="22.42" y="18.81" width="323.4" height="277.08"/>
    </clipPath>
  </defs>
  <g id="_Слой_1-2" data-name="Слой 1">
    <line class="cls-5" x1="22.42" y1="295.17" x2="22.42" y2="18.93"/>
    <circle class="cls-66" cx="143.2" cy="56.91" r="27.66" transform="translate(69.22 192.08) rotate(-82.98)"/>
    <path class="cls-17" d="m115.71,58.32l.1,1.4.17,1.38.25,1.36.3,1.33.37,1.3.44,1.28.49,1.25.55,1.22.61,1.19.66,1.15.72,1.12.77,1.08.81,1.04.87,1,.91.95.96.92.99.86,1.04.82,1.08.76,1.12.72,1.16.67,1.18.6,1.22.55,1.25.5,1.28.43,1.31.37,1.33.31,1.35.24,1.38.18,1.39.1,1.42.04,1.42-.04,1.4-.1,1.38-.18,1.36-.24,1.33-.31,1.31-.37,1.27-.43,1.25-.49,1.22-.55,1.19-.61,1.15-.66,1.12-.72,1.08-.77,1.04-.81,1-.87.95-.91.92-.95.86-1,.82-1.04.76-1.08.72-1.12.66-1.15.61-1.19.55-1.22.5-1.25.43-1.27.37-1.31.31-1.33.24-1.36.18-1.38.1-1.39.04-1.42-.04-1.42-.1-1.4-.18-1.38-.24-1.36-.31-1.33-.37-1.3-.43-1.28-.49-1.25-.55-1.22-.61-1.18-.66-1.15-.72-1.13-.77-1.08-.81-1.04-.87-.99-.91-.96-.95-.92-1-.86-1.04-.82-1.08-.76-1.12-.72-1.15-.67-1.19-.6-1.22-.55-1.24-.5-1.28-.43-1.31-.37-1.33-.31-1.36-.24-1.38-.18-1.39-.1-1.42-.04-1.42.04-1.4.1-1.38.17-1.36.25-1.33.3-1.3.37-1.28.44-1.25.49-1.22.55-1.18.61-1.15.66-1.13.72-1.08.77-1.04.81-.99.87-.96.91-.92.96-.86.99-.82,1.04-.76,1.08-.72,1.12-.67,1.16-.6,1.18-.55,1.22-.5,1.25-.43,1.28-.37,1.31-.31,1.33-.24,1.35-.18,1.38-.1,1.39-.04,1.42.04,1.42Zm-.29-1.41l.04-1.43.1-1.41.18-1.39.24-1.37.32-1.34.37-1.32.44-1.29.49-1.26.56-1.24.61-1.19.67-1.16.73-1.13.77-1.09.82-1.05.87-1.01.93-.96.96-.93,1.01-.86,1.05-.83,1.09-.77,1.13-.73,1.16-.67,1.19-.61,1.23-.56,1.27-.49,1.29-.45,1.31-.37,1.35-.31,1.37-.25,1.39-.17,1.41-.1,1.43-.04,1.43.04,1.41.1,1.39.18,1.37.24,1.34.32,1.32.37,1.29.44,1.26.49,1.23.56,1.2.61,1.17.67,1.12.73,1.09.77,1.05.83,1.01.86.96.93.92.96.87,1.01.83,1.05.77,1.09.73,1.13.67,1.16.61,1.19.56,1.23.49,1.27.44,1.29.37,1.31.32,1.35.24,1.37.18,1.39.1,1.41.04,1.43-.04,1.43-.1,1.41-.18,1.39-.24,1.37-.32,1.34-.37,1.32-.44,1.29-.49,1.26-.56,1.23-.61,1.2-.67,1.17-.73,1.12-.77,1.09-.83,1.05-.87,1.01-.92.96-.96.92-1.01.87-1.05.83-1.09.77-1.12.73-1.17.67-1.2.61-1.23.56-1.26.49-1.29.44-1.32.37-1.34.32-1.37.24-1.39.18-1.41.1-1.43.04-1.43-.04-1.41-.1-1.39-.18-1.37-.24-1.34-.32-1.32-.36-1.29-.45-1.26-.49-1.24-.56-1.19-.61-1.16-.67-1.13-.73-1.09-.77-1.05-.83-1.01-.87-.96-.92-.93-.96-.87-1.01-.82-1.05-.77-1.09-.73-1.12-.67-1.17-.61-1.2-.56-1.23-.49-1.26-.45-1.29-.37-1.32-.31-1.34-.25-1.37-.17-1.39-.1-1.41-.04-1.43Z"/>
    <ellipse class="cls-66" cx="111.52" cy="128.73" rx="27.78" ry="27.72"/>
    <path class="cls-17" d="m83.91,130.14l.1,1.4.18,1.38.24,1.36.31,1.34.37,1.31.44,1.29.49,1.24.55,1.23.61,1.19.67,1.15.72,1.12.77,1.08.82,1.05.87,1,.92.96.96.91,1,.87,1.04.82,1.09.76,1.12.73,1.16.66,1.18.61,1.23.55,1.26.5,1.28.43,1.31.37,1.34.31,1.37.24,1.38.18,1.4.1,1.42.04,1.42-.04,1.41-.1,1.38-.18,1.37-.24,1.34-.31,1.31-.37,1.28-.43,1.26-.5,1.22-.55,1.19-.61,1.16-.66,1.13-.72,1.08-.76,1.04-.82,1.01-.87.96-.92.92-.95.87-1,.81-1.05.78-1.08.72-1.12.66-1.15.61-1.19.56-1.22.49-1.25.44-1.29.37-1.31.3-1.33.25-1.36.18-1.38.1-1.4.04-1.42-.04-1.42-.1-1.41-.18-1.37-.24-1.36-.31-1.34-.37-1.31-.44-1.28-.49-1.25-.56-1.22-.6-1.19-.67-1.16-.72-1.12-.77-1.08-.82-1.04-.87-1.01-.91-.96-.97-.91-1-.86-1.04-.83-1.09-.76-1.12-.73-1.16-.66-1.18-.61-1.23-.55-1.26-.5-1.28-.43-1.31-.37-1.34-.31-1.36-.24-1.39-.18-1.4-.1-1.42-.04-1.42.04-1.41.1-1.38.18-1.37.24-1.34.31-1.31.37-1.28.43-1.26.5-1.22.55-1.19.61-1.16.66-1.13.72-1.08.76-1.04.83-1.01.86-.95.91-.92.96-.87,1.01-.82,1.04-.78,1.08-.71,1.12-.67,1.16-.61,1.19-.56,1.21-.49,1.26-.44,1.28-.37,1.31-.3,1.33-.25,1.36-.18,1.38-.1,1.4-.04,1.42.04,1.42Zm-.29-1.41l.04-1.43.1-1.42.18-1.39.25-1.37.31-1.35.37-1.32.44-1.29.5-1.27.56-1.23.62-1.2.67-1.17.72-1.12.78-1.1.83-1.05.88-1.01.92-.97.97-.92,1.01-.87,1.05-.83,1.1-.78,1.13-.72,1.17-.67,1.2-.62,1.24-.55,1.27-.5,1.29-.44,1.32-.37,1.35-.32,1.38-.24,1.4-.18,1.42-.1,1.43-.04,1.43.04,1.42.1,1.4.18,1.37.24,1.35.32,1.32.37,1.3.44,1.27.5,1.24.55,1.2.62,1.17.67,1.13.72,1.09.78,1.05.83,1.02.87.97.92.92.97.88,1.01.83,1.05.78,1.1.72,1.12.67,1.17.62,1.2.56,1.23.49,1.27.45,1.29.37,1.32.31,1.35.25,1.37.18,1.39.1,1.42.04,1.43-.04,1.43-.1,1.42-.18,1.39-.25,1.37-.31,1.35-.37,1.32-.45,1.3-.49,1.26-.56,1.23-.62,1.2-.67,1.17-.72,1.13-.78,1.09-.83,1.05-.88,1.01-.92.97-.97.92-1.02.88-1.05.82-1.09.77-1.13.73-1.17.67-1.2.61-1.24.56-1.27.5-1.3.44-1.32.37-1.35.31-1.38.25-1.39.18-1.42.1-1.43.04-1.43-.04-1.42-.1-1.4-.18-1.38-.24-1.35-.32-1.32-.37-1.29-.44-1.27-.5-1.24-.56-1.2-.61-1.17-.67-1.13-.73-1.1-.77-1.05-.82-1.01-.88-.97-.92-.92-.97-.88-1.01-.83-1.05-.78-1.09-.72-1.13-.67-1.17-.62-1.2-.56-1.23-.5-1.26-.44-1.3-.37-1.32-.31-1.35-.25-1.37-.18-1.4-.1-1.41-.04-1.43Z"/>
    <g class="cls-62">
      <circle class="cls-66" cx="42.58" cy="245.49" r="25.08"/>
    </g>
    <g class="cls-49">
      <path class="cls-17" d="m17.66,246.77l.1,1.27.15,1.25.22,1.22.29,1.21.33,1.18.39,1.16.45,1.14.49,1.1.56,1.08.6,1.04.65,1.02.7.97.73.94,1.61,1.77,1.78,1.62.94.74.98.7,1.01.65,1.05.6,1.07.55,1.1.5,1.14.44,1.16.4,1.18.33,1.21.28,1.22.22,1.26.16,1.26.1,1.28.03,1.29-.03,1.27-.1,1.25-.16,1.22-.21,1.21-.29,1.18-.33,1.16-.39,1.14-.45,1.1-.5,1.08-.54,1.04-.61,1.02-.65.97-.69.94-.74,1.77-1.61,1.62-1.78.74-.94.69-.97.66-1.02.6-1.04.55-1.08.5-1.1.44-1.14.4-1.16.33-1.18.28-1.21.22-1.22.16-1.25.1-1.27.03-1.28-.03-1.29-.1-1.27-.16-1.25-.21-1.22-.29-1.21-.33-1.18-.39-1.16-.45-1.14-.49-1.1-.55-1.07-.6-1.05-.66-1.01-.69-.98-.74-.94-1.61-1.77-1.78-1.62-.94-.74-.97-.69-1.02-.65-1.04-.6-1.08-.56-1.1-.5-1.14-.44-1.16-.4-1.18-.33-1.21-.28-1.22-.22-1.25-.16-1.27-.1-1.28-.03-1.29.03-1.27.1-1.25.15-1.22.22-1.21.29-1.18.33-1.16.39-1.14.45-1.1.49-1.07.56-1.05.6-1.01.65-.98.7-.94.73-1.77,1.61-1.62,1.78-.74.94-.69.98-.65,1.01-.6,1.05-.56,1.07-.5,1.1-.44,1.14-.4,1.16-.33,1.18-.28,1.21-.22,1.22-.16,1.26-.1,1.26-.03,1.28.03,1.29Zm-.28-1.28l.03-1.3.1-1.27.16-1.27.22-1.24.28-1.21.34-1.2.4-1.17.45-1.15.5-1.11.56-1.09.61-1.06.65-1.02.71-.99.74-.95,1.63-1.79,1.79-1.63.95-.74.99-.71,1.02-.65,1.06-.61,1.08-.56,1.12-.5,1.15-.45,1.17-.4,1.19-.34,1.22-.28,1.24-.23,1.26-.15,1.28-.1,1.3-.03,1.3.03,1.28.1,1.26.16,1.24.22,1.22.28,1.19.34,1.17.4,1.15.45,1.12.5,1.08.56,1.05.61,1.03.65.98.71.96.74,1.79,1.63,1.63,1.79.75.95.69.99.66,1.02.61,1.06.56,1.08.5,1.12.45,1.15.4,1.17.33,1.19.29,1.22.22,1.24.16,1.26.1,1.28.03,1.3-.03,1.3-.1,1.28-.16,1.26-.22,1.24-.29,1.22-.33,1.19-.4,1.17-.45,1.15-.5,1.12-.56,1.08-.61,1.05-.66,1.03-.69.98-.75.96-1.63,1.79-1.79,1.63-.96.75-.98.69-1.03.66-1.05.61-1.08.56-1.12.5-1.15.45-1.17.4-1.19.33-1.22.29-1.24.22-1.26.16-1.28.1-1.3.03-1.3-.03-1.27-.1-1.27-.16-1.24-.22-1.21-.29-1.2-.33-1.17-.4-1.15-.45-1.11-.5-1.09-.56-1.06-.61-1.02-.66-.99-.69-.95-.75-1.79-1.63-1.63-1.79-.74-.96-.71-.98-.65-1.03-.61-1.05-.56-1.08-.5-1.12-.45-1.15-.4-1.17-.34-1.19-.28-1.22-.23-1.24-.15-1.26-.1-1.28-.03-1.3Z"/>
    </g>
    <circle class="cls-25" cx="32.02" cy="235.77" r="4.68"/>
    <path class="cls-17" d="m27.49,236.23l.07.44.11.45.16.43-.02-.03.45.82-.03-.04.59.71-.03-.03.7.58-.04-.03.82.45-.03-.02.42.15.43.12.45.07.47.02.47-.02.45-.07.44-.11.43-.16-.03.02.82-.45-.04.03.71-.59-.04.04.59-.71-.03.04.45-.82-.02.03.15-.41.12-.44.07-.45.02-.47-.02-.46-.07-.45-.11-.44-.16-.44.02.03-.45-.82.03.04-.58-.7.03.03-.71-.59.04.03-.82-.45.03.02-.41-.15-.44-.12-.45-.07-.47-.02-.46.02-.45.07-.44.11-.44.16.03-.02-.82.45.05-.03-.71.59.03-.03-.59.71.03-.05-.45.82.02-.03-.15.42-.12.43-.07.45-.02.47.02.47Zm-.27-.46l.02-.49.08-.48.12-.46.15-.44.45-.82.59-.7.7-.59.82-.45.44-.15.46-.12.48-.08.49-.02.49.02.48.08.46.12.44.15.81.45.72.59.58.7.44.82.16.44.12.46.08.48.02.49-.02.49-.08.48-.12.46-.16.44-.44.81-.58.72-.72.58-.81.44-.44.16-.46.12-.48.08-.49.02-.49-.02-.48-.08-.46-.12-.44-.16-.82-.44-.7-.58-.59-.72-.45-.81-.15-.44-.12-.46-.08-.48-.02-.49Z"/>
    <g class="cls-37">
      <circle class="cls-25" cx="188.56" cy="280.71" r="22.62"/>
    </g>
    <g class="cls-70">
      <path class="cls-17" d="m166.1,281.86l.09,1.14.14,1.13.2,1.11.24,1.09.31,1.07.35,1.05.4,1.02.45,1,.5.97.54.94.59.91,1.29,1.74,1.45,1.6,1.6,1.46,1.73,1.29.91.59.95.54.97.5.99.45,1.03.4,1.04.36,1.06.3,1.09.24,1.11.2,1.12.14,1.15.09,1.15.03,1.16-.03,1.14-.09,1.13-.14,1.11-.2,1.09-.25,1.06-.3,1.05-.36,1.02-.4,1-.45.96-.5.94-.54.91-.58,1.74-1.29,1.6-1.45,1.45-1.59,1.29-1.74.59-.91.54-.94.5-.96.45-1,.4-1.02.36-1.05.3-1.07.25-1.09.2-1.1.14-1.13.09-1.14.03-1.16-.03-1.16-.09-1.14-.14-1.13-.2-1.11-.25-1.09-.3-1.06-.35-1.04-.4-1.03-.46-.99-.49-.97-.54-.94-.59-.91-1.29-1.73-1.45-1.6-1.59-1.45-1.74-1.3-.91-.59-.95-.54-.96-.5-1-.45-1.02-.4-1.04-.36-1.07-.3-1.09-.25-1.11-.2-1.12-.14-1.15-.09-1.15-.03-1.16.03-1.14.09-1.13.14-1.11.2-1.09.24-1.06.31-1.04.35-1.03.4-.99.46-.97.49-.94.54-.91.58-1.73,1.3-1.6,1.45-1.45,1.6-1.3,1.73-.59.91-.54.95-.5.97-.45.99-.4,1.03-.36,1.04-.3,1.06-.25,1.09-.2,1.1-.14,1.13-.09,1.14-.03,1.16.03,1.16Zm-.28-1.15l.03-1.17.09-1.15.14-1.14.2-1.12.25-1.1.31-1.07.36-1.06.4-1.03.46-1.01.5-.98.55-.95.59-.92,1.32-1.75,1.46-1.62,1.62-1.46,1.75-1.32.92-.59.95-.55.98-.5,1.01-.46,1.03-.4,1.06-.36,1.07-.31,1.11-.25,1.11-.2,1.14-.14,1.16-.09,1.17-.03,1.17.03,1.15.09,1.14.14,1.12.2,1.1.25,1.08.31,1.06.36,1.03.4,1.01.46.98.5.95.55.92.59,1.76,1.32,1.61,1.46,1.47,1.62,1.3,1.75.6.92.54.95.51.98.45,1.01.41,1.03.36,1.06.3,1.07.25,1.1.21,1.12.14,1.14.09,1.15.03,1.17-.03,1.17-.09,1.15-.14,1.14-.21,1.12-.24,1.1-.31,1.08-.36,1.06-.41,1.03-.45,1.01-.51.97-.54.95-.6.92-1.3,1.75-1.47,1.61-1.61,1.47-1.76,1.31-.92.59-.95.55-.98.5-1.01.46-1.03.4-1.06.36-1.08.3-1.1.25-1.12.2-1.14.14-1.15.09-1.17.03-1.17-.03-1.16-.09-1.14-.14-1.11-.2-1.11-.25-1.07-.31-1.06-.36-1.03-.4-1.01-.46-.98-.5-.95-.55-.92-.59-1.75-1.31-1.62-1.47-1.46-1.61-1.32-1.75-.59-.92-.55-.95-.5-.97-.46-1.01-.4-1.03-.36-1.06-.31-1.08-.25-1.1-.2-1.12-.14-1.14-.09-1.15-.03-1.17Z"/>
    </g>
    <circle class="cls-25" cx="60.16" cy="242.19" r="11.82"/>
    <path class="cls-17" d="m48.53,243.37l.17,1.16.29,1.13.39,1.07.49,1.02.59.97.68.9.74.83.83.76.91.67.96.58,1.01.5,1.09.39,1.11.29,1.16.18,1.2.06,1.19-.06,1.16-.17,1.13-.3,1.07-.38,1.02-.49.97-.59.9-.67.83-.75.76-.83.67-.91.58-.96.5-1.02.39-1.07.29-1.12.18-1.16.06-1.2-.06-1.19-.17-1.16-.3-1.12-.38-1.08-.49-1.02-.59-.97-.67-.9-.75-.83-.83-.75-.91-.68-.96-.58-1.02-.5-1.07-.39-1.12-.29-1.16-.18-1.2-.06-1.19.06-1.16.17-1.12.3-1.08.38-1.02.49-.97.59-.9.68-.83.74-.75.83-.68.91-.58.96-.5,1.01-.39,1.09-.29,1.11-.18,1.16-.06,1.2.06,1.19Zm-.31-1.18l.06-1.22.18-1.19.3-1.14.4-1.1.5-1.04.6-.99.69-.92.76-.85.85-.76.92-.69.99-.6,1.04-.5,1.1-.4,1.14-.3,1.19-.18,1.22-.06,1.22.06,1.19.18,1.14.3,1.1.4,1.04.5.98.6.93.69.84.76.78.85.68.92.6.99.5,1.04.4,1.1.3,1.14.18,1.19.06,1.22-.06,1.22-.18,1.19-.3,1.14-.4,1.1-.5,1.04-.6.98-.68.93-.78.84-.84.78-.93.68-.98.6-1.04.5-1.1.4-1.14.3-1.19.18-1.22.06-1.22-.06-1.19-.18-1.14-.3-1.1-.4-1.04-.5-.99-.6-.92-.68-.85-.78-.76-.84-.69-.93-.6-.98-.5-1.04-.4-1.1-.3-1.14-.18-1.19-.06-1.22Z"/>
    <circle class="cls-44" cx="70.12" cy="164.91" r="18.3"/>
    <path class="cls-17" d="m51.97,165.83l.08.93.11.91.16.89.44,1.74.61,1.67.77,1.59.91,1.5,1.04,1.4,1.17,1.29,1.3,1.17,1.39,1.05,1.5.91,1.59.77,1.67.61,1.74.45.9.16.91.11.92.08.93.02.94-.02.92-.08.91-.11.89-.16,1.74-.45,1.67-.6,1.59-.76,1.5-.91,1.4-1.05,1.29-1.17,1.17-1.3,1.05-1.39.91-1.5.77-1.59.61-1.66.45-1.75.16-.9.11-.91.08-.92.02-.93-.02-.94-.08-.92-.11-.91-.16-.89-.45-1.74-.6-1.67-.76-1.59-.91-1.5-1.05-1.4-1.17-1.29-1.29-1.17-1.4-1.05-1.5-.91-1.59-.77-1.66-.61-1.75-.45-.9-.16-.91-.11-.92-.08-.93-.02-.94.02-.92.08-.91.11-.89.16-1.74.44-1.67.61-1.59.77-1.5.91-1.4,1.04-1.29,1.17-1.17,1.29-1.05,1.4-.91,1.5-.77,1.59-.61,1.67-.45,1.74-.16.9-.11.91-.08.92-.02.93.02.93Zm-.27-.92l.02-.95.08-.93.11-.93.16-.9.45-1.77.63-1.69.78-1.61.92-1.52,1.06-1.42,1.19-1.31,1.3-1.18,1.42-1.06,1.52-.92,1.61-.78,1.69-.63,1.77-.45.9-.16.93-.11.93-.08.95-.02.94.02.94.08.92.11.91.16,1.77.45,1.69.63,1.61.78,1.52.92,1.41,1.06,1.32,1.19,1.18,1.3,1.07,1.42.92,1.52.77,1.61.62,1.69.45,1.77.16.9.12.93.08.93.02.95-.02.94-.08.94-.11.92-.17.91-.45,1.77-.62,1.69-.77,1.61-.92,1.52-1.07,1.41-1.18,1.32-1.32,1.18-1.41,1.07-1.52.92-1.61.77-1.7.62-1.76.45-.91.16-.92.12-.94.08-.94.02-.95-.02-.93-.08-.93-.11-.9-.17-1.77-.45-1.69-.62-1.61-.77-1.52-.92-1.42-1.07-1.31-1.18-1.18-1.32-1.06-1.41-.92-1.52-.78-1.61-.63-1.7-.45-1.76-.16-.91-.11-.92-.08-.94-.02-.94Z"/>
    <circle class="cls-30" cx="116.26" cy="247.05" r="22.56"/>
    <path class="cls-17" d="m93.86,248.19l.09,1.15.14,1.12.19,1.1.25,1.09.31,1.06.34,1.05.41,1.02.45.99.49.97.55.94.57.9,1.3,1.73,1.44,1.6,1.59,1.44,1.73,1.3.91.58.95.54.96.5,1,.44,1.01.41,1.05.35,1.06.3,1.09.26,1.09.19,1.13.14,1.14.09,1.15.03,1.15-.03,1.15-.09,1.12-.14,1.1-.2,1.09-.24,1.06-.31,1.05-.35,1.02-.4.99-.45.97-.49.94-.55.9-.57,1.73-1.29,1.6-1.45,1.44-1.59,1.3-1.73.58-.92.54-.93.5-.97.44-1,.41-1.01.35-1.04.3-1.07.26-1.08.19-1.1.14-1.13.09-1.14.03-1.15-.03-1.16-.09-1.14-.14-1.12-.2-1.1-.24-1.09-.31-1.06-.35-1.05-.4-1.02-.45-.99-.49-.96-.55-.95-.57-.9-1.29-1.73-1.45-1.59-1.59-1.45-1.73-1.3-.92-.58-.93-.54-.97-.5-.99-.44-1.02-.4-1.04-.36-1.07-.3-1.08-.26-1.1-.19-1.13-.14-1.14-.09-1.15-.03-1.16.03-1.14.09-1.12.14-1.1.19-1.09.25-1.06.31-1.05.34-1.02.41-.99.45-.96.49-.95.55-.9.57-1.73,1.3-1.59,1.44-1.45,1.59-1.3,1.73-.58.91-.54.95-.5.96-.44.99-.4,1.02-.36,1.05-.3,1.06-.26,1.09-.19,1.09-.14,1.13-.09,1.14-.03,1.15.03,1.15Zm-.28-1.14l.03-1.17.09-1.15.14-1.14.2-1.11.25-1.1.31-1.07.36-1.06.4-1.03.45-1,.51-.98.54-.95.59-.92,1.31-1.75,1.46-1.61,1.61-1.46,1.75-1.31.92-.59.95-.54.98-.51,1-.45,1.03-.41,1.06-.35,1.07-.31,1.1-.25,1.11-.2,1.14-.14,1.15-.09,1.17-.03,1.17.03,1.15.09,1.14.14,1.11.2,1.1.25,1.08.31,1.05.36,1.03.4,1,.45.98.51.95.54.92.59,1.75,1.31,1.61,1.46,1.46,1.61,1.31,1.75.58.92.55.95.5.98.45,1,.41,1.03.36,1.06.31,1.07.24,1.1.21,1.11.14,1.14.09,1.15.03,1.17-.03,1.17-.09,1.15-.14,1.14-.2,1.11-.25,1.1-.31,1.08-.35,1.05-.42,1.03-.45,1-.5.98-.55.95-.58.92-1.31,1.75-1.46,1.61-1.61,1.46-1.75,1.31-.92.58-.95.55-.98.5-1,.45-1.03.41-1.06.36-1.07.31-1.1.24-1.12.21-1.13.14-1.16.09-1.16.03-1.17-.03-1.15-.09-1.14-.14-1.11-.2-1.1-.25-1.07-.31-1.06-.35-1.03-.42-1-.45-.98-.5-.95-.55-.92-.58-1.75-1.31-1.61-1.46-1.46-1.61-1.31-1.75-.59-.92-.54-.95-.51-.98-.45-1-.41-1.03-.35-1.06-.31-1.07-.25-1.1-.2-1.12-.14-1.13-.09-1.16-.03-1.16Z"/>
    <circle class="cls-30" cx="291.28" cy="197.31" r="34.5"/>
    <path class="cls-17" d="m256.95,199.08l.14,1.74.21,1.72.31,1.69.38,1.67.46,1.63.54,1.59.62,1.57.68,1.52.76,1.48.83,1.44.89,1.39.96,1.35,1.02,1.3,1.08,1.25,1.14,1.19,1.19,1.14,1.25,1.08,1.3,1.02,1.35.96,1.4.89,1.43.83,1.49.76,1.51.68,1.57.62,1.59.55,1.64.46,1.66.38,1.69.3,1.72.22,1.74.14,1.77.04,1.78-.04,1.74-.14,1.72-.21,1.69-.31,1.67-.38,1.63-.46,1.59-.54,1.57-.62,1.52-.69,1.48-.75,1.44-.83,1.39-.89,1.35-.96,1.3-1.02,1.25-1.08,1.19-1.14,1.14-1.19,1.08-1.25,1.02-1.3.96-1.35.89-1.39.83-1.44.76-1.48.68-1.52.62-1.57.55-1.59.46-1.63.38-1.67.3-1.69.22-1.72.14-1.74.04-1.77-.04-1.78-.14-1.74-.21-1.72-.31-1.69-.38-1.67-.46-1.63-.54-1.59-.62-1.56-.69-1.52-.75-1.49-.83-1.43-.89-1.4-.96-1.35-1.02-1.3-1.08-1.25-1.14-1.19-1.19-1.14-1.25-1.08-1.3-1.02-1.35-.96-1.39-.89-1.44-.83-1.48-.76-1.52-.69-1.57-.61-1.59-.54-1.63-.47-1.67-.38-1.69-.3-1.72-.22-1.74-.14-1.77-.04-1.78.04-1.74.14-1.72.21-1.69.31-1.67.38-1.63.46-1.59.54-1.56.62-1.52.68-1.49.76-1.43.83-1.4.89-1.35.96-1.3,1.02-1.25,1.08-1.19,1.14-1.14,1.19-1.08,1.25-1.02,1.3-.96,1.35-.89,1.4-.83,1.43-.76,1.49-.69,1.51-.61,1.57-.54,1.59-.47,1.64-.38,1.66-.3,1.69-.22,1.72-.14,1.74-.04,1.77.04,1.78Zm-.29-1.77l.04-1.79.14-1.75.22-1.73.3-1.71.39-1.67.47-1.65.54-1.6.62-1.58.69-1.53.77-1.49.83-1.45.9-1.41.97-1.36,1.02-1.3,1.09-1.26,1.15-1.2,1.2-1.15,1.26-1.09,1.3-1.02,1.36-.97,1.41-.9,1.45-.83,1.49-.77,1.53-.69,1.58-.62,1.6-.55,1.64-.46,1.68-.39,1.71-.3,1.73-.22,1.75-.14,1.79-.04,1.78.04,1.76.14,1.73.22,1.7.3,1.68.39,1.65.47,1.6.54,1.58.62,1.53.69,1.5.77,1.44.83,1.41.9,1.35.97,1.31,1.02,1.26,1.09,1.2,1.15,1.15,1.2,1.08,1.26,1.03,1.3.97,1.36.9,1.41.83,1.45.77,1.49.69,1.53.62,1.58.55,1.6.46,1.64.39,1.68.3,1.71.22,1.73.13,1.75.05,1.79-.05,1.78-.13,1.76-.22,1.73-.3,1.7-.39,1.68-.46,1.65-.55,1.6-.62,1.58-.69,1.53-.77,1.5-.83,1.44-.9,1.41-.97,1.35-1.03,1.31-1.08,1.26-1.15,1.2-1.2,1.15-1.26,1.08-1.31,1.03-1.35.97-1.41.9-1.44.83-1.5.77-1.53.69-1.58.62-1.6.55-1.65.46-1.68.38-1.7.31-1.73.22-1.76.13-1.78.05-1.79-.05-1.75-.13-1.73-.22-1.71-.31-1.67-.38-1.65-.46-1.6-.55-1.58-.62-1.53-.69-1.49-.77-1.45-.83-1.41-.9-1.36-.97-1.3-1.03-1.26-1.08-1.2-1.15-1.15-1.2-1.09-1.26-1.02-1.31-.97-1.35-.9-1.41-.83-1.44-.77-1.5-.69-1.53-.62-1.58-.55-1.6-.46-1.65-.39-1.68-.3-1.7-.22-1.73-.14-1.76-.04-1.78Z"/>
    <circle class="cls-30" cx="39.64" cy="273.15" r="12.54"/>
    <path class="cls-17" d="m27.29,274.41l.19,1.23.3,1.19.42,1.14.52,1.09.62,1.02.72.96.8.88.87.8.96.71,1.03.62,1.08.52,1.14.42,1.19.31,1.23.18,1.27.07,1.27-.07,1.23-.18,1.19-.31,1.14-.42,1.09-.52,1.02-.62.96-.71.88-.8.8-.88.72-.95.61-1.02.53-1.09.42-1.14.31-1.19.18-1.23.07-1.27-.06-1.27-.19-1.23-.3-1.19-.42-1.14-.52-1.08-.62-1.03-.71-.96-.8-.87-.89-.81-.95-.72-1.02-.61-1.09-.53-1.14-.42-1.19-.31-1.23-.18-1.27-.07-1.27.06-1.23.19-1.19.3-1.14.42-1.08.52-1.03.62-.96.72-.87.8-.81.88-.72.95-.61,1.03-.53,1.08-.42,1.14-.31,1.19-.18,1.23-.07,1.27.06,1.27Zm-.31-1.26l.07-1.3.18-1.25.32-1.22.43-1.16.53-1.1.63-1.05.73-.98.82-.89.89-.82.98-.73,1.05-.63,1.1-.53,1.16-.43,1.22-.32,1.25-.18,1.3-.07,1.3.07,1.25.18,1.21.32,1.17.43,1.11.53,1.04.63.97.73.9.82.82.89.73.98.63,1.05.53,1.1.43,1.16.31,1.22.19,1.25.07,1.3-.07,1.3-.19,1.25-.31,1.22-.43,1.16-.53,1.11-.63,1.04-.73.97-.82.9-.9.82-.97.73-1.04.63-1.11.53-1.17.43-1.21.32-1.25.19-1.3.07-1.3-.07-1.25-.19-1.22-.32-1.16-.43-1.1-.53-1.05-.63-.98-.73-.89-.82-.82-.9-.73-.97-.63-1.04-.53-1.11-.43-1.16-.32-1.22-.18-1.25-.07-1.3Z"/>
    <ellipse class="cls-30" cx="184.24" cy="221.61" rx="33.06" ry="33.12"/>
    <path class="cls-17" d="m151.35,223.3l.13,1.68.21,1.65.29,1.62.36,1.6.45,1.57.51,1.53.6,1.5.65,1.46.73,1.42.79,1.38.86,1.34.92,1.3.97,1.24,1.04,1.2,1.09,1.14,1.14,1.1,1.2,1.03,1.24.99,1.3.91,1.33.86,1.38.8,1.42.72,1.46.67,1.49.59,1.54.52,1.55.44,1.59.37,1.63.29,1.65.21,1.67.12,1.69.05,1.7-.04,1.67-.13,1.65-.21,1.62-.29,1.6-.37,1.56-.44,1.53-.52,1.49-.59,1.46-.66,1.42-.73,1.38-.8,1.34-.85,1.29-.92,1.24-.98,1.2-1.03,1.14-1.1,1.09-1.14,1.04-1.2.97-1.25.93-1.29.85-1.34.79-1.38.73-1.42.66-1.47.59-1.49.52-1.53.44-1.57.37-1.6.29-1.62.21-1.65.12-1.68.05-1.69-.04-1.7-.13-1.68-.21-1.65-.29-1.62-.36-1.6-.45-1.57-.51-1.53-.6-1.5-.65-1.45-.73-1.43-.79-1.38-.86-1.34-.92-1.3-.97-1.24-1.04-1.2-1.08-1.14-1.15-1.09-1.2-1.04-1.24-.98-1.29-.92-1.34-.86-1.38-.8-1.42-.72-1.46-.67-1.49-.59-1.53-.52-1.56-.44-1.59-.37-1.63-.29-1.65-.21-1.67-.13-1.69-.04-1.7.04-1.68.13-1.64.21-1.62.29-1.6.36-1.56.45-1.53.52-1.49.59-1.46.66-1.42.73-1.38.8-1.33.85-1.3.92-1.24.98-1.2,1.04-1.14,1.09-1.09,1.14-1.04,1.2-.97,1.25-.92,1.29-.86,1.34-.79,1.38-.73,1.42-.66,1.46-.59,1.5-.52,1.53-.44,1.57-.37,1.6-.29,1.62-.21,1.65-.13,1.68-.04,1.69.04,1.7Zm-.29-1.69l.04-1.71.13-1.69.21-1.66.29-1.64.37-1.6.45-1.59.52-1.54.6-1.51.66-1.47.73-1.43.81-1.4.86-1.35.92-1.29.98-1.26,1.05-1.21,1.1-1.16,1.15-1.09,1.2-1.05,1.26-.98,1.3-.93,1.34-.87,1.39-.8,1.43-.73,1.47-.67,1.51-.59,1.54-.53,1.57-.45,1.61-.37,1.63-.29,1.66-.21,1.69-.13,1.71-.04,1.71.04,1.68.13,1.66.21,1.64.29,1.6.38,1.58.44,1.54.53,1.5.59,1.47.67,1.44.73,1.38.8,1.35.87,1.3.93,1.25.98,1.21,1.05,1.16,1.09,1.09,1.16,1.04,1.21.99,1.25.93,1.3.86,1.35.79,1.4.74,1.43.66,1.47.6,1.51.52,1.54.45,1.58.36,1.61.3,1.64.21,1.66.12,1.69.05,1.71-.05,1.71-.12,1.69-.21,1.66-.3,1.64-.36,1.61-.45,1.57-.52,1.55-.6,1.51-.66,1.47-.74,1.44-.79,1.38-.86,1.35-.93,1.31-.99,1.25-1.04,1.21-1.1,1.15-1.15,1.11-1.21,1.04-1.25.99-1.3.92-1.35.86-1.38.81-1.44.73-1.47.67-1.5.59-1.54.53-1.58.44-1.6.37-1.64.3-1.66.21-1.68.12-1.71.05-1.71-.05-1.68-.12-1.67-.21-1.63-.3-1.61-.37-1.56-.44-1.55-.53-1.51-.59-1.47-.67-1.43-.73-1.39-.81-1.34-.86-1.3-.92-1.26-.99-1.2-1.04-1.15-1.11-1.1-1.15-1.05-1.21-.98-1.25-.92-1.31-.87-1.35-.8-1.38-.73-1.44-.66-1.47-.6-1.51-.52-1.55-.45-1.57-.37-1.61-.29-1.64-.21-1.66-.13-1.69-.04-1.71Z"/>
    <ellipse class="cls-30" cx="35.14" cy="279.99" rx="7.44" ry="7.5"/>
    <path class="cls-17" d="m27.86,280.73l.12.74.17.7.25.68.31.65.36.6.42.57.48.52.51.47.57.43.6.37.64.31.67.25.7.18.72.12.75.04.74-.03.73-.12.7-.18.67-.25.65-.3.6-.37.56-.43.52-.47.47-.52.43-.57.36-.6.31-.64.25-.68.18-.7.11-.73.04-.76-.03-.75-.11-.73-.18-.7-.25-.68-.31-.65-.36-.61-.42-.57-.47-.52-.52-.48-.56-.42-.6-.37-.65-.32-.66-.24-.71-.19-.72-.11-.75-.04-.74.03-.73.12-.7.18-.67.24-.64.32-.6.37-.57.42-.52.48-.47.52-.43.56-.36.61-.31.64-.25.67-.18.71-.11.73-.04.76.03.75Zm-.28-.74l.04-.78.12-.76.18-.73.25-.7.32-.67.38-.63.43-.58.5-.54.53-.5.59-.43.62-.39.66-.32.7-.26.72-.18.75-.12.77-.04.77.04.75.12.73.18.69.26.67.32.62.39.58.43.54.5.48.54.44.58.37.63.33.67.25.7.19.73.11.76.04.78-.04.78-.11.76-.19.73-.25.7-.33.67-.37.62-.44.59-.48.54-.54.49-.58.44-.62.38-.67.32-.69.25-.73.19-.75.12-.77.04-.77-.04-.75-.12-.72-.19-.7-.25-.66-.32-.62-.38-.59-.44-.53-.49-.5-.54-.43-.59-.38-.62-.32-.67-.25-.7-.18-.73-.12-.76-.04-.78Z"/>
    <circle class="cls-31" cx="27.88" cy="286.71" r="3.78"/>
    <path class="cls-17" d="m24.31,287.47v-.05s.22.74.22.74l-.02-.05.36.66-.03-.04.47.58-.03-.04.58.47-.04-.03.66.36-.04-.02.73.22h-.05s.79.07.79.07h-.06l.79-.08h-.05s.74-.22.74-.22l-.05.02.66-.36-.04.03.58-.47-.03.04.47-.58-.03.04.36-.66-.02.05.23-.74v.05s.07-.79.07-.79v.05l-.08-.79v.05s-.22-.73-.22-.73l.02.04-.36-.67.03.04-.47-.58.03.04-.58-.47.04.03-.66-.36.05.02-.74-.22h.05s-.79-.07-.79-.07h.06l-.79.08h.05s-.73.21-.73.21l.04-.02-.66.36.04-.03-.58.47.03-.04-.47.58.03-.04-.36.67.02-.04-.23.73v-.05s-.07.79-.07.79v-.05l.08.79Zm-.33-.76l.08-.79.23-.73.36-.67.47-.58.58-.47.66-.36.73-.22.79-.08.79.08.73.22.66.36.58.47.47.58.36.67.23.73.08.79-.08.79-.23.74-.36.66-.47.58-.58.47-.66.36-.73.22-.79.08-.79-.08-.73-.22-.66-.36-.58-.47-.47-.58-.36-.66-.23-.74-.08-.79Z"/>
    <ellipse class="cls-25" cx="33.88" cy="290.37" rx="3.3" ry="3.24"/>
    <path class="cls-17" d="m30.78,291.02v-.05s.19.64.19.64l-.02-.05.31.57-.02-.04.42.5-.04-.03.51.41-.05-.03.59.31-.04-.02.63.19h-.05s.69.06.69.06h-.04l.69-.07h-.05s.64-.19.64-.19l-.04.02.58-.31-.04.03.51-.41-.04.03.41-.5-.02.04.31-.57-.02.05.2-.64v.05s.06-.67.06-.67v.05l-.07-.67v.05s-.19-.63-.19-.63l.02.04-.31-.57.02.04-.41-.5.04.04-.51-.4.03.02-.57-.32.04.02-.64-.19h.05s-.69-.06-.69-.06h.04l-.69.07h.05s-.63.19-.63.19l.04-.02-.58.32.03-.03-.5.4.04-.03-.42.5.02-.04-.31.57.02-.04-.2.63v-.05s-.06.67-.06.67v-.05l.07.67Zm-.32-.65l.07-.67.2-.63.32-.57.41-.5.51-.4.58-.32.64-.19.69-.07.69.07.64.19.58.32.51.4.41.5.32.57.2.63.07.67-.07.68-.2.64-.32.57-.41.5-.51.41-.58.31-.64.2-.69.07-.69-.07-.64-.2-.58-.31-.51-.41-.41-.5-.32-.57-.2-.64-.07-.68Z"/>
    <text class="cls-22" transform="translate(177 308.37)"><tspan class="cls-82" x="0" y="0">0.</tspan><tspan class="cls-50" x="8.29" y="0">6</tspan></text>
    <text class="cls-22" transform="translate(2 167.47)"><tspan class="cls-82" x="0" y="0">0.</tspan><tspan x="8.29" y="0">5</tspan></text>
    <text class="cls-22" transform="translate(19.76 308.37)"><tspan x="0" y="0">0</tspan></text>
    <text class="cls-22" transform="translate(42.51 308.37)"><tspan class="cls-82" x="0" y="0">0.</tspan><tspan x="8.29" y="0">1</tspan></text>
    <text class="cls-22" transform="translate(69.39 308.37)"><tspan class="cls-82" x="0" y="0">0.</tspan><tspan x="8.29" y="0">2</tspan></text>
    <text class="cls-22" transform="translate(96.24 308.37)"><tspan class="cls-82" x="0" y="0">0.</tspan><tspan class="cls-50" x="8.29" y="0">3</tspan></text>
    <text class="cls-21" transform="translate(2 141.07)"><tspan class="cls-15" x="0" y="0">0</tspan><tspan x="5.52" y="0">.6</tspan></text>
    <text class="cls-22" transform="translate(2 88.43)"><tspan class="cls-82" x="0" y="0">0.</tspan><tspan x="8.29" y="0">8</tspan></text>
    <text class="cls-22" transform="translate(284.52 308.37)"><tspan class="cls-82" x="0" y="0">1.</tspan><tspan class="cls-50" x="8.29" y="0">0</tspan></text>
    <text class="cls-22" transform="translate(203.88 308.37)"><tspan class="cls-82" x="0" y="0">0.</tspan><tspan class="cls-50" x="8.29" y="0">7</tspan></text>
    <text class="cls-22" transform="translate(2 246.35)"><tspan class="cls-82" x="0" y="0">0.</tspan><tspan x="8.29" y="0">2</tspan></text>
    <text class="cls-22" transform="translate(123.12 308.37)"><tspan class="cls-82" x="0" y="0">0.</tspan><tspan class="cls-50" x="8.29" y="0">4</tspan></text>
    <text class="cls-22" transform="translate(2 62.18)"><tspan class="cls-82" x="0" y="0">0.</tspan><tspan x="8.29" y="0">9</tspan></text>
    <text class="cls-22" transform="translate(150 308.37)"><tspan class="cls-82" x="0" y="0">0.</tspan><tspan class="cls-50" x="8.29" y="0">5</tspan></text>
    <text class="cls-22" transform="translate(230.76 308.37)"><tspan class="cls-82" x="0" y="0">0.</tspan><tspan class="cls-50" x="8.29" y="0">8</tspan></text>
    <text class="cls-22" transform="translate(257.64 308.37)"><tspan class="cls-82" x="0" y="0">0.</tspan><tspan class="cls-50" x="8.29" y="0">9</tspan></text>
    <text class="cls-22" transform="translate(10.25 298.99)"><tspan x="0" y="0">0</tspan></text>
    <text class="cls-22" transform="translate(2 272.73)"><tspan class="cls-82" x="0" y="0">0.</tspan><tspan x="8.29" y="0">1</tspan></text>
    <text class="cls-22" transform="translate(2 220.1)"><tspan class="cls-82" x="0" y="0">0.</tspan><tspan x="8.29" y="0">3</tspan></text>
    <text class="cls-22" transform="translate(2 35.8)"><tspan class="cls-82" x="0" y="0">1.</tspan><tspan x="8.29" y="0">0</tspan></text>
    <text class="cls-21" transform="translate(2 114.81)"><tspan class="cls-15" x="0" y="0">0</tspan><tspan x="5.52" y="0">.7</tspan></text>
    <text class="cls-22" transform="translate(2 193.72)"><tspan class="cls-82" x="0" y="0">0.</tspan><tspan x="8.29" y="0">4</tspan></text>
    <line class="cls-6" x1="247.65" y1="128.49" x2="49.9" y2="265.99"/>
    <line class="cls-6" x1="166.71" y1="157.41" x2="69.46" y2="234.91"/>
    <line class="cls-6" x1="52.12" y1="89.01" x2="32.62" y2="231.14"/>
    <line class="cls-6" x1="57.22" y1="133.41" x2="63.1" y2="147.91"/>
    <line class="cls-6" x1="244.08" y1="263.43" x2="138.58" y2="249.93"/>
    <line class="cls-6" x1="56.08" y1="278.73" x2="42.7" y2="279.48"/>
    <line class="cls-6" x1="160.41" y1="106.65" x2="136.78" y2="117.27"/>
    <line class="cls-6" x1="58.77" y1="201.21" x2="29.02" y2="283.21"/>
    <line class="cls-6" x1="105.99" y1="178.29" x2="59.86" y2="227.17"/>
    <line class="cls-6" x1="49.44" y1="289.77" x2="37.06" y2="290.27"/>
    <text class="cls-23" transform="translate(57.12 278.73)"><tspan class="cls-48" x="0" y="0">F</tspan><tspan class="cls-60" x="4.2" y="0">u</tspan><tspan x="8.05" y="0">t</tspan><tspan class="cls-57" x="9.98" y="0">u</tspan><tspan class="cls-32" x="13.81" y="0">r</tspan><tspan class="cls-60" x="16.09" y="0">e</tspan><tspan class="cls-12" x="19.93" y="0"> </tspan><tspan class="cls-60" x="22.21" y="0">o</tspan><tspan x="26.05" y="0">f</tspan><tspan class="cls-14" x="27.99" y="0"> </tspan><tspan x="30.12" y="0">s</tspan><tspan class="cls-16" x="33.6" y="0">pa</tspan><tspan x="41.29" y="0">c</tspan><tspan class="cls-16" x="44.77" y="0">e</tspan><tspan class="cls-27" x="48.61" y="0"> </tspan><tspan x="50.76" y="0">t</tspan><tspan class="cls-28" x="52.69" y="0">e</tspan><tspan x="56.52" y="0">c</tspan><tspan class="cls-63" x="60" y="0">hno</tspan><tspan class="cls-29" x="71.53" y="0">lo</tspan><tspan class="cls-28" x="76.95" y="0">g</tspan><tspan class="cls-29" x="80.78" y="0">ies</tspan></text>
    <text class="cls-23" transform="translate(89 168.45)"><tspan x="0" y="0">C</tspan><tspan class="cls-45" x="5.03" y="0">l</tspan><tspan class="cls-60" x="6.59" y="0">oud</tspan><tspan class="cls-76" x="18.12" y="0"> </tspan><tspan class="cls-63" x="20.15" y="0">and</tspan><tspan x="31.68" y="0"> </tspan></text>
    <rect class="cls-17" x="49.42" y="283.29" width="122.28" height="8.4"/>
    <text class="cls-23" transform="translate(89 176.85)"><tspan class="cls-16" x="0" y="0">edge</tspan><tspan class="cls-27" x="15.37" y="0"> </tspan><tspan class="cls-54" x="17.52" y="0">c</tspan><tspan class="cls-60" x="21" y="0">o</tspan><tspan class="cls-58" x="24.84" y="0">m</tspan><tspan class="cls-63" x="30.71" y="0">pu</tspan><tspan x="38.4" y="0">ti</tspan><tspan class="cls-63" x="41.88" y="0">n</tspan><tspan x="45.72" y="0">g</tspan></text>
    <text class="cls-23" transform="translate(50.5 290.23)"><tspan x="0" y="0">Ne</tspan><tspan class="cls-55" x="8.9" y="0">x</tspan><tspan class="cls-64" x="12.25" y="0">t</tspan><tspan class="cls-41" x="14.17" y="0">-</tspan><tspan class="cls-16" x="16.45" y="0">gene</tspan><tspan class="cls-32" x="31.83" y="0">r</tspan><tspan class="cls-16" x="34.11" y="0">a</tspan><tspan class="cls-73" x="37.95" y="0">ti</tspan><tspan class="cls-46" x="41.43" y="0">o</tspan><tspan class="cls-16" x="45.38" y="0">n</tspan><tspan class="cls-77" x="49.22" y="0"> </tspan><tspan class="cls-2" x="51.73" y="0">s</tspan><tspan class="cls-63" x="55.21" y="0">o</tspan><tspan class="cls-29" x="59.06" y="0">f</tspan><tspan class="cls-52" x="60.99" y="0">t</tspan><tspan class="cls-13" x="62.9" y="0">w</tspan><tspan class="cls-60" x="67.83" y="0">a</tspan><tspan class="cls-32" x="71.67" y="0">r</tspan><tspan class="cls-63" x="73.95" y="0">e</tspan><tspan class="cls-51" x="77.79" y="0"> </tspan><tspan class="cls-63" x="80.31" y="0">de</tspan><tspan class="cls-54" x="87.99" y="0">v</tspan><tspan class="cls-63" x="91.47" y="0">e</tspan><tspan class="cls-29" x="95.31" y="0">lo</tspan><tspan class="cls-28" x="100.73" y="0">p</tspan><tspan class="cls-58" x="104.56" y="0">m</tspan><tspan class="cls-60" x="110.43" y="0">en</tspan><tspan x="118.11" y="0">t</tspan></text>
    <text class="cls-18" transform="translate(157.52 224.47)"><tspan class="cls-36" x="0" y="0">F</tspan><tspan class="cls-63" x="4.2" y="0">u</tspan><tspan x="8.05" y="0">t</tspan><tspan class="cls-28" x="9.98" y="0">u</tspan><tspan class="cls-75" x="13.81" y="0">r</tspan><tspan class="cls-63" x="16.09" y="0">e</tspan><tspan class="cls-12" x="19.93" y="0"> </tspan><tspan class="cls-63" x="22.21" y="0">o</tspan><tspan x="26.05" y="0">f</tspan><tspan class="cls-14" x="27.99" y="0"> </tspan><tspan class="cls-58" x="30.12" y="0">m</tspan><tspan class="cls-60" x="35.99" y="0">ob</tspan><tspan x="43.67" y="0">i</tspan><tspan class="cls-53" x="45.22" y="0">l</tspan><tspan x="46.78" y="0">ity</tspan></text>
    <text class="cls-18" transform="translate(127.52 59.66)"><tspan class="cls-9" x="0" y="0">A</tspan><tspan class="cls-63" x="4.67" y="0">pp</tspan><tspan x="12.36" y="0">l</tspan><tspan class="cls-53" x="13.9" y="0">i</tspan><tspan class="cls-63" x="15.46" y="0">ed</tspan><tspan x="23.15" y="0"> </tspan><tspan class="cls-45" x="25.08" y="0">A</tspan><tspan x="29.74" y="0">I</tspan></text>
    <text class="cls-19" transform="translate(26.74 79.17)"><tspan class="cls-34" x="0" y="0">I</tspan><tspan class="cls-68" x="1.81" y="0">ndu</tspan><tspan class="cls-59" x="13.33" y="0">s</tspan><tspan class="cls-83" x="16.83" y="0">t</tspan><tspan class="cls-78" x="18.74" y="0">r</tspan><tspan x="21.02" y="0">i</tspan><tspan class="cls-1" x="22.57" y="0">a</tspan><tspan x="26.42" y="0">li</tspan><tspan class="cls-71" x="29.52" y="0">z</tspan><tspan x="32.9" y="0">i</tspan><tspan class="cls-1" x="34.45" y="0">n</tspan><tspan class="cls-68" x="38.3" y="0">g</tspan><tspan x="42.14" y="0"> </tspan></text>
    <rect class="cls-17" x="30.1" y="116.61" width="47.64" height="16.8"/>
    <text class="cls-23" transform="translate(26.74 87.59)"><tspan class="cls-58" x="0" y="0">m</tspan><tspan class="cls-60" x="5.87" y="0">a</tspan><tspan x="9.71" y="0">c</tspan><tspan class="cls-16" x="13.19" y="0">h</tspan><tspan x="17.03" y="0">in</tspan><tspan class="cls-57" x="22.45" y="0">e</tspan><tspan class="cls-76" x="26.28" y="0"> </tspan><tspan x="28.31" y="0">le</tspan><tspan class="cls-57" x="33.73" y="0">a</tspan><tspan class="cls-41" x="37.56" y="0">r</tspan><tspan class="cls-16" x="39.84" y="0">n</tspan><tspan x="43.68" y="0">ing</tspan></text>
    <text class="cls-23" transform="translate(31.13 123.57)"><tspan class="cls-48" x="0" y="0">F</tspan><tspan class="cls-60" x="4.2" y="0">u</tspan><tspan x="8.05" y="0">t</tspan><tspan class="cls-57" x="9.98" y="0">u</tspan><tspan class="cls-32" x="13.81" y="0">r</tspan><tspan class="cls-60" x="16.09" y="0">e</tspan><tspan class="cls-12" x="19.93" y="0"> </tspan><tspan class="cls-60" x="22.21" y="0">o</tspan><tspan x="26.05" y="0">f </tspan></text>
    <text class="cls-23" transform="translate(31.13 131.97)"><tspan class="cls-16" x="0" y="0">b</tspan><tspan x="3.84" y="0">io</tspan><tspan class="cls-57" x="9.26" y="0">e</tspan><tspan class="cls-16" x="13.09" y="0">ng</tspan><tspan x="20.77" y="0">in</tspan><tspan class="cls-57" x="26.19" y="0">e</tspan><tspan class="cls-16" x="30.02" y="0">e</tspan><tspan class="cls-32" x="33.86" y="0">r</tspan><tspan x="36.15" y="0">ing</tspan></text>
    <text class="cls-23" transform="translate(222.89 270.35)"><tspan class="cls-36" x="0" y="0">F</tspan><tspan class="cls-63" x="4.2" y="0">u</tspan><tspan x="8.05" y="0">t</tspan><tspan class="cls-28" x="9.98" y="0">u</tspan><tspan class="cls-75" x="13.81" y="0">r</tspan><tspan class="cls-63" x="16.09" y="0">e</tspan><tspan class="cls-12" x="19.93" y="0"> </tspan><tspan class="cls-63" x="22.21" y="0">o</tspan><tspan x="26.05" y="0">f</tspan><tspan class="cls-14" x="27.99" y="0"> </tspan><tspan x="30.12" y="0">s</tspan><tspan class="cls-63" x="33.6" y="0">u</tspan><tspan class="cls-54" x="37.44" y="0">st</tspan><tspan class="cls-28" x="42.86" y="0">a</tspan><tspan x="46.69" y="0">in</tspan><tspan class="cls-28" x="52.1" y="0">a</tspan><tspan class="cls-63" x="55.93" y="0">b</tspan><tspan x="59.78" y="0">le</tspan><tspan class="cls-14" x="65.19" y="0"> </tspan><tspan class="cls-54" x="67.33" y="0">c</tspan><tspan class="cls-63" x="70.81" y="0">on</tspan><tspan class="cls-54" x="78.5" y="0">s</tspan><tspan class="cls-63" x="81.97" y="0">u</tspan><tspan class="cls-4" x="85.82" y="0">m</tspan><tspan class="cls-63" x="91.69" y="0">p</tspan><tspan x="95.53" y="0">ti</tspan><tspan class="cls-63" x="99.01" y="0">o</tspan><tspan x="102.85" y="0">n</tspan></text>
    <text class="cls-23" transform="translate(256.4 239.97)"><tspan class="cls-36" x="0" y="0">F</tspan><tspan class="cls-63" x="4.2" y="0">u</tspan><tspan x="8.05" y="0">t</tspan><tspan class="cls-28" x="9.98" y="0">u</tspan><tspan class="cls-75" x="13.81" y="0">r</tspan><tspan class="cls-63" x="16.09" y="0">e</tspan><tspan class="cls-12" x="19.93" y="0"> </tspan><tspan class="cls-63" x="22.21" y="0">o</tspan><tspan x="26.05" y="0">f</tspan><tspan class="cls-14" x="27.99" y="0"> </tspan><tspan x="30.12" y="0">cle</tspan><tspan class="cls-28" x="39.02" y="0">a</tspan><tspan class="cls-63" x="42.85" y="0">n</tspan><tspan class="cls-76" x="46.69" y="0"> </tspan><tspan class="cls-63" x="48.72" y="0">ene</tspan><tspan class="cls-32" x="60.25" y="0">r</tspan><tspan class="cls-63" x="62.53" y="0">g</tspan><tspan x="66.38" y="0">y</tspan></text>
    <text class="cls-23" transform="translate(195.89 127.07)"><tspan class="cls-81" x="0" y="0">T</tspan><tspan class="cls-32" x="4.31" y="0">r</tspan><tspan class="cls-60" x="6.6" y="0">u</tspan><tspan class="cls-54" x="10.44" y="0">st</tspan><tspan class="cls-14" x="15.85" y="0"> </tspan><tspan class="cls-63" x="17.99" y="0">a</tspan><tspan class="cls-75" x="21.83" y="0">r</tspan><tspan class="cls-54" x="24.12" y="0">c</tspan><tspan class="cls-60" x="27.59" y="0">h</tspan><tspan x="31.44" y="0">it</tspan><tspan class="cls-63" x="34.92" y="0">e</tspan><tspan x="38.76" y="0">ct</tspan><tspan class="cls-28" x="44.17" y="0">u</tspan><tspan class="cls-75" x="48" y="0">r</tspan><tspan class="cls-63" x="50.29" y="0">e</tspan><tspan class="cls-54" x="54.13" y="0">s</tspan><tspan class="cls-51" x="57.61" y="0"> </tspan><tspan class="cls-63" x="60.12" y="0">and</tspan><tspan class="cls-27" x="71.65" y="0"> </tspan><tspan class="cls-63" x="73.8" y="0">d</tspan><tspan x="77.64" y="0">igit</tspan><tspan class="cls-47" x="86.54" y="0">a</tspan><tspan class="cls-29" x="90.37" y="0">l id</tspan><tspan class="cls-28" x="99.27" y="0">e</tspan><tspan class="cls-63" x="103.09" y="0">n</tspan><tspan x="106.94" y="0">tity</tspan></text>
    <text class="cls-23" transform="translate(135.12 105.19)"><tspan class="cls-9" x="0" y="0">A</tspan><tspan class="cls-63" x="4.67" y="0">d</tspan><tspan x="8.51" y="0">v</tspan><tspan class="cls-63" x="11.99" y="0">an</tspan><tspan x="19.68" y="0">c</tspan><tspan class="cls-63" x="23.16" y="0">ed</tspan><tspan class="cls-27" x="30.84" y="0"> </tspan><tspan x="32.99" y="0">c</tspan><tspan class="cls-63" x="36.47" y="0">onne</tspan><tspan class="cls-54" x="51.85" y="0">ctivity</tspan></text>
    <text class="cls-19" transform="translate(42.36 191.32)"><tspan class="cls-43" x="0" y="0">Q</tspan><tspan class="cls-68" x="5.4" y="0">uan</tspan><tspan class="cls-33" x="16.93" y="0">t</tspan><tspan class="cls-68" x="18.86" y="0">u</tspan><tspan class="cls-3" x="22.7" y="0">m</tspan><tspan x="28.57" y="0"> </tspan></text>
    <text class="cls-23" transform="translate(42.36 199.75)"><tspan x="0" y="0">t</tspan><tspan class="cls-57" x="1.93" y="0">e</tspan><tspan x="5.76" y="0">c</tspan><tspan class="cls-60" x="9.24" y="0">hno</tspan><tspan x="20.77" y="0">lo</tspan><tspan class="cls-57" x="26.19" y="0">g</tspan><tspan class="cls-2" x="30.02" y="0">ies</tspan></text>
    <text class="cls-18" transform="translate(179.4 280.46)"><tspan class="cls-56" x="0" y="0">W</tspan><tspan class="cls-63" x="6.95" y="0">e</tspan><tspan class="cls-52" x="10.79" y="0">b</tspan><tspan x="14.64" y="0">3</tspan></text>
    <text class="cls-23" transform="translate(149.64 155.97)"><tspan x="0" y="0">t</tspan><tspan class="cls-28" x="1.93" y="0">e</tspan><tspan x="5.76" y="0">c</tspan><tspan class="cls-63" x="9.24" y="0">hno</tspan><tspan class="cls-29" x="20.77" y="0">lo</tspan><tspan class="cls-28" x="26.19" y="0">g</tspan><tspan class="cls-29" x="30.02" y="0">ies</tspan></text>
    <text class="cls-23" transform="translate(149.64 147.57)"><tspan class="cls-55" x="0" y="0">I</tspan><tspan class="cls-58" x="1.81" y="0">mm</tspan><tspan class="cls-63" x="13.54" y="0">e</tspan><tspan class="cls-75" x="17.39" y="0">r</tspan><tspan x="19.67" y="0">siv</tspan><tspan class="cls-61" x="28.17" y="0">e</tspan><tspan class="cls-75" x="32.04" y="0">-r</tspan><tspan class="cls-63" x="36.61" y="0">ea</tspan><tspan x="44.29" y="0">l</tspan><tspan class="cls-53" x="45.84" y="0">i</tspan><tspan class="cls-76" x="47.4" y="0">t</tspan><tspan class="cls-79" x="49.43" y="0">y</tspan><tspan x="52.8" y="0"> </tspan></text>
    <text class="cls-35" transform="translate(0 9.09)"><tspan class="cls-40" x="0" y="0">I</tspan><tspan x="2.89" y="0">n</tspan><tspan class="cls-65" x="9.34" y="0">n</tspan><tspan class="cls-10" x="15.83" y="0">o</tspan><tspan class="cls-69" x="22.29" y="0">v</tspan><tspan x="28.07" y="0">at</tspan><tspan class="cls-80" x="37.46" y="0">i</tspan><tspan class="cls-10" x="40.32" y="0">o</tspan><tspan class="cls-72" x="46.77" y="0">n</tspan><tspan class="cls-10" x="53.27" y="0">,</tspan></text>
    <text class="cls-38" transform="translate(56.19 5.97)"><tspan x="0" y="0">1</tspan></text>
    <text class="cls-38" transform="translate(56.19 5.97)"><tspan x="0" y="0"> </tspan></text>
    <text class="cls-20" transform="translate(62.55 9.09)"><tspan x="0" y="0">score</tspan><tspan class="cls-24" x="25.82" y="0"> </tspan><tspan x="28.58" y="0">(</tspan></text>
    <text class="cls-20" transform="translate(94.59 9.09)"><tspan x="0" y="0">0</tspan></text>
    <text class="cls-20" transform="translate(103.35 9.09)"><tspan class="cls-8" x="0" y="0">=</tspan><tspan class="cls-42" x="6.13" y="0"> </tspan><tspan class="cls-11" x="9.03" y="0">l</tspan><tspan x="11.4" y="0">o</tspan><tspan class="cls-85" x="17.28" y="0">w</tspan><tspan x="24.85" y="0">er</tspan><tspan class="cls-39" x="34.24" y="0">;</tspan><tspan x="37.1" y="0"> </tspan></text>
    <text class="cls-20" transform="translate(143.43 9.09)"><tspan x="0" y="0">1</tspan></text>
    <text class="cls-20" transform="translate(152.19 9.09)"><tspan class="cls-8" x="0" y="0">=</tspan><tspan class="cls-42" x="6.13" y="0"> </tspan><tspan x="9.03" y="0">h</tspan><tspan class="cls-74" x="14.9" y="0">i</tspan><tspan x="17.29" y="0">gher)</tspan></text>
    <text class="cls-35" transform="translate(72.87 325.99)"><tspan class="cls-40" x="0" y="0">I</tspan><tspan x="2.89" y="0">nteres</tspan><tspan class="cls-42" x="34.59" y="0">t</tspan><tspan x="38.06" y="0">,</tspan></text>
    <text class="cls-38" transform="translate(113.79 322.87)"><tspan x="0" y="0">2</tspan></text>
    <text class="cls-38" transform="translate(113.79 322.87)"><tspan x="0" y="0"> </tspan></text>
    <text class="cls-20" transform="translate(120.51 325.99)"><tspan x="0" y="0">score</tspan><tspan class="cls-26" x="25.82" y="0"> </tspan><tspan class="cls-8" x="28.58" y="0">(</tspan><tspan x="32.06" y="0">0</tspan><tspan class="cls-67" x="37.93" y="0" xml:space="preserve"> =</tspan><tspan class="cls-42" x="46.97" y="0"> </tspan><tspan class="cls-11" x="49.86" y="0">l</tspan><tspan x="52.24" y="0">o</tspan><tspan class="cls-85" x="58.11" y="0">w</tspan><tspan x="65.69" y="0">er</tspan><tspan class="cls-39" x="75.08" y="0">;</tspan><tspan class="cls-84" x="77.94" y="0"> </tspan><tspan x="80.92" y="0">1</tspan><tspan class="cls-67" x="86.8" y="0" xml:space="preserve"> =</tspan><tspan class="cls-42" x="95.83" y="0"> </tspan><tspan x="98.73" y="0">h</tspan><tspan class="cls-74" x="104.6" y="0">i</tspan><tspan x="106.99" y="0">gher)</tspan></text>
  </g>
</svg>