<?xml version="1.0" encoding="UTF-8"?>
<svg id="_Слой_2" data-name="Слой 2" xmlns="http://www.w3.org/2000/svg" xmlns:xlink="http://www.w3.org/1999/xlink" viewBox="0 0 9.72 5.64">
  <defs>
    <style>
      .cls-1 {
        fill: #aeb2f4;
      }

      .cls-2 {
        fill: #d7daff;
      }

      .cls-3 {
        fill: #6159ff;
      }

      .cls-4 {
        fill: #f6d13a;
      }

      .cls-5 {
        fill: #5d7280;
      }

      .cls-6 {
        clip-path: url(#clippath-2);
      }

      .cls-7 {
        clip-path: url(#clippath-1);
      }

      .cls-8 {
        fill: #2c353b;
      }

      .cls-9 {
        clip-path: url(#clippath);
      }

      .cls-10 {
        clip-rule: evenodd;
      }

      .cls-10, .cls-11 {
        fill: none;
      }

      .cls-12 {
        fill: #3b4951;
      }

      .cls-13 {
        fill: #888abf;
      }
    </style>
    <clipPath id="clippath">
      <polyline class="cls-10" points="0 0 9.72 0 9.72 5.64 0 5.64"/>
    </clipPath>
    <clipPath id="clippath-1">
      <rect class="cls-11" width="9.72" height="5.64"/>
    </clipPath>
    <clipPath id="clippath-2">
      <rect class="cls-11" width="9.72" height="5.64"/>
    </clipPath>
  </defs>
  <g id="_Слой_1-2" data-name="Слой 1">
    <polygon class="cls-1" points="3.39 2.67 .06 .75 .06 .65 3.39 2.58 3.39 2.67"/>
    <polygon class="cls-13" points="4.52 2.01 3.39 2.67 3.39 2.58 4.52 1.92 4.52 2.01"/>
    <polygon class="cls-2" points="3.69 1.44 4.52 1.92 3.39 2.58 2.55 2.1 3.69 1.44"/>
    <path class="cls-3" d="m3.39,2.3l.11.07s.02.03,0,.05l-.07.04s-.07.02-.09,0l-.12-.07s-.02-.04,0-.05l.07-.04s.07-.02.09,0Z"/>
    <path class="cls-3" d="m3.15,2.16l.11.07s.02.03,0,.05l-.07.04s-.07.02-.09,0l-.12-.07s-.02-.04,0-.05l.07-.04s.07-.02.09,0Z"/>
    <path class="cls-3" d="m2.92,2.03l.11.07s.02.03,0,.05l-.07.04s-.07.02-.09,0l-.12-.07s-.02-.04,0-.05l.07-.04s.07-.02.09,0Z"/>
    <path class="cls-3" d="m3.59,2.18l.11.07s.02.03,0,.05l-.07.04s-.07.02-.09,0l-.11-.07s-.02-.04,0-.05l.07-.04s.07-.02.09,0Z"/>
    <path class="cls-3" d="m3.36,2.05l.11.07s.02.03,0,.05l-.07.04s-.07.02-.09,0l-.12-.07s-.02-.04,0-.05l.07-.04s.07-.02.09,0Z"/>
    <path class="cls-3" d="m3.13,1.91l.11.07s.02.03,0,.05l-.07.04s-.07.02-.09,0l-.12-.07s-.02-.04,0-.05l.07-.04s.07-.02.09,0Z"/>
    <path class="cls-3" d="m3.8,2.06l.11.07s.02.03,0,.05l-.07.04s-.07.02-.09,0l-.11-.07s-.02-.04,0-.05l.07-.04s.07-.02.09,0Z"/>
    <path class="cls-3" d="m3.56,1.93l.11.07s.02.03,0,.05l-.07.04s-.07.02-.09,0l-.12-.07s-.02-.04,0-.05l.07-.04s.07-.02.09,0Z"/>
    <path class="cls-3" d="m3.33,1.79l.11.07s.02.03,0,.05l-.07.04s-.07.02-.09,0l-.12-.07s-.02-.04,0-.05l.07-.04s.07-.02.09,0Z"/>
    <path class="cls-3" d="m4,1.94l.11.07s.02.03,0,.05l-.07.04s-.07.02-.09,0l-.11-.07s-.02-.04,0-.05l.07-.04s.06-.02.09,0Z"/>
    <path class="cls-3" d="m3.77,1.81l.11.07s.02.03,0,.05l-.07.04s-.07.02-.09,0l-.12-.07s-.02-.04,0-.05l.07-.04s.07-.02.09,0Z"/>
    <path class="cls-3" d="m3.54,1.68l.11.07s.02.03,0,.05l-.07.04s-.07.02-.09,0l-.12-.07s-.02-.04,0-.05l.07-.04s.07-.02.09,0Z"/>
    <path class="cls-3" d="m4.21,1.83l.11.07s.02.03,0,.05l-.07.04s-.07.02-.09,0l-.12-.07s-.02-.04,0-.05l.07-.04s.07-.02.09,0Z"/>
    <path class="cls-3" d="m3.97,1.69l.11.07s.02.03,0,.05l-.07.04s-.07.02-.09,0l-.12-.07s-.02-.04,0-.05l.07-.04s.06-.02.09,0Z"/>
    <path class="cls-3" d="m3.74,1.56l.11.07s.02.03,0,.05l-.07.04s-.07.02-.09,0l-.12-.07s-.02-.04,0-.05l.07-.04s.07-.02.09,0Z"/>
    <polygon class="cls-2" points="2.86 .96 3.69 1.44 2.55 2.1 1.72 1.62 2.86 .96"/>
    <path class="cls-3" d="m2.56,1.82l.11.07s.02.03,0,.05l-.07.04s-.07.02-.09,0l-.12-.07s-.02-.04,0-.05l.07-.04s.07-.02.09,0Z"/>
    <path class="cls-3" d="m2.32,1.68l.11.07s.02.03,0,.05l-.07.04s-.07.02-.09,0l-.12-.07s-.02-.04,0-.05l.07-.04s.07-.02.09,0Z"/>
    <path class="cls-3" d="m2.09,1.55l.11.07s.02.03,0,.05l-.07.04s-.07.02-.09,0l-.12-.07s-.02-.04,0-.05l.07-.04s.07-.02.09,0Z"/>
    <path class="cls-3" d="m2.76,1.7l.11.07s.02.03,0,.05l-.07.04s-.07.02-.09,0l-.12-.07s-.02-.04,0-.05l.07-.04s.07-.02.09,0Z"/>
    <path class="cls-3" d="m2.53,1.57l.11.07s.02.03,0,.05l-.07.04s-.07.02-.09,0l-.12-.07s-.02-.03,0-.05l.07-.04s.07-.02.09,0Z"/>
    <path class="cls-3" d="m2.3,1.43l.11.07s.02.03,0,.05l-.07.04s-.07.02-.09,0l-.11-.07s-.02-.04,0-.05l.07-.04s.07-.02.09,0Z"/>
    <path class="cls-3" d="m2.97,1.58l.11.07s.02.04,0,.05l-.07.04s-.07.02-.09,0l-.12-.07s-.02-.03,0-.05l.07-.04s.07-.02.09,0Z"/>
    <path class="cls-3" d="m2.73,1.45l.11.07s.02.03,0,.05l-.07.04s-.07.02-.09,0l-.12-.07s-.02-.04,0-.05l.07-.04s.07-.02.09,0Z"/>
    <path class="cls-3" d="m2.5,1.31l.11.07s.02.03,0,.05l-.07.04s-.07.02-.09,0l-.11-.07s-.02-.04,0-.05l.07-.04s.07-.02.09,0Z"/>
    <path class="cls-3" d="m3.17,1.46l.11.07s.02.03,0,.05l-.07.04s-.07.02-.09,0l-.12-.07s-.02-.03,0-.05l.07-.04s.07-.02.09,0Z"/>
    <path class="cls-3" d="m2.94,1.33l.11.07s.02.03,0,.05l-.07.04s-.07.02-.09,0l-.12-.07s-.02-.04,0-.05l.07-.04s.07-.02.09,0Z"/>
    <path class="cls-3" d="m2.7,1.2l.11.07s.02.03,0,.05l-.07.04s-.07.02-.09,0l-.12-.07s-.02-.04,0-.05l.07-.04s.07-.02.09,0Z"/>
    <path class="cls-3" d="m3.37,1.35l.11.07s.02.03,0,.05l-.07.04s-.07.02-.09,0l-.12-.07s-.02-.03,0-.05l.07-.04s.07-.02.09,0Z"/>
    <path class="cls-3" d="m3.14,1.21l.11.07s.02.03,0,.05l-.07.04s-.07.02-.09,0l-.12-.07s-.02-.04,0-.05l.07-.04s.07-.02.09,0Z"/>
    <path class="cls-3" d="m2.91,1.08l.11.07s.02.03,0,.05l-.07.04s-.07.02-.09,0l-.12-.07s-.02-.04,0-.05l.07-.04s.07-.02.09,0Z"/>
    <polygon class="cls-2" points="2.02 .48 2.86 .96 1.72 1.62 .89 1.14 2.02 .48"/>
    <path class="cls-3" d="m1.72,1.34l.11.07s.02.03,0,.05l-.07.04s-.07.02-.09,0l-.11-.07s-.02-.04,0-.05l.07-.04s.07-.02.09,0Z"/>
    <path class="cls-3" d="m1.49,1.2l.11.07s.02.04,0,.05l-.07.04s-.07.02-.09,0l-.12-.07s-.02-.03,0-.05l.07-.04s.07-.02.09,0Z"/>
    <path class="cls-3" d="m1.26,1.07l.11.07s.02.03,0,.05l-.07.04s-.07.02-.09,0l-.12-.07s-.02-.03,0-.05l.07-.04s.07-.02.09,0Z"/>
    <path class="cls-3" d="m1.93,1.22l.11.07s.02.03,0,.05l-.07.04s-.07.02-.09,0l-.11-.07s-.02-.04,0-.05l.07-.04s.07-.02.09,0Z"/>
    <path class="cls-3" d="m1.7,1.09l.11.07s.02.04,0,.05l-.07.04s-.07.02-.09,0l-.11-.07s-.02-.03,0-.05l.07-.04s.07-.02.09,0Z"/>
    <path class="cls-3" d="m1.46.95l.11.07s.02.03,0,.05l-.07.04s-.07.02-.09,0l-.12-.07s-.02-.03,0-.05l.07-.04s.07-.02.09,0Z"/>
    <path class="cls-3" d="m2.13,1.1l.11.07s.02.03,0,.05l-.07.04s-.07.02-.09,0l-.11-.07s-.02-.04,0-.05l.07-.04s.07-.02.09,0Z"/>
    <path class="cls-3" d="m1.9.97l.11.07s.02.03,0,.05l-.07.04s-.07.02-.09,0l-.11-.07s-.02-.03,0-.05l.07-.04s.07-.02.09,0Z"/>
    <path class="cls-3" d="m1.67.83l.11.07s.02.03,0,.05l-.07.04s-.07.02-.09,0l-.11-.07s-.02-.03,0-.05l.07-.04s.07-.02.09,0Z"/>
    <path class="cls-3" d="m2.34.98l.11.07s.02.04,0,.05l-.07.04s-.07.02-.09,0l-.12-.07s-.02-.03,0-.05l.07-.04s.07-.02.09,0Z"/>
    <path class="cls-3" d="m2.1.85l.11.07s.02.03,0,.05l-.07.04s-.07.02-.09,0l-.11-.07s-.02-.03,0-.05l.07-.04s.07-.02.09,0Z"/>
    <path class="cls-3" d="m1.87.71l.11.07s.02.03,0,.05l-.07.04s-.07.02-.09,0l-.11-.07s-.02-.03,0-.05l.07-.04s.07-.02.09,0Z"/>
    <path class="cls-3" d="m2.54.87l.11.07s.02.04,0,.05l-.07.04s-.07.02-.09,0l-.12-.07s-.02-.03,0-.05l.07-.04s.07-.02.09,0Z"/>
    <path class="cls-3" d="m2.31.73l.11.07s.02.03,0,.05l-.07.04s-.07.02-.09,0l-.11-.07s-.02-.03,0-.05l.07-.04s.07-.02.09,0Z"/>
    <path class="cls-3" d="m2.08.6l.11.07s.02.03,0,.05l-.07.04s-.07.02-.09,0l-.11-.07s-.02-.03,0-.05l.07-.04s.07-.02.09,0Z"/>
    <polygon class="cls-2" points="1.19 0 2.02 .48 .89 1.14 .06 .66 1.19 0"/>
    <path class="cls-3" d="m.89.86l.11.07s.02.03,0,.05l-.07.04s-.07.02-.09,0l-.11-.07s-.02-.04,0-.05l.07-.04s.06-.02.09,0Z"/>
    <path class="cls-3" d="m.66.72l.11.07s.02.03,0,.05l-.07.04s-.07.02-.09,0l-.11-.07s-.02-.04,0-.05l.07-.04s.06-.02.09,0Z"/>
    <path class="cls-3" d="m.43.59l.11.07s.02.03,0,.05l-.07.04s-.07.02-.09,0l-.11-.07s-.02-.03,0-.05l.07-.04s.06-.02.09,0Z"/>
    <path class="cls-3" d="m1.1.74l.11.07s.02.03,0,.05l-.07.04s-.07.02-.09,0l-.12-.07s-.02-.04,0-.05l.07-.04s.07-.02.09,0Z"/>
    <path class="cls-3" d="m.86.6l.11.07s.02.03,0,.05l-.07.04s-.07.02-.09,0l-.11-.07s-.02-.04,0-.05l.07-.04s.06-.02.09,0Z"/>
    <path class="cls-3" d="m.63.47l.11.07s.02.03,0,.05l-.07.04s-.07.02-.09,0l-.11-.07s-.02-.03,0-.05l.07-.04s.06-.02.09,0Z"/>
    <path class="cls-3" d="m1.3.62l.11.07s.02.03,0,.05l-.07.04s-.07.02-.09,0l-.12-.07s-.02-.04,0-.05l.07-.04s.07-.02.09,0Z"/>
    <path class="cls-3" d="m1.07.49l.11.07s.02.04,0,.05l-.07.04s-.07.02-.09,0l-.11-.07s-.02-.03,0-.05l.07-.04s.07-.02.09,0Z"/>
    <path class="cls-3" d="m.84.35l.11.07s.02.03,0,.05l-.07.04s-.07.02-.09,0l-.11-.07s-.02-.03,0-.05l.07-.04s.06-.02.09,0Z"/>
    <path class="cls-3" d="m1.51.5l.11.07s.02.03,0,.05l-.07.04s-.07.02-.09,0l-.11-.07s-.02-.04,0-.05l.07-.04s.07-.02.09,0Z"/>
    <path class="cls-3" d="m1.27.37l.11.07s.02.03,0,.05l-.07.04s-.07.02-.09,0l-.12-.07s-.02-.03,0-.05l.07-.04s.07-.02.09,0Z"/>
    <path class="cls-3" d="m1.04.23l.11.07s.02.04,0,.05l-.07.04s-.07.02-.09,0l-.11-.07s-.02-.03,0-.05l.07-.04s.07-.02.09,0Z"/>
    <path class="cls-3" d="m1.71.39l.11.07s.02.03,0,.05l-.07.04s-.07.02-.09,0l-.11-.07s-.02-.04,0-.05l.07-.04s.07-.02.09,0Z"/>
    <path class="cls-3" d="m1.48.25l.11.07s.02.03,0,.05l-.07.04s-.07.02-.09,0l-.12-.07s-.02-.03,0-.05l.07-.04s.07-.02.09,0Z"/>
    <path class="cls-3" d="m1.25.12l.11.07s.02.04,0,.05l-.07.04s-.07.02-.09,0l-.12-.07s-.02-.03,0-.05l.07-.04s.07-.02.09,0Z"/>
    <polygon class="cls-2" points="4.03 2.21 4.38 2.41 4.23 2.49 3.88 2.29 4.03 2.21"/>
    <polygon class="cls-1" points="4.23 2.58 3.88 2.38 3.88 2.29 4.23 2.49 4.23 2.58"/>
    <path class="cls-12" d="m7.04,1.97h0c0,.46-.37.83-.82.83s-.82-.37-.82-.82h0c0-.46.37-.82.82-.82s.82.36.82.81Z"/>
    <path class="cls-5" d="m7.04,1.97s-.07.05-.11.08c-.39.23-1.03.23-1.42,0-.04-.02-.08-.05-.11-.08,0-.45.37-.81.82-.81s.82.36.82.81Z"/>
    <path class="cls-12" d="m6.46,1.58c-.13.08-.35.08-.48,0-.13-.08-.13-.2,0-.28.13-.08.35-.08.48,0,.13.08.13.2,0,.28Z"/>
    <path class="cls-4" d="m6.38,1.53c-.09.05-.22.05-.31,0-.09-.05-.09-.13,0-.18.08-.05.22-.05.31,0,.08.05.08.13,0,.18Z"/>
    <path class="cls-12" d="m6.17,2.51c0,.12-.04.22-.11.27h0l-.04.02-1.08.63-.62-1.06,1.09-.63c.08-.06.2-.06.33.02.24.14.43.48.43.75h0Z"/>
    <path class="cls-2" d="m5.87,2.76c0,.14-.05.25-.12.3h0l-.05.03-1.23.72-.71-1.2,1.24-.72c.09-.07.22-.07.37.02.27.16.49.54.49.86h0Z"/>
    <path class="cls-1" d="m4.81,3.49c0,.18-.06.3-.15.37h0l-.06.03-.64.37-.87-1.46.66-.38c.11-.08.27-.08.45.02.33.19.6.66.6,1.04Z"/>
    <path class="cls-2" d="m4.35,3.76c0,.18-.06.3-.15.37h0l-.06.03-.64.37-.87-1.46.66-.38c.11-.08.27-.08.46.02.33.19.6.66.6,1.04Z"/>
    <g class="cls-9">
      <path class="cls-1" d="m3.5,3.55c.23.41.23.85,0,.98-.24.14-.62-.08-.85-.49-.23-.41-.23-.85,0-.98.23-.14.62.08.85.49Z"/>
    </g>
    <path class="cls-12" d="m3.57,4.08c0,.32-.22.44-.5.29-.27-.16-.49-.54-.49-.86s.22-.44.49-.29c.27.16.5.54.5.86Z"/>
    <path class="cls-1" d="m3.27,3.92c0,.13-.09.18-.21.12-.11-.07-.2-.22-.2-.35s.09-.18.2-.12c.11.07.21.22.21.35Z"/>
    <path class="cls-2" d="m3.22,3.88c0,.09-.07.13-.15.09-.08-.05-.15-.16-.15-.25s.07-.13.15-.08c.08.05.15.16.15.25Z"/>
    <path class="cls-8" d="m3.46,4.08l-.1-.06s-.04-.05-.04-.08.02-.05.04-.03l.1.06s.04.05.04.08-.02.05-.04.03Z"/>
    <path class="cls-8" d="m3.38,3.7l-.06.04s-.05,0-.07-.04c-.02-.03-.02-.07,0-.08l.06-.04s.05,0,.07.04c.02.03.02.07,0,.08Z"/>
    <path class="cls-8" d="m3.12,3.39v.09s-.02.05-.05.04c-.03-.02-.05-.06-.05-.1v-.09s.02-.05.05-.04c.03.02.05.06.05.1Z"/>
    <path class="cls-8" d="m2.84,3.31l.06.11s.02.07,0,.08c-.02.01-.05,0-.07-.04l-.06-.11s-.02-.07,0-.08c.02-.01.05,0,.07.04Z"/>
    <path class="cls-8" d="m2.68,3.51l.1.06s.04.05.04.08-.02.05-.04.03l-.1-.06s-.04-.05-.04-.08.02-.05.04-.03Z"/>
    <path class="cls-8" d="m2.76,3.89l.06-.04s.05,0,.07.04c.02.03.02.07,0,.08l-.06.04s-.05,0-.07-.04c-.02-.03-.02-.07,0-.08Z"/>
    <path class="cls-8" d="m3.02,4.2v-.09s.02-.05.05-.04c.03.02.05.06.05.1v.09s-.02.05-.05.04c-.03-.02-.05-.06-.05-.1Z"/>
    <path class="cls-8" d="m3.31,4.29l-.06-.11s-.02-.07,0-.08c.02-.01.05,0,.07.04l.06.11s.02.07,0,.08c-.02.01-.05,0-.07-.04Z"/>
    <polygon class="cls-5" points="4.9 2.15 4.69 2.03 4.99 1.85 5.21 1.97 4.9 2.15"/>
    <polygon class="cls-12" points="4.9 2.15 4.69 2.03 4.69 2.1 4.9 2.23 4.9 2.15"/>
    <polygon class="cls-8" points="5.21 1.98 4.9 2.15 4.9 2.23 5.21 2.05 5.21 1.98"/>
    <polygon class="cls-5" points="4.46 2.42 4.25 2.29 4.55 2.11 4.77 2.24 4.46 2.42"/>
    <polygon class="cls-12" points="4.46 2.42 4.25 2.29 4.25 2.37 4.46 2.49 4.46 2.42"/>
    <polygon class="cls-8" points="4.77 2.24 4.46 2.42 4.46 2.49 4.77 2.31 4.77 2.24"/>
    <polygon class="cls-1" points="5.69 3.44 5.34 3.23 5.34 3.14 5.69 3.34 5.69 3.44"/>
    <g class="cls-7">
      <polygon class="cls-1" points="8.53 5.64 5.2 3.72 5.2 3.63 8.53 5.55 8.53 5.64"/>
    </g>
    <g class="cls-6">
      <polygon class="cls-13" points="9.66 4.98 8.53 5.64 8.53 5.55 9.66 4.89 9.66 4.98"/>
    </g>
    <polygon class="cls-2" points="6.03 4.11 5.2 3.63 6.33 2.97 7.17 3.45 6.03 4.11"/>
    <path class="cls-3" d="m6.33,3.25l-.11-.07s-.02-.03,0-.05l.07-.04s.07-.02.09,0l.12.07s.02.04,0,.05l-.07.04s-.07.02-.09,0Z"/>
    <path class="cls-3" d="m6.56,3.39l-.11-.07s-.02-.03,0-.05l.07-.04s.07-.02.09,0l.12.07s.02.04,0,.05l-.07.04s-.07.02-.09,0Z"/>
    <path class="cls-3" d="m6.8,3.52l-.11-.07s-.02-.03,0-.05l.07-.04s.07-.02.09,0l.11.07s.02.04,0,.05l-.07.04s-.07.02-.09,0Z"/>
    <path class="cls-3" d="m6.13,3.37l-.11-.07s-.02-.03,0-.05l.07-.04s.07-.02.09,0l.12.07s.02.04,0,.05l-.07.04s-.07.02-.09,0Z"/>
    <path class="cls-3" d="m6.36,3.5l-.11-.07s-.02-.03,0-.05l.07-.04s.07-.02.09,0l.12.07s.02.04,0,.05l-.07.04s-.07.02-.09,0Z"/>
    <path class="cls-3" d="m6.59,3.64l-.11-.07s-.02-.03,0-.05l.07-.04s.07-.02.09,0l.11.07s.02.04,0,.05l-.07.04s-.07.02-.09,0Z"/>
    <path class="cls-3" d="m5.92,3.49l-.11-.07s-.02-.03,0-.05l.07-.04s.07-.02.09,0l.12.07s.02.04,0,.05l-.07.04s-.07.02-.09,0Z"/>
    <path class="cls-3" d="m6.16,3.62l-.11-.07s-.02-.03,0-.05l.07-.04s.07-.02.09,0l.12.07s.02.04,0,.05l-.07.04s-.07.02-.09,0Z"/>
    <path class="cls-3" d="m6.39,3.76l-.11-.07s-.02-.03,0-.05l.07-.04s.07-.02.09,0l.11.07s.02.04,0,.05l-.07.04s-.07.02-.09,0Z"/>
    <path class="cls-3" d="m5.72,3.61l-.11-.07s-.02-.03,0-.05l.07-.04s.07-.02.09,0l.12.07s.02.04,0,.05l-.07.04s-.07.02-.09,0Z"/>
    <path class="cls-3" d="m5.95,3.74l-.11-.07s-.02-.04,0-.05l.07-.04s.07-.02.09,0l.12.06s.02.04,0,.05l-.07.04s-.07.02-.09,0Z"/>
    <path class="cls-3" d="m6.18,3.88l-.11-.07s-.02-.03,0-.05l.07-.04s.07-.02.09,0l.11.06s.02.04,0,.05l-.07.04s-.07.02-.09,0Z"/>
    <path class="cls-3" d="m5.51,3.72l-.12-.06s-.02-.04,0-.05l.07-.04s.07-.02.09,0l.12.06s.02.04,0,.05l-.07.04s-.07.02-.09,0Z"/>
    <path class="cls-3" d="m5.75,3.86l-.11-.07s-.02-.03,0-.05l.07-.04s.07-.02.09,0l.12.07s.02.03,0,.05l-.07.04s-.07.02-.09,0Z"/>
    <path class="cls-3" d="m5.98,3.99l-.11-.07s-.02-.03,0-.05l.07-.04s.07-.02.09,0l.12.06s.02.04,0,.05l-.07.04s-.07.02-.09,0Z"/>
    <polygon class="cls-2" points="6.86 4.59 6.03 4.11 7.17 3.45 8 3.94 6.86 4.59"/>
    <path class="cls-3" d="m7.16,3.73l-.11-.07s-.02-.04,0-.05l.07-.04s.07-.02.09,0l.12.06s.02.04,0,.05l-.07.04s-.07.02-.09,0Z"/>
    <path class="cls-3" d="m7.4,3.87l-.11-.07s-.02-.03,0-.05l.07-.04s.07-.02.09,0l.12.06s.02.04,0,.05l-.07.04s-.07.02-.09,0Z"/>
    <path class="cls-3" d="m7.63,4l-.12-.07s-.02-.03,0-.05l.07-.04s.07-.02.09,0l.12.06s.02.04,0,.05l-.07.04s-.07.02-.09,0Z"/>
    <path class="cls-3" d="m6.96,3.85l-.11-.07s-.02-.03,0-.05l.07-.04s.07-.02.09,0l.11.06s.02.04,0,.05l-.07.04s-.07.02-.09,0Z"/>
    <path class="cls-3" d="m7.19,3.98l-.11-.07s-.02-.03,0-.05l.07-.04s.07-.02.09,0l.11.06s.02.04,0,.05l-.07.04s-.07.02-.09,0Z"/>
    <path class="cls-3" d="m7.43,4.12l-.12-.07s-.02-.03,0-.05l.07-.04s.07-.02.09,0l.12.06s.02.04,0,.05l-.07.04s-.07.02-.09,0Z"/>
    <path class="cls-3" d="m6.76,3.97l-.11-.07s-.02-.03,0-.05l.07-.04s.07-.02.09,0l.12.06s.02.04,0,.05l-.07.04s-.07.02-.09,0Z"/>
    <path class="cls-3" d="m6.99,4.1l-.11-.06s-.02-.04,0-.05l.07-.04s.07-.02.09,0l.12.07s.02.03,0,.05l-.07.04s-.07.02-.09,0Z"/>
    <path class="cls-3" d="m7.22,4.24l-.11-.07s-.02-.03,0-.05l.07-.04s.07-.02.09,0l.11.06s.02.04,0,.05l-.07.04s-.07.02-.09,0Z"/>
    <path class="cls-3" d="m6.55,4.09l-.11-.07s-.02-.03,0-.05l.07-.04s.07-.02.09,0l.12.06s.02.04,0,.05l-.07.04s-.07.02-.09,0Z"/>
    <path class="cls-3" d="m6.78,4.22l-.11-.07s-.02-.03,0-.05l.07-.04s.07-.02.09,0l.12.06s.02.04,0,.05l-.07.04s-.07.02-.09,0Z"/>
    <path class="cls-3" d="m7.02,4.36l-.11-.07s-.02-.03,0-.05l.07-.04s.07-.02.09,0l.12.06s.02.04,0,.05l-.07.04s-.07.02-.09,0Z"/>
    <path class="cls-3" d="m6.35,4.2l-.11-.06s-.02-.04,0-.05l.07-.04s.07-.02.09,0l.12.07s.02.03,0,.05l-.07.04s-.07.02-.09,0Z"/>
    <path class="cls-3" d="m6.58,4.34l-.11-.07s-.02-.03,0-.05l.07-.04s.07-.02.09,0l.12.06s.02.04,0,.05l-.07.04s-.07.02-.09,0Z"/>
    <path class="cls-3" d="m6.81,4.47l-.11-.06s-.02-.04,0-.05l.07-.04s.07-.02.09,0l.11.07s.02.03,0,.05l-.07.04s-.07.02-.09,0Z"/>
    <polygon class="cls-2" points="7.69 5.07 6.86 4.59 8 3.93 8.83 4.42 7.69 5.07"/>
    <path class="cls-3" d="m8,4.21l-.12-.07s-.02-.03,0-.05l.07-.04s.07-.02.09,0l.12.06s.02.04,0,.05l-.07.04s-.06.02-.09,0Z"/>
    <path class="cls-3" d="m8.23,4.35l-.11-.07s-.02-.03,0-.05l.07-.04s.07-.02.09,0l.12.06s.02.04,0,.05l-.07.04s-.06.02-.09,0Z"/>
    <path class="cls-3" d="m8.46,4.48l-.11-.07s-.02-.03,0-.05l.07-.04s.07-.02.09,0l.12.06s.02.04,0,.05l-.07.04s-.06.02-.09,0Z"/>
    <path class="cls-3" d="m7.79,4.33l-.11-.07s-.02-.03,0-.05l.07-.04s.07-.02.09,0l.11.06s.02.04,0,.05l-.07.04s-.07.02-.09,0Z"/>
    <path class="cls-3" d="m8.02,4.47l-.11-.07s-.02-.03,0-.05l.07-.04s.07-.02.09,0l.12.06s.02.04,0,.05l-.07.04s-.06.02-.09,0Z"/>
    <path class="cls-3" d="m8.26,4.6l-.11-.07s-.02-.03,0-.05l.07-.04s.07-.02.09,0l.12.06s.02.04,0,.05l-.07.04s-.06.02-.09,0Z"/>
    <path class="cls-3" d="m7.59,4.45l-.11-.07s-.02-.03,0-.05l.07-.04s.07-.02.09,0l.12.06s.02.04,0,.05l-.07.04s-.07.02-.09,0Z"/>
    <path class="cls-3" d="m7.82,4.58l-.11-.07s-.02-.03,0-.05l.07-.04s.07-.02.09,0l.11.06s.02.04,0,.05l-.07.04s-.07.02-.09,0Z"/>
    <path class="cls-3" d="m8.05,4.72l-.11-.07s-.02-.03,0-.05l.07-.04s.07-.02.09,0l.12.07s.02.04,0,.05l-.07.04s-.06.02-.09,0Z"/>
    <path class="cls-3" d="m7.38,4.57l-.11-.07s-.02-.03,0-.05l.07-.04s.07-.02.09,0l.11.06s.02.04,0,.05l-.07.04s-.07.02-.09,0Z"/>
    <path class="cls-3" d="m7.61,4.7l-.12-.07s-.02-.03,0-.05l.07-.04s.07-.02.09,0l.12.07s.02.04,0,.05l-.07.04s-.07.02-.09,0Z"/>
    <path class="cls-3" d="m7.85,4.84l-.11-.07s-.02-.03,0-.05l.07-.04s.07-.02.09,0l.11.06s.02.04,0,.05l-.07.04s-.07.02-.09,0Z"/>
    <path class="cls-3" d="m7.18,4.69l-.11-.07s-.02-.03,0-.05l.07-.04s.07-.02.09,0l.11.06s.02.04,0,.05l-.07.04s-.07.02-.09,0Z"/>
    <path class="cls-3" d="m7.41,4.82l-.12-.07s-.02-.03,0-.05l.07-.04s.07-.02.09,0l.12.06s.02.04,0,.05l-.07.04s-.07.02-.09,0Z"/>
    <path class="cls-3" d="m7.64,4.95l-.12-.07s-.02-.03,0-.05l.07-.04s.07-.02.09,0l.12.06s.02.04,0,.05l-.07.04s-.07.02-.09,0Z"/>
    <polygon class="cls-2" points="8.53 5.55 7.69 5.07 8.83 4.41 9.66 4.9 8.53 5.55"/>
    <path class="cls-3" d="m8.83,4.69l-.11-.07s-.02-.03,0-.05l.07-.04s.07-.02.09,0l.12.06s.02.04,0,.05l-.07.04s-.06.02-.09,0Z"/>
    <path class="cls-3" d="m9.06,4.83l-.11-.07s-.02-.03,0-.05l.07-.04s.07-.02.09,0l.12.06s.02.04,0,.05l-.07.04s-.06.02-.09,0Z"/>
    <path class="cls-3" d="m9.29,4.96l-.11-.07s-.02-.03,0-.05l.07-.04s.07-.02.09,0l.11.06s.02.04,0,.05l-.07.04s-.06.02-.09,0Z"/>
    <path class="cls-3" d="m8.62,4.81l-.11-.07s-.02-.03,0-.05l.07-.04s.07-.02.09,0l.12.06s.02.04,0,.05l-.07.04s-.06.02-.09,0Z"/>
    <path class="cls-3" d="m8.86,4.95l-.11-.07s-.02-.03,0-.05l.07-.04s.07-.02.09,0l.12.06s.02.04,0,.05l-.07.04s-.06.02-.09,0Z"/>
    <path class="cls-3" d="m9.09,5.08l-.11-.07s-.02-.03,0-.05l.07-.04s.07-.02.09,0l.12.06s.02.04,0,.05l-.07.04s-.06.02-.09,0Z"/>
    <path class="cls-3" d="m8.42,4.93l-.11-.07s-.02-.03,0-.05l.07-.04s.07-.02.09,0l.12.06s.02.04,0,.05l-.07.04s-.06.02-.09,0Z"/>
    <path class="cls-3" d="m8.65,5.06l-.11-.07s-.02-.03,0-.05l.07-.04s.07-.02.09,0l.12.06s.02.04,0,.05l-.07.04s-.06.02-.09,0Z"/>
    <path class="cls-3" d="m8.88,5.2l-.11-.07s-.02-.03,0-.05l.07-.04s.07-.02.09,0l.12.06s.02.04,0,.05l-.07.04s-.06.02-.09,0Z"/>
    <path class="cls-3" d="m8.21,5.05l-.11-.07s-.02-.03,0-.05l.07-.04s.07-.02.09,0l.12.06s.02.04,0,.05l-.07.04s-.06.02-.09,0Z"/>
    <path class="cls-3" d="m8.45,5.18l-.11-.07s-.02-.04,0-.05l.07-.04s.07-.02.09,0l.12.06s.02.04,0,.05l-.07.04s-.06.02-.09,0Z"/>
    <path class="cls-3" d="m8.68,5.32l-.11-.07s-.02-.03,0-.05l.07-.04s.07-.02.09,0l.11.06s.02.04,0,.05l-.07.04s-.06.02-.09,0Z"/>
    <path class="cls-3" d="m8.01,5.17l-.12-.07s-.02-.03,0-.05l.07-.04s.07-.02.09,0l.12.06s.02.04,0,.05l-.07.04s-.06.02-.09,0Z"/>
    <path class="cls-3" d="m8.24,5.3l-.11-.07s-.02-.03,0-.05l.07-.04s.07-.02.09,0l.12.06s.02.04,0,.05l-.07.04s-.06.02-.09,0Z"/>
    <path class="cls-3" d="m8.48,5.43l-.11-.07s-.02-.03,0-.05l.07-.04s.07-.02.09,0l.12.06s.02.04,0,.05l-.07.04s-.06.02-.09,0Z"/>
    <polygon class="cls-2" points="5.69 3.34 5.34 3.14 5.49 3.06 5.84 3.26 5.69 3.34"/>
  </g>
</svg>