<svg viewBox="0 0 252 252" xmlns="http://www.w3.org/2000/svg" xmlns:xlink="http://www.w3.org/1999/xlink" id="Layer_1" overflow="hidden"><style>
.MsftOfcThm_Accent1_Fill_v2 {
 fill:#2A2AEA; 
}
</style>
<defs><clipPath id="clippath"><circle cx="126" cy="126" r="108" stroke-width="0" fill="none"/></clipPath></defs><g clip-path="url(#clippath)"><path d="M126.375 233.995C126.25 233.996 126.125 234 126 234 125.875 234 125.75 233.996 125.625 233.995L125.625 209.042C125.499 209.008 125.376 208.97 125.25 208.936L125.25 183.981C125.501 183.984 125.748 184 126 184 126.252 184 126.499 183.984 126.75 183.981L126.75 209.348C126.625 209.317 126.5 209.287 126.375 209.255L126.375 233.995ZM71.7928 165.847C71.8515 165.958 71.9065 166.073 71.9657 166.184L79.5186 160.697C79.2195 160.296 78.9385 159.883 78.6495 159.475L71.2738 164.833C71.331 164.946 71.389 165.058 71.4467 165.171L38.4064 189.176 38.8152 189.74C38.8258 189.754 38.8363 189.769 38.8469 189.783L71.7929 165.847ZM18.0048 126.375 62.0095 126.375C62.01 126.501 62.018 126.624 62.019 126.75L68.019 126.75C68.0158 126.499 68 126.252 68 126 68 125.748 68.0158 125.501 68.019 125.25L62.019 125.25C62.018 125.376 62.01 125.499 62.0095 125.625L18.0048 125.625C18.0044 125.75 18 125.875 18 126 18 126.125 18.0043 126.25 18.0048 126.375ZM63.4509 110.327C63.4282 110.45 63.407 110.574 63.3848 110.697L69.6416 112.304C69.7595 111.817 69.8818 111.332 70.0119 110.85L63.6492 109.216C63.625 109.339 63.6068 109.464 63.5831 109.587L21.4863 98.7782 21.2998 99.5048 63.4509 110.327ZM64.2844 106.341C64.2558 106.463 64.2277 106.585 64.1996 106.708L70.5979 108.787C70.7465 108.308 70.9164 107.839 71.0771 107.365L64.5383 105.24C64.5081 105.362 64.4832 105.486 64.4536 105.608L23.4019 92.269 23.1705 92.9819 64.2845 106.341ZM65.313 102.375C65.2786 102.496 65.244 102.617 65.2101 102.738L71.7998 105.346C71.9781 104.879 72.16 104.413 72.3499 103.951L65.6218 101.287C65.5858 101.408 65.5544 101.53 65.5188 101.65L25.7221 85.8935 25.4457 86.5908 65.3129 102.375ZM66.5402 98.4349C66.4999 98.5541 66.459 98.673 66.4192 98.7924L73.2076 101.987C73.4151 101.531 73.6182 101.074 73.8371 100.625L66.9032 97.3621C66.8613 97.4806 66.8235 97.601 66.7822 97.7197L28.4385 79.6767 28.1192 80.3554 66.5402 98.4348ZM67.9696 94.5254C67.9235 94.6426 67.8766 94.7596 67.8309 94.8771L74.8146 98.7165C75.0505 98.2749 75.2982 97.841 75.5451 97.4063L68.3856 93.4703C68.3379 93.5868 68.2941 93.7052 68.2469 93.822L31.5391 73.6417 31.1778 74.2989 67.9696 94.5254ZM69.6042 90.6539C69.5522 90.769 69.4996 90.8838 69.4481 90.9991L76.632 95.5581C76.8951 95.1324 77.1679 94.7136 77.4416 94.2952L70.0723 89.6185C70.0188 89.7328 69.9692 89.8492 69.9162 89.9637L35.0137 67.814 34.6114 68.4468 69.6043 90.6538ZM233.981 125.25 183.981 125.25C183.984 125.501 184 125.749 184 126 184 126.252 183.984 126.499 183.981 126.75L233.981 126.75C233.983 126.499 234 126.252 234 126 234 125.749 233.983 125.501 233.981 125.25ZM183.818 130.389 233.652 133.524C233.696 133.027 233.732 132.528 233.766 132.029L183.927 128.893C183.902 129.395 183.855 129.891 183.818 130.389ZM183.436 134.012 232.803 140.249C232.886 139.755 232.977 139.264 233.051 138.768L183.625 132.524C183.569 133.022 183.504 133.517 183.436 134.012ZM182.837 137.606 231.435 146.876C231.555 146.392 231.66 145.902 231.772 145.414L183.1 136.13C183.013 136.622 182.936 137.118 182.837 137.606ZM181.988 141.15 229.531 153.356C229.69 152.881 229.861 152.411 230.013 151.931L182.359 139.696C182.241 140.183 182.118 140.668 181.988 141.15ZM180.923 144.634 227.159 159.657C227.355 159.197 227.532 158.727 227.72 158.262L181.402 143.213C181.254 143.692 181.084 144.161 180.923 144.634ZM179.65 148.048 224.274 165.716C224.506 165.271 224.736 164.825 224.961 164.375L180.2 146.653C180.022 147.121 179.84 147.586 179.65 148.048ZM178.163 151.375 220.96 171.514C221.227 171.087 221.499 170.663 221.758 170.231L178.793 150.013C178.585 150.468 178.382 150.926 178.163 151.375ZM218.106 175.78 177.186 153.284C176.95 153.725 176.702 154.159 176.455 154.594L217.231 177.011C217.53 176.606 217.814 176.191 218.106 175.78ZM214.092 181.016 175.368 156.442C175.105 156.867 174.833 157.286 174.559 157.704L213.099 182.162C213.429 181.779 213.768 181.404 214.092 181.016ZM209.696 185.883 173.35 159.476C173.061 159.884 172.78 160.298 172.481 160.698L208.643 186.972C209.001 186.616 209.344 186.245 209.696 185.883ZM204.995 190.377 171.156 162.383C170.842 162.773 170.522 163.156 170.198 163.537L203.846 191.373C204.231 191.043 204.616 190.713 204.995 190.377ZM200.015 194.475 168.787 165.151C168.449 165.52 168.099 165.876 167.752 166.236L198.793 195.386C199.203 195.085 199.61 194.783 200.015 194.475ZM165.151 168.787 193.496 198.971C193.928 198.702 194.355 198.425 194.781 198.148L166.237 167.752C165.877 168.099 165.52 168.449 165.151 168.787ZM189.359 201.41 163.538 170.197C163.157 170.521 162.773 170.842 162.384 171.156L188.004 202.127C188.457 201.889 188.912 201.656 189.359 201.41ZM159.475 173.351 182.356 204.844C182.824 204.639 183.287 204.425 183.751 204.213L160.697 172.481C160.297 172.781 159.883 173.062 159.475 173.351ZM178.037 206.598 157.705 174.559C157.286 174.832 156.867 175.105 156.441 175.369L176.587 207.114C177.072 206.943 177.557 206.777 178.037 206.598ZM172.221 208.518 154.594 176.455C154.16 176.702 153.726 176.949 153.284 177.185L170.74 208.938C171.236 208.803 171.729 208.662 172.221 208.518ZM166.364 210.015 151.375 178.163C150.926 178.382 150.469 178.585 150.013 178.793L164.858 210.338C165.362 210.238 165.862 210.124 166.364 210.015ZM160.494 211.086 148.048 179.651C147.586 179.841 147.12 180.023 146.652 180.201L158.958 211.281C159.47 211.216 159.985 211.16 160.494 211.086ZM154.641 211.72 144.635 180.923C144.161 181.084 143.692 181.254 143.213 181.402L153.102 211.837C153.617 211.807 154.128 211.759 154.641 211.72ZM147.692 211.992 152.496 230.7 153.222 230.514 148.466 211.988C148.594 211.988 148.721 211.98 148.85 211.979L141.15 181.988C140.668 182.118 140.183 182.241 139.696 182.359L147.302 211.983C147.433 211.984 147.561 211.992 147.692 211.992ZM136.128 183.101 141.591 211.737C141.72 211.747 141.849 211.758 141.979 211.767L145.868 232.157 146.604 232.017 142.753 211.826C142.883 211.834 143.011 211.848 143.141 211.855L137.605 182.837C137.117 182.936 136.621 183.014 136.128 183.101ZM132.523 183.625 136 211.149C136.128 211.167 136.256 211.18 136.384 211.197L139.163 233.195 139.907 233.102 137.152 211.295C137.281 211.311 137.408 211.328 137.537 211.344L134.011 183.436C133.517 183.505 133.021 183.57 132.523 183.625ZM132.068 210.503 130.389 183.818C129.891 183.855 129.395 183.902 128.893 183.927L130.548 210.225C130.674 210.251 130.802 210.274 130.928 210.299L132.407 233.806C132.657 233.791 132.906 233.775 133.155 233.758L131.688 210.435C131.814 210.459 131.942 210.479 132.068 210.503ZM121.611 183.818 120.13 207.357C120.252 207.399 120.375 207.44 120.498 207.481L118.845 233.758C119.094 233.775 119.343 233.791 119.593 233.806L121.233 207.73C121.357 207.77 121.478 207.815 121.602 207.855L123.107 183.927C122.605 183.902 122.109 183.855 121.611 183.818ZM116.641 206.076 119.477 183.625C118.978 183.57 118.483 183.505 117.989 183.436L115.2 205.508C115.319 205.557 115.441 205.601 115.56 205.65L112.092 233.103 112.836 233.197 116.28 205.934C116.4 205.982 116.52 206.029 116.64 206.076ZM114.395 182.837 110.473 203.395C110.59 203.452 110.705 203.512 110.822 203.568L105.395 232.017 106.131 232.157 111.524 203.885C111.641 203.94 111.759 203.99 111.876 204.044L115.871 183.1C115.379 183.014 114.883 182.936 114.394 182.837ZM110.85 181.988 105.964 201.02C106.077 201.084 106.188 201.151 106.301 201.214L98.7784 230.514 99.505 230.7 106.976 201.602C107.089 201.664 107.205 201.719 107.318 201.779L112.304 182.359C111.817 182.241 111.332 182.118 110.85 181.988ZM107.365 180.923 101.674 198.439C101.783 198.509 101.891 198.579 102.001 198.649L92.2691 228.599 92.982 228.831 102.653 199.067C102.763 199.135 102.869 199.208 102.979 199.276L108.787 181.402C108.308 181.254 107.839 181.084 107.366 180.923ZM103.951 179.65 97.6084 195.671C97.7126 195.747 97.8187 195.82 97.9233 195.895L85.8937 226.279 86.591 226.554 98.5525 196.343C98.6578 196.417 98.7617 196.493 98.8674 196.566L105.347 180.201C104.879 180.022 104.413 179.84 103.952 179.65ZM100.625 178.163 93.7691 192.734C93.8686 192.815 93.9719 192.891 94.0718 192.972L79.6768 223.563 80.3555 223.881 94.6768 193.447C94.7774 193.527 94.8785 193.606 94.9795 193.685L101.987 178.793C101.532 178.585 101.074 178.382 100.625 178.163ZM97.4059 176.455 90.1568 189.641C90.2515 189.727 90.3511 189.808 90.446 189.893L73.6417 220.46 74.2989 220.822 91.0258 190.395C91.1216 190.48 91.2196 190.562 91.3157 190.647L98.716 177.186C98.2743 176.95 97.8406 176.702 97.4059 176.455ZM94.2955 174.559 86.7872 186.39C86.8777 186.482 86.9631 186.579 87.0541 186.67L67.814 216.988 68.4468 217.39 87.6023 187.206C87.6931 187.295 87.7881 187.38 87.8793 187.47L95.5588 175.369C95.133 175.106 94.714 174.833 94.2955 174.559ZM91.3025 172.481 83.645 183.021C83.7301 183.117 83.8114 183.216 83.897 183.312L62.2165 213.153 62.8229 213.594 84.4038 183.89C84.4894 183.984 84.5808 184.072 84.6668 184.166L92.5249 173.35C92.1168 173.061 91.7027 172.78 91.3025 172.481ZM81.6796 180.752 89.6172 171.157C89.2277 170.843 88.8441 170.522 88.463 170.198L80.729 179.547C80.8087 179.647 80.8859 179.749 80.9661 179.849L56.8714 208.974C56.9561 209.045 57.0391 209.117 57.124 209.188L57.4443 209.453C57.4453 209.454 57.4464 209.454 57.4475 209.455L81.4407 180.453C81.5216 180.551 81.5984 180.654 81.6797 180.752ZM78.2582 176.292 51.7989 204.469C51.9806 204.641 52.1652 204.809 52.348 204.98L78.7017 176.916C78.7773 177.019 78.8474 177.126 78.9234 177.228L86.8495 168.787C86.4805 168.449 86.1235 168.099 85.7634 167.752L78.0363 175.98C78.1105 176.084 78.1834 176.189 78.2581 176.292ZM83.2131 165.151 75.5652 172.333C75.6337 172.44 75.7019 172.547 75.7709 172.654L47.0205 199.652C47.1911 199.835 47.3599 200.02 47.5317 200.202L76.1827 173.296C76.2526 173.402 76.318 173.512 76.3884 173.617L84.248 166.236C83.901 165.876 83.5507 165.52 83.213 165.151ZM73.5017 168.944 42.5455 194.553C42.5561 194.566 42.5663 194.579 42.5768 194.592L42.7742 194.831C42.8573 194.931 42.9432 195.029 43.0266 195.129L73.8811 169.604C73.9455 169.713 74.0059 169.825 74.0707 169.934L81.8022 163.538C81.4782 163.156 81.1577 162.773 80.8435 162.383L73.312 168.614C73.3749 168.724 73.4382 168.834 73.5016 168.944ZM76.6322 156.442 69.4483 161.001C69.4998 161.116 69.5522 161.231 69.6042 161.346L34.6115 183.553 35.0138 184.186 69.9162 162.036C69.9691 162.151 70.0187 162.267 70.0721 162.381L77.4414 157.704C77.1679 157.286 76.8951 156.868 76.6323 156.442ZM74.815 153.284 67.8312 157.124C67.8769 157.241 67.9237 157.358 67.9699 157.475L31.1778 177.702 31.5391 178.36 68.2472 158.179C68.2944 158.296 68.3382 158.414 68.3859 158.531L75.5456 154.595C75.2987 154.16 75.0509 153.726 74.815 153.285ZM73.2079 150.014 66.4195 153.208C66.4594 153.328 66.5002 153.447 66.5406 153.566L28.1193 171.646 28.4386 172.323 66.7823 154.28C66.8237 154.399 66.8615 154.52 66.9034 154.638L73.8374 151.376C73.6186 150.926 73.4155 150.469 73.2079 150.014ZM71.7996 146.653 65.2099 149.262C65.2438 149.383 65.2784 149.503 65.3128 149.624L25.4463 165.408 25.7227 166.106 65.5187 150.349C65.5542 150.47 65.5857 150.592 65.6216 150.712L72.3496 148.048C72.1596 147.586 71.9778 147.12 71.7995 146.653ZM70.5979 143.213 64.1997 145.292C64.2277 145.415 64.2558 145.537 64.2844 145.659L23.1706 159.018 23.402 159.731 64.4536 146.392C64.4832 146.514 64.5082 146.637 64.5383 146.759L71.0769 144.634C70.9164 144.161 70.7465 143.692 70.598 143.213ZM69.6417 139.696 63.3849 141.303C63.4071 141.426 63.4284 141.55 63.4511 141.673L21.3 152.495 21.4865 153.222 63.5833 142.413C63.607 142.536 63.6252 142.661 63.6494 142.784L70.0121 141.15C69.882 140.668 69.7597 140.183 69.6418 139.696ZM68.8998 136.129 62.7627 137.3C62.779 137.424 62.7932 137.548 62.81 137.672L19.843 145.868 19.9836 146.605 62.9047 138.417C62.9226 138.541 62.9336 138.666 62.952 138.79L69.1634 137.605C69.0643 137.117 68.9866 136.621 68.8998 136.129ZM68.3749 132.523 62.3296 133.287C62.34 133.411 62.3471 133.537 62.358 133.661L18.8048 139.163 18.8986 139.907 62.415 134.41C62.4271 134.534 62.4309 134.66 62.4435 134.784L68.564 134.011C68.4956 133.517 68.4308 133.021 68.3749 132.523ZM62.0922 129.645 18.1944 132.406C18.209 132.656 18.2255 132.905 18.2418 133.154L62.1112 130.394C62.1175 130.52 62.1312 130.643 62.1381 130.768L68.1823 130.388C68.145 129.89 68.0979 129.394 68.0733 128.893L62.0828 129.27C62.0875 129.394 62.0871 129.52 62.0923 129.645ZM68.1823 121.611 62.1381 121.231C62.1313 121.356 62.1174 121.479 62.1111 121.605L18.2418 118.845C18.2255 119.094 18.209 119.343 18.1944 119.593L62.0922 122.355C62.087 122.479 62.0873 122.605 62.0827 122.73L68.0732 123.107C68.0979 122.605 68.145 122.109 68.1823 121.611ZM68.564 117.989 62.4435 117.215C62.4309 117.339 62.427 117.466 62.415 117.59L18.8985 112.093 18.8829 112.217 18.8204 112.713 18.8048 112.837 62.3581 118.339C62.3471 118.463 62.3401 118.589 62.3297 118.713L68.375 119.477C68.4308 118.979 68.4957 118.483 68.5641 117.989ZM62.7626 114.701 68.8997 115.872C68.9865 115.379 69.0643 114.883 69.1635 114.395L62.952 113.21C62.9336 113.333 62.9225 113.459 62.9046 113.583L19.983 105.395 19.8424 106.132 62.81 114.328C62.7932 114.452 62.7789 114.577 62.7626 114.701ZM71.2738 87.1669 78.6495 92.5257C78.9386 92.1175 79.2198 91.7032 79.5191 91.3029L71.9661 85.8154C71.7294 86.2624 71.5029 86.7154 71.2738 87.167ZM80.8437 89.6168C81.1577 89.2275 81.4782 88.8441 81.802 88.4632L74.0705 82.0671C73.8112 82.5025 73.5639 82.9457 73.3121 83.3861L80.8437 89.6168ZM75.565 79.6677 83.2129 86.8496C83.5506 86.4807 83.9009 86.124 84.2479 85.764L76.3883 78.3833C76.1065 78.8062 75.8394 79.2395 75.5649 79.6677ZM86.8494 83.2131 78.9233 74.7727C78.6193 75.1819 78.3334 75.6049 78.0366 76.0196L85.7638 84.2482C86.1238 83.9012 86.4805 83.5509 86.8494 83.2132ZM80.7289 72.4534 88.4629 81.8022C88.844 81.4782 89.2275 81.1577 89.617 80.8435L81.6794 71.2487C81.3537 71.6429 81.0476 72.0534 80.7288 72.4534ZM83.6447 68.9799 91.3022 79.5195C91.7025 79.2202 92.1168 78.9391 92.525 78.6499L84.6668 67.8342C84.3204 68.2112 83.9843 68.5968 83.6446 68.9799ZM86.7873 65.6102 94.2957 77.4415C94.714 77.1678 95.1329 76.895 95.5586 76.6319L87.8791 64.5309C87.5131 64.8888 87.1469 65.2458 86.7874 65.6101ZM90.1571 62.3591 97.4062 75.5453C97.8409 75.2984 98.2748 75.0507 98.7164 74.8148L91.316 61.3536C90.9316 61.6909 90.5354 62.015 90.1571 62.3591ZM93.7686 59.2671 100.625 73.8374C101.074 73.6186 101.531 73.4154 101.987 73.2079L94.979 58.3159C94.5753 58.6327 94.1665 58.9433 93.7686 59.2671ZM97.6088 56.3289 103.952 72.35C104.414 72.1601 104.88 71.9782 105.347 71.7999L98.8674 55.4339C98.445 55.7286 98.0256 56.027 97.6088 56.329ZM101.674 53.5608 107.366 71.077C107.839 70.9164 108.309 70.7465 108.787 70.5978L102.98 52.7238C102.539 52.995 102.11 53.2818 101.674 53.5608ZM105.964 50.98 110.85 70.0121C111.332 69.882 111.817 69.7598 112.304 69.6418L107.318 50.221C106.862 50.4664 106.415 50.7266 105.964 50.98ZM110.472 48.6054 114.394 69.1638C114.882 69.0646 115.378 68.9869 115.871 68.9001L111.876 47.9563C111.408 48.1731 110.935 48.3804 110.472 48.6054ZM115.2 46.4924 117.988 68.5642C118.483 68.4958 118.978 68.431 119.477 68.3751L116.641 45.9245C116.16 46.1129 115.676 46.2957 115.2 46.4924ZM120.13 44.6436 121.611 68.1825C122.109 68.1451 122.605 68.098 123.107 68.0734L121.602 44.1457C121.108 44.3048 120.62 44.4758 120.13 44.6436ZM125.25 43.0648 125.25 68.0193C125.501 68.0161 125.749 68.0003 126 68.0003 126.252 68.0003 126.499 68.0161 126.75 68.0193L126.75 42.6518C126.246 42.7799 125.751 42.9279 125.25 43.0648ZM70.9521 115.754 71.1761 115.797C71.1572 115.878 71.1383 115.959 71.1198 116.041L94.9724 120.591C95.0293 120.262 95.0834 119.932 95.1505 119.606L71.3449 115.065C71.3248 115.146 71.3083 115.228 71.2886 115.309L71.0399 115.262C71.0082 115.425 70.9823 115.59 70.952 115.754ZM71.6917 112.314 72.0915 112.417C72.0662 112.497 72.0377 112.575 72.0129 112.655L95.3708 118.652C95.4485 118.327 95.5305 118.004 95.6182 117.683L72.3326 111.704C72.306 111.784 72.2783 111.862 72.2522 111.942L71.813 111.829C71.7709 111.99 71.7323 112.153 71.6917 112.314ZM72.6587 108.931 73.2806 109.133C73.2493 109.21 73.2196 109.288 73.1887 109.366L95.8857 116.741C95.9838 116.421 96.093 116.107 96.2009 115.792L73.5587 108.435C73.5261 108.511 73.4964 108.59 73.4643 108.667L72.8189 108.457C72.7667 108.616 72.7095 108.772 72.6586 108.931ZM73.8428 105.618 74.709 105.961C74.6716 106.036 74.6315 106.109 74.5945 106.185L96.5299 114.869C96.6479 114.557 96.769 114.246 96.8966 113.939L75.0524 105.29C75.0138 105.365 74.976 105.439 74.9378 105.514L74.026 105.153C73.964 105.308 73.9034 105.463 73.8427 105.618ZM75.2235 102.383 76.368 102.921C76.325 102.993 76.2854 103.067 76.2428 103.139L97.29 113.043C97.4275 112.739 97.5656 112.435 97.7124 112.136L76.7632 102.279C76.7188 102.35 76.671 102.419 76.627 102.491L75.4292 101.927C75.3575 102.078 75.2936 102.232 75.2233 102.383ZM76.7992 99.2373 78.2558 100.038C78.2074 100.106 78.1582 100.174 78.1102 100.243L98.1589 111.265C98.3152 110.97 98.4785 110.68 98.6439 110.391L78.6933 99.4227C78.6438 99.4902 78.5969 99.5597 78.5477 99.6275L77.0486 98.8033C76.9674 98.9492 76.8791 99.0905 76.7991 99.2373ZM78.5904 96.2086 80.3305 97.3129C80.2769 97.3777 80.2248 97.4436 80.1716 97.5087L99.1381 109.545C99.3128 109.261 99.4947 108.981 99.6781 108.703L80.8271 96.7396C80.7722 96.8037 80.7158 96.8667 80.6613 96.9311L78.8602 95.788C78.7702 95.9281 78.6794 96.0675 78.5905 96.2085ZM80.5572 93.2933 82.6065 94.7822C82.5482 94.8427 82.4905 94.9038 82.4325 94.9647L100.23 107.896C100.422 107.623 100.613 107.349 100.813 107.083L83.1284 94.2346C83.0691 94.2942 83.0133 94.3572 82.9544 94.4171L80.8469 92.8859C80.7483 93.0201 80.6546 93.1581 80.5572 93.2932ZM82.6936 90.4987 85.036 92.4366C84.973 92.4929 84.9071 92.546 84.8444 92.6026L101.418 106.313C101.627 106.053 101.84 105.797 102.057 105.544L85.6109 91.9387C85.547 91.9939 85.483 92.0491 85.4193 92.1047L83.0155 90.1161C82.9086 90.2441 82.7994 90.3699 82.6936 90.4989ZM85.0156 87.8564 87.6178 90.3C87.551 90.3514 87.4855 90.4046 87.4189 90.4563L102.698 104.805C102.923 104.558 103.156 104.32 103.388 104.081L88.2202 89.8374C88.1521 89.8879 88.0829 89.9369 88.0151 89.9878L85.3604 87.4949C85.2458 87.6158 85.1291 87.7345 85.0157 87.8564ZM87.4945 85.3606 90.3249 88.3746C90.2541 88.4212 90.1813 88.465 90.1107 88.5119L104.08 103.388C104.32 103.156 104.558 102.923 104.804 102.698L90.9667 87.963C90.895 88.0084 90.8239 88.0546 90.7525 88.1003L87.856 85.0157C87.7341 85.1292 87.6153 85.2459 87.4944 85.3604ZM92.8852 80.8474 96.0399 85.1894C95.9628 85.2253 95.8842 85.2582 95.8074 85.2945L107.083 100.813C107.349 100.613 107.622 100.423 107.895 100.231L96.7376 84.8739C96.6598 84.9084 96.5826 84.944 96.5051 84.9791L93.2928 80.5577C93.1577 80.6551 93.0196 80.7488 92.8854 80.8474ZM95.7882 78.86 99.009 83.9352C98.9294 83.9655 98.851 83.9981 98.7718 84.0288L108.703 99.678C108.981 99.4947 109.261 99.3126 109.545 99.138L99.7252 83.6639C99.6446 83.693 99.5627 83.7191 99.4823 83.7486L96.2087 78.5903C96.0677 78.679 95.9283 78.7699 95.7882 78.86ZM98.803 77.0489 102.024 82.9081C101.942 82.9326 101.859 82.9531 101.778 82.9781L110.39 98.6441C110.679 98.4788 110.97 98.3154 111.264 98.1591L102.764 82.6979C102.682 82.7211 102.6 82.7442 102.518 82.7678L99.237 76.7994C99.0903 76.8794 98.9489 76.9676 98.803 77.0489ZM101.927 75.4296 105.072 82.1127C104.988 82.1314 104.905 82.1511 104.822 82.1703L112.136 97.7127C112.435 97.5658 112.739 97.4277 113.043 97.2902L105.819 81.9401C105.735 81.9575 105.654 81.9798 105.57 81.9977L102.382 75.2237C102.231 75.294 102.077 75.358 101.927 75.4296ZM105.153 74.026 108.122 81.5233C108.037 81.5362 107.955 81.5548 107.87 81.5682L113.939 96.8966C114.247 96.769 114.557 96.6479 114.87 96.5299L108.889 81.4246C108.804 81.4361 108.718 81.4451 108.633 81.4571L105.618 73.8428C105.463 73.9035 105.308 73.964 105.153 74.0261ZM108.457 72.819 111.172 81.1738C111.087 81.181 111.001 81.1856 110.916 81.1933L115.792 96.2011C116.107 96.0932 116.421 95.9839 116.741 95.8859L111.942 81.1154C111.856 81.1211 111.771 81.1286 111.685 81.1349L108.931 72.6588C108.772 72.7097 108.616 72.7668 108.457 72.8191ZM111.829 71.8131 114.193 81.0206C114.107 81.0221 114.022 81.0251 113.937 81.0271L117.683 95.6182C118.004 95.5305 118.327 95.4486 118.652 95.3709L114.963 81.0011C114.877 81.0011 114.792 81.0071 114.706 81.0076L112.314 71.6917C112.152 71.7323 111.99 71.771 111.829 71.813ZM115.261 71.0403 117.171 81.0551C117.087 81.0511 117 81.0522 116.915 81.0486L119.606 95.1508C119.931 95.0837 120.261 95.0296 120.59 94.9726L117.945 81.1066C117.858 81.101 117.773 81.092 117.687 81.0869L115.753 70.9523C115.59 70.9826 115.424 71.0085 115.261 71.0402ZM118.735 70.485 120.101 81.296C120.015 81.2864 119.93 81.2727 119.845 81.2635L121.557 94.8182C121.886 94.7717 122.216 94.7284 122.549 94.6921L120.869 81.3936C120.784 81.3825 120.698 81.3717 120.613 81.3611L119.231 70.4219C119.065 70.4419 118.9 70.4635 118.735 70.4849ZM122.235 70.1403 122.963 81.7171C122.879 81.702 122.795 81.6864 122.71 81.6718L123.524 94.6064C123.855 94.5806 124.187 94.5532 124.521 94.5377L123.723 81.8528C123.639 81.8363 123.554 81.8236 123.47 81.8076L122.733 70.1025C122.566 70.1121 122.401 70.1294 122.235 70.1404ZM126 70.0003C125.916 70.0003 125.834 70.0063 125.75 70.0066L125.75 82.3024C125.667 82.2821 125.583 82.2645 125.5 82.2447L125.5 94.5129C125.667 94.5103 125.832 94.5003 126 94.5003 126.168 94.5003 126.333 94.5103 126.5 94.5129L126.5 82.489C126.416 82.4669 126.334 82.4397 126.25 82.418L126.25 70.0066C126.166 70.0062 126.084 70.0003 126 70.0003ZM136.246 70.9523 133.564 85.0106C133.486 84.9752 133.408 84.9396 133.33 84.9046L131.41 94.9726C131.739 95.0295 132.068 95.0836 132.394 95.1507L134.268 85.3284C134.19 85.2917 134.111 85.2588 134.033 85.2224L136.739 71.0401C136.575 71.0084 136.41 70.9825 136.246 70.9522ZM139.686 71.6919 135.965 86.1835C135.89 86.1436 135.813 86.106 135.737 86.0666L133.348 95.371C133.673 95.4487 133.996 95.5307 134.317 95.6184L136.647 86.545C136.571 86.5034 136.498 86.4583 136.422 86.4171L140.171 71.8132C140.01 71.7711 139.848 71.7325 139.686 71.6919ZM143.069 72.6588 138.256 87.4704C138.184 87.4264 138.108 87.3867 138.035 87.343L135.259 95.8858C135.579 95.9839 135.893 96.0931 136.208 96.201L138.91 87.8844C138.837 87.8386 138.766 87.7903 138.693 87.7449L143.542 72.8189C143.384 72.7667 143.228 72.7095 143.069 72.6586ZM146.382 73.8428 140.429 88.8772C140.359 88.8286 140.291 88.7762 140.219 88.728L137.131 96.5299C137.443 96.6479 137.753 96.7691 138.061 96.8967L141.059 89.3247C140.989 89.275 140.919 89.2248 140.849 89.1755L146.847 74.0261C146.692 73.9641 146.537 73.9035 146.382 73.8428ZM149.617 75.2237 142.485 90.3809C142.417 90.3285 142.351 90.2742 142.283 90.2222L138.957 97.2903C139.261 97.4278 139.565 97.5659 139.864 97.7127L143.09 90.8564C143.023 90.8029 142.955 90.7508 142.888 90.6977L150.073 75.4295C149.923 75.3578 149.768 75.2939 149.617 75.2236ZM152.762 76.7992 144.423 91.9683C144.359 91.9126 144.295 91.8565 144.23 91.8012L140.735 98.159C141.03 98.3154 141.32 98.4786 141.609 98.644L145.003 92.4705C144.94 92.4137 144.874 92.3598 144.81 92.3034L153.197 77.0488C153.051 76.9676 152.909 76.8792 152.763 76.7993ZM155.791 78.5905 146.245 93.6327C146.184 93.5736 146.122 93.5153 146.06 93.4565L142.455 99.1381C142.739 99.3127 143.018 99.4947 143.297 99.6781L146.799 94.1603C146.738 94.1001 146.674 94.0439 146.614 93.9841L156.212 78.8601C156.072 78.7701 155.932 78.6793 155.791 78.5905ZM158.707 80.5577 147.949 95.365C147.891 95.303 147.832 95.2427 147.774 95.1811L144.105 100.231C144.378 100.423 144.651 100.613 144.917 100.813L148.468 95.9261C148.411 95.8626 148.357 95.796 148.3 95.7327L159.115 80.8473C158.98 80.7487 158.842 80.655 158.707 80.5576ZM161.501 82.6939 149.535 97.1583C149.481 97.0935 149.424 97.0312 149.369 96.9666L145.687 101.418C145.947 101.627 146.203 101.84 146.456 102.057L150.019 97.7509C149.965 97.6846 149.915 97.6158 149.861 97.5498L161.884 83.0158C161.756 82.9089 161.63 82.7997 161.501 82.6939ZM164.144 85.0159 151.006 99.0067C150.955 98.9393 150.9 98.875 150.849 98.8078L147.196 102.699C147.442 102.923 147.68 103.156 147.919 103.388L151.452 99.6267C151.402 99.5579 151.354 99.4874 151.304 99.4188L164.505 85.3606C164.385 85.246 164.266 85.1293 164.144 85.0159ZM166.64 87.4948 152.357 100.907C152.31 100.837 152.261 100.768 152.214 100.699L148.612 104.081C148.844 104.32 149.077 104.558 149.302 104.804L152.769 101.549C152.723 101.478 152.678 101.406 152.632 101.335L166.984 87.8564C166.871 87.7345 166.754 87.6157 166.64 87.4948ZM171.153 92.8855 154.712 104.83C154.672 104.756 154.637 104.679 154.597 104.605L151.187 107.083C151.387 107.349 151.578 107.622 151.77 107.895L155.058 105.506C155.02 105.431 154.982 105.355 154.943 105.281L171.443 93.2928C171.345 93.1577 171.251 93.0196 171.153 92.8854ZM173.14 95.7885 155.722 106.843C155.686 106.767 155.654 106.688 155.617 106.612L152.322 108.703C152.506 108.982 152.688 109.261 152.862 109.546L156.034 107.533C155.999 107.456 155.965 107.379 155.93 107.302L173.41 96.2091C173.321 96.0681 173.23 95.9287 173.14 95.7886ZM174.951 98.8033 156.62 108.881C156.588 108.803 156.56 108.724 156.528 108.647L153.356 110.391C153.521 110.68 153.685 110.97 153.841 111.265L156.897 109.584C156.867 109.506 156.836 109.428 156.805 109.35L175.201 99.2372C175.121 99.0905 175.032 98.9491 174.951 98.8032ZM176.57 101.927 157.41 110.943C157.382 110.864 157.358 110.783 157.329 110.705L154.287 112.136C154.434 112.435 154.572 112.739 154.71 113.043L157.652 111.659C157.625 111.579 157.598 111.499 157.571 111.42L176.776 102.383C176.706 102.232 176.642 102.077 176.57 101.927ZM177.974 105.153 158.092 113.025C158.068 112.945 158.048 112.863 158.023 112.783L155.104 113.939C155.231 114.247 155.352 114.557 155.47 114.869L158.298 113.75C158.275 113.669 158.253 113.589 158.229 113.508L178.157 105.618C178.097 105.463 178.036 105.308 177.974 105.153ZM179.181 108.458 158.668 115.123C158.648 115.042 158.632 114.959 158.612 114.878L155.799 115.792C155.907 116.107 156.016 116.422 156.114 116.741L158.837 115.856C158.819 115.775 158.8 115.693 158.781 115.612L179.341 108.932C179.29 108.772 179.233 108.616 179.181 108.458ZM180.187 111.829 159.14 117.233C159.123 117.152 159.112 117.068 159.096 116.987L156.382 117.683C156.47 118.004 156.551 118.327 156.629 118.652L159.272 117.974C159.257 117.892 159.243 117.809 159.228 117.727L180.308 112.314C180.268 112.153 180.229 111.991 180.187 111.829ZM181.898 122.734C181.888 122.567 181.871 122.402 181.86 122.235L159.936 123.615C159.932 123.531 159.922 123.449 159.917 123.365L157.394 123.524C157.42 123.856 157.447 124.187 157.462 124.522L159.959 124.365C159.956 124.282 159.956 124.198 159.952 124.115L181.898 122.734ZM126.5 169.511 126.5 157.488C126.333 157.49 126.168 157.5 126 157.5 125.832 157.5 125.667 157.49 125.5 157.488L125.5 169.756C125.834 169.676 126.169 169.599 126.5 169.511ZM129.188 168.704 128.476 157.394C128.144 157.42 127.813 157.447 127.479 157.463L128.206 169.027C128.536 168.926 128.861 168.813 129.188 168.704ZM131.778 167.755 130.442 157.182C130.113 157.229 129.783 157.272 129.45 157.308L130.818 168.133C131.141 168.012 131.459 167.883 131.778 167.755ZM134.267 166.672 132.393 156.85C132.068 156.917 131.738 156.971 131.409 157.028L133.329 167.096C133.643 166.956 133.958 166.819 134.267 166.672ZM136.647 165.456 134.317 156.382C133.996 156.47 133.673 156.552 133.348 156.63L135.737 165.934C136.041 165.776 136.347 165.62 136.647 165.456ZM136.208 155.799C135.893 155.907 135.579 156.016 135.259 156.115L138.035 164.657C138.33 164.481 138.62 164.298 138.911 164.116L136.208 155.799ZM138.06 155.104C137.753 155.232 137.442 155.353 137.13 155.471L140.219 163.273C140.503 163.08 140.778 162.875 141.058 162.676L138.06 155.104ZM139.864 154.288C139.565 154.435 139.261 154.573 138.957 154.71L142.283 161.778C142.555 161.57 142.823 161.358 143.09 161.144L139.864 154.288ZM141.61 153.356C141.321 153.521 141.031 153.685 140.736 153.841L144.231 160.199C144.49 159.977 144.75 159.757 145.004 159.529L141.61 153.356ZM143.297 152.323C143.018 152.506 142.739 152.688 142.455 152.862L146.061 158.544C146.306 158.309 146.558 158.081 146.798 157.84L143.297 152.322ZM144.917 151.188C144.65 151.388 144.377 151.578 144.104 151.77L147.773 156.82C148.006 156.573 148.24 156.327 148.467 156.075L144.917 151.187ZM145.688 150.581 149.37 155.033C149.589 154.774 149.806 154.513 150.019 154.249L146.457 149.943C146.204 150.16 145.948 150.373 145.688 150.581ZM147.919 148.612C147.68 148.844 147.442 149.077 147.196 149.301L150.85 153.192C151.054 152.922 151.253 152.648 151.452 152.374L147.919 148.612ZM149.301 147.196C149.077 147.443 148.844 147.68 148.612 147.92L152.214 151.302C152.404 151.023 152.584 150.736 152.768 150.452L149.301 147.196ZM150.582 145.687C150.373 145.947 150.16 146.204 149.943 146.457L153.463 149.369C153.639 149.08 153.801 148.783 153.97 148.49L150.582 145.687ZM151.769 144.105C151.577 144.378 151.387 144.652 151.186 144.918L154.596 147.395C154.757 147.099 154.904 146.795 155.058 146.495L151.769 144.105ZM152.862 142.455C152.688 142.739 152.506 143.018 152.322 143.297L155.617 145.388C155.762 145.085 155.895 144.775 156.033 144.468L152.862 142.455ZM153.841 140.735C153.685 141.03 153.521 141.32 153.356 141.61L156.528 143.354C156.657 143.044 156.775 142.728 156.898 142.415L153.841 140.735ZM154.71 138.957C154.573 139.261 154.435 139.564 154.288 139.863L157.33 141.294C157.443 140.98 157.545 140.659 157.652 140.342L154.71 138.957ZM155.47 137.13C155.352 137.443 155.231 137.753 155.104 138.061L158.024 139.217C158.122 138.897 158.207 138.572 158.298 138.25L155.47 137.13ZM156.114 135.259C156.016 135.579 155.907 135.893 155.799 136.208L158.612 137.122C158.694 136.799 158.762 136.47 158.838 136.144L156.114 135.259ZM156.629 133.348C156.551 133.673 156.47 133.997 156.382 134.318L159.096 135.014C159.162 134.688 159.213 134.356 159.272 134.027L156.629 133.348ZM157.027 131.41C156.971 131.739 156.916 132.069 156.849 132.395L159.474 132.895C159.524 132.566 159.559 132.233 159.602 131.902L157.027 131.41ZM157.182 130.443 159.747 130.767C159.781 130.437 159.803 130.102 159.831 129.77L157.308 129.451C157.272 129.784 157.228 130.114 157.182 130.443ZM157.394 128.477 159.917 128.635C159.936 128.303 159.947 127.97 159.959 127.636L157.462 127.479C157.447 127.814 157.42 128.145 157.394 128.477ZM159.987 125.5 157.487 125.5C157.49 125.667 157.5 125.833 157.5 126 157.5 126.168 157.49 126.333 157.487 126.5L159.987 126.5C159.988 126.417 159.993 126.334 159.994 126.25L181.994 126.25C181.994 126.167 182 126.084 182 126 182 125.916 181.994 125.834 181.994 125.75L159.994 125.75C159.993 125.667 159.988 125.584 159.987 125.5ZM159.812 121.981 181.578 119.231C181.558 119.066 181.537 118.901 181.515 118.735L159.774 121.482C159.766 121.399 159.755 121.316 159.747 121.233L157.182 121.557C157.229 121.887 157.272 122.217 157.308 122.549L159.831 122.231C159.824 122.148 159.819 122.064 159.812 121.981ZM159.571 119.851 181.048 115.754C181.018 115.59 180.992 115.425 180.96 115.261L159.508 119.354C159.495 119.271 159.487 119.188 159.474 119.105L156.849 119.606C156.917 119.932 156.971 120.261 157.028 120.59L159.602 120.099C159.592 120.016 159.582 119.933 159.571 119.851ZM149.943 105.544C150.16 105.797 150.373 106.053 150.582 106.313L153.97 103.51C153.928 103.437 153.887 103.363 153.844 103.29L169.306 90.4987C169.2 90.3697 169.091 90.2439 168.984 90.1159L153.591 102.85C153.548 102.778 153.507 102.704 153.463 102.632L149.943 105.544ZM129.451 94.6922C129.784 94.7284 130.114 94.7718 130.443 94.8183L131.779 84.246C131.699 84.2139 131.619 84.183 131.539 84.1513L133.265 70.485C133.1 70.4636 132.935 70.442 132.769 70.422L131.059 83.962C130.979 83.9313 130.9 83.8977 130.819 83.8674L129.451 94.6922ZM128.206 82.9735 127.479 94.5376C127.813 94.5531 128.144 94.5804 128.476 94.6063L129.188 83.2961C129.106 83.2689 129.025 83.2398 128.943 83.2131L129.765 70.1402C129.598 70.1292 129.433 70.1119 129.266 70.1023L128.452 83.0471C128.37 83.0216 128.288 82.9985 128.206 82.9734ZM105.543 102.057C105.797 101.84 106.053 101.627 106.313 101.418L93.8065 86.3002C93.7313 86.3404 93.6535 86.3763 93.5786 86.417L90.4985 82.6938C90.3695 82.7996 90.2437 82.9088 90.1157 83.0158L93.1377 86.6688C93.0638 86.71 92.9915 86.7536 92.9178 86.7952L105.543 102.057ZM94.8179 121.557 70.6336 118.502C70.6197 118.585 70.603 118.666 70.5896 118.748L70.4847 118.735C70.4633 118.9 70.4416 119.066 70.4217 119.231L70.5065 119.242C70.4941 119.324 70.4868 119.408 70.4749 119.49L94.6919 122.549C94.7282 122.217 94.7715 121.886 94.818 121.557ZM94.606 123.524 70.1875 121.988C70.1802 122.07 70.1754 122.154 70.1685 122.237L70.14 122.235C70.129 122.402 70.1117 122.567 70.102 122.734L70.1306 122.735C70.1247 122.819 70.1172 122.901 70.1117 122.985L94.5374 124.521C94.5529 124.187 94.5802 123.856 94.6061 123.524ZM70.0126 126.5 94.5126 126.5C94.51 126.333 94.5 126.168 94.5 126 94.5 125.832 94.51 125.667 94.5126 125.5L70.0126 125.5C70.0108 125.667 70 125.832 70 126 70 126.168 70.0108 126.333 70.0126 126.5ZM70.1875 130.012 94.606 128.475C94.5801 128.144 94.5529 127.812 94.5375 127.478L70.1117 129.014C70.1337 129.348 70.1583 129.68 70.1876 130.012ZM70.6335 133.498 94.8178 130.442C94.7713 130.113 94.728 129.783 94.6917 129.45L70.4748 132.51C70.5228 132.841 70.5784 133.169 70.6335 133.498ZM71.3447 136.935 95.1503 132.394C95.0832 132.068 95.0292 131.738 94.9723 131.409L71.1197 135.959C71.1933 136.285 71.2641 136.612 71.3447 136.935ZM72.3325 140.296 95.6181 134.318C95.5304 133.997 95.4484 133.673 95.3707 133.348L72.0129 139.346C72.1122 139.666 72.2263 139.979 72.3325 140.296ZM73.5585 143.565 96.2007 136.208C96.0928 135.893 95.9835 135.579 95.8855 135.259L73.1885 142.634C73.312 142.944 73.4282 143.258 73.5585 143.565ZM75.052 146.709 96.8962 138.061C96.7687 137.753 96.6474 137.443 96.5294 137.13L74.594 145.815C74.7419 146.116 74.8976 146.412 75.0519 146.709ZM76.7633 149.722 97.7125 139.864C97.5658 139.565 97.4278 139.262 97.2904 138.958L76.2433 148.862C76.414 149.151 76.5865 149.438 76.7633 149.722ZM78.694 152.579 98.6445 141.611C98.479 141.321 98.3156 141.031 98.1591 140.736L78.1104 151.758C78.3029 152.033 78.4956 152.308 78.694 152.578ZM99.1382 142.455 80.1717 154.492C80.385 154.752 80.6076 155.005 80.8266 155.26L99.6777 143.297C99.4945 143.019 99.3126 142.74 99.1381 142.455ZM83.1283 157.765 100.813 144.917C100.613 144.651 100.422 144.377 100.23 144.105L82.4323 157.035C82.6643 157.279 82.891 157.527 83.1283 157.765ZM101.418 145.687 84.8449 159.398C85.0955 159.625 85.3552 159.841 85.6108 160.062L102.056 146.456C101.84 146.203 101.627 145.947 101.418 145.687ZM88.2205 162.163 103.388 147.919C103.156 147.68 102.923 147.442 102.698 147.196L87.4191 161.544C87.6856 161.751 87.9492 161.962 88.2204 162.163ZM90.9665 164.037 104.804 149.301C104.558 149.077 104.32 148.844 104.081 148.612L90.111 163.488C90.3929 163.676 90.6802 163.856 90.9665 164.037ZM93.8066 165.7 106.313 150.582C106.053 150.374 105.797 150.16 105.544 149.944L92.9186 165.205C93.2137 165.372 93.5076 165.54 93.8067 165.7ZM96.7376 167.126 107.895 151.77C107.622 151.578 107.349 151.387 107.082 151.187L95.8073 166.706C96.1146 166.851 96.4264 166.988 96.7375 167.126ZM99.725 168.336 109.545 152.862C109.261 152.688 108.982 152.506 108.703 152.322L98.7721 167.972C99.0892 168.094 99.4044 168.221 99.725 168.336ZM102.764 169.302 111.264 153.841C110.969 153.685 110.679 153.521 110.39 153.356L101.777 169.022C102.104 169.122 102.435 169.21 102.764 169.302ZM105.82 170.06 113.043 154.71C112.739 154.573 112.435 154.435 112.136 154.288L104.823 169.83C105.155 169.907 105.485 169.991 105.82 170.06ZM108.888 170.576 114.869 155.47C114.557 155.352 114.247 155.231 113.939 155.104L107.87 170.432C108.208 170.486 108.549 170.53 108.888 170.576ZM111.941 170.885 116.741 156.115C116.421 156.016 116.107 155.907 115.792 155.799L110.915 170.807C111.256 170.838 111.599 170.862 111.941 170.885ZM114.962 170.999 118.652 156.629C118.327 156.552 118.004 156.47 117.683 156.382L113.937 170.973C114.279 170.981 114.618 170.999 114.962 170.999ZM117.945 170.894 120.59 157.028C120.261 156.971 119.932 156.917 119.606 156.85L116.916 170.952C117.26 170.937 117.603 170.916 117.945 170.894ZM121.557 157.182 119.845 170.737C120.188 170.7 120.528 170.651 120.869 170.607L122.549 157.308C122.217 157.272 121.886 157.229 121.557 157.182ZM123.524 157.394 122.71 170.329C123.048 170.27 123.388 170.214 123.723 170.148L124.521 157.463C124.187 157.447 123.856 157.42 123.524 157.394Z" class="MsftOfcThm_Accent1_Fill_v2" stroke="none" stroke-width="0" stroke-linecap="butt" stroke-linejoin="miter" stroke-miterlimit="4" fill="#2A2AEA" fill-opacity="1"/></g></svg>