<?xml version="1.0" encoding="UTF-8"?>
<svg id="_Слой_2" data-name="Слой 2" xmlns="http://www.w3.org/2000/svg" viewBox="0 0 10.55 4.07">
  <defs>
    <style>
      .cls-1 {
        fill: #fff;
      }
    </style>
  </defs>
  <g id="_Слой_1-2" data-name="Слой 1">
    <path class="cls-1" d="m.36,2.4h8.97l-1.07,1.07c-.14.14-.14.36,0,.5.14.14.37.14.5,0l1.68-1.68c.14-.13.14-.35.01-.49,0,0,0,0-.01-.01L8.77.11c-.13-.14-.35-.14-.49-.01,0,0,0,0-.01.01-.14.13-.14.35-.01.49,0,0,0,0,.01.01l1.07,1.07H.36c-.2,0-.36.16-.36.36s.16.36.36.36H.36Z"/>
  </g>
</svg>