<?xml version="1.0" encoding="UTF-8"?>
<svg id="_Слой_2" data-name="Слой 2" xmlns="http://www.w3.org/2000/svg" viewBox="0 0 8.15 9.72">
  <defs>
    <style>
      .cls-1 {
        fill: #c5e4fd;
      }
    </style>
  </defs>
  <g id="_Слой_1-2" data-name="Слой 1">
    <path class="cls-1" d="m7.37,3.4c0,2-1.19,4.03-3.19,5.41l-.1.07-.1-.07C1.97,7.42.78,5.4.78,3.4v-.87l.15-.02c1.13-.18,2.18-.69,3.02-1.46l.12-.11.12.11c.84.78,1.89,1.29,3.02,1.46l.15.02v.87Zm.37-1.62c-1.27-.1-2.46-.68-3.32-1.62-.16-.19-.45-.21-.63-.05-.02.02-.03.03-.05.05C2.87,1.1,1.69,1.68.41,1.78.18,1.8,0,2,0,2.24v1.16C0,5.92,1.6,8.22,3.83,9.65c.15.1.35.1.5,0,2.22-1.43,3.83-3.73,3.83-6.25v-1.16c0-.24-.18-.44-.41-.46Z"/>
    <path class="cls-1" d="m3.77,6.1l-1.21-1.21.41-.41.8.8,1.64-1.64.41.41-2.05,2.05Zm.31-4.68c-.83.73-1.85,1.22-2.94,1.42v.57c0,1.85,1.1,3.73,2.94,5.04,1.84-1.31,2.94-3.19,2.94-5.04v-.57c-1.09-.2-2.1-.69-2.94-1.42Z"/>
  </g>
</svg>