<?xml version="1.0" encoding="UTF-8"?>
<svg id="_Слой_2" data-name="Слой 2" xmlns="http://www.w3.org/2000/svg" viewBox="0 0 6.96 9.36">
  <defs>
    <style>
      .cls-1 {
        fill: #c5e4fd;
      }
    </style>
  </defs>
  <g id="_Слой_1-2" data-name="Слой 1">
    <path class="cls-1" d="m.24,8.28v-1.98c.54.43,1.92.66,3.24.66s2.7-.23,3.24-.66v1.98c0,.4-1.39.84-3.24.84s-3.24-.44-3.24-.84ZM.24,3.89c.54.44,1.92.67,3.24.67s2.7-.23,3.24-.67v1.99c0,.4-1.39.84-3.24.84S.24,6.28.24,5.88v-1.99ZM.24,1.49c.54.44,1.92.66,3.24.66s2.7-.23,3.24-.66v1.98c0,.4-1.39.84-3.24.84S.24,3.88.24,3.48v-1.98ZM3.48.24c1.85,0,3.24.44,3.24.84s-1.39.84-3.24.84S.24,1.48.24,1.08,1.63.24,3.48.24Zm3.48,8.04V1.08c0-.7-1.79-1.08-3.48-1.08S0,.38,0,1.08v7.2c0,.7,1.79,1.08,3.48,1.08s3.48-.38,3.48-1.08Z"/>
    <circle class="cls-1" cx="5.88" cy="3.12" r=".24"/>
    <circle class="cls-1" cx="5.88" cy="5.52" r=".24"/>
    <circle class="cls-1" cx="5.88" cy="7.92" r=".24"/>
  </g>
</svg>