<?xml version="1.0" encoding="UTF-8"?>
<svg id="_Слой_2" data-name="Слой 2" xmlns="http://www.w3.org/2000/svg" viewBox="0 0 8.64 8.88">
  <defs>
    <style>
      .cls-1 {
        fill: #1d2c3b;
      }
    </style>
  </defs>
  <g id="_Слой_1-2" data-name="Слой 1">
    <rect class="cls-1" x="3.96" y="6.72" width=".72" height=".96"/>
    <rect class="cls-1" x="3.96" y="8.16" width=".72" height=".72"/>
    <rect class="cls-1" x="5.16" y="8.16" width="3.48" height=".72"/>
    <rect class="cls-1" y="8.16" width="3.48" height=".72"/>
    <path class="cls-1" d="m4.08,6c-.13,0-.24-.11-.24-.24s.11-.24.24-.24.24.11.24.24-.11.24-.24.24Zm-1.2,0c-.13,0-.24-.11-.24-.24s.11-.24.24-.24.24.11.24.24-.11.24-.24.24Zm-1.2,0c-.13,0-.24-.11-.24-.24s.11-.24.24-.24.24.11.24.24-.11.24-.24.24Zm6.05-1.2H.91c-.24,0-.43.19-.43.43v1.06c0,.24.19.43.43.43h6.82c.24,0,.43-.19.43-.43v-1.06c0-.24-.19-.43-.43-.43Z"/>
    <path class="cls-1" d="m4.08,3.6c-.13,0-.24-.11-.24-.24s.11-.24.24-.24.24.11.24.24-.11.24-.24.24Zm-1.2,0c-.13,0-.24-.11-.24-.24s.11-.24.24-.24.24.11.24.24-.11.24-.24.24Zm-1.2,0c-.13,0-.24-.11-.24-.24s.11-.24.24-.24.24.11.24.24-.11.24-.24.24Zm6.05-1.2H.91c-.24,0-.43.19-.43.43v1.06c0,.24.19.43.43.43h6.82c.24,0,.43-.19.43-.43v-1.06c0-.24-.19-.43-.43-.43Z"/>
    <path class="cls-1" d="m4.08,1.2c-.13,0-.24-.11-.24-.24s.11-.24.24-.24.24.11.24.24-.11.24-.24.24Zm-1.2,0c-.13,0-.24-.11-.24-.24s.11-.24.24-.24.24.11.24.24-.11.24-.24.24Zm-1.2,0c-.13,0-.24-.11-.24-.24s.11-.24.24-.24.24.11.24.24-.11.24-.24.24ZM7.73,0H.91c-.24,0-.43.19-.43.43v1.06c0,.24.19.43.43.43h6.82c.24,0,.43-.19.43-.43V.43c0-.24-.19-.43-.43-.43Z"/>
  </g>
</svg>