<?xml version="1.0" encoding="UTF-8"?>
<svg id="_Слой_2" data-name="Слой 2" xmlns="http://www.w3.org/2000/svg" xmlns:xlink="http://www.w3.org/1999/xlink" viewBox="0 0 61.44 61.44">
  <defs>
    <style>
      .cls-1 {
        fill: #78ebf4;
      }

      .cls-2 {
        clip-path: url(#clippath);
      }

      .cls-3 {
        fill: none;
      }
    </style>
    <clipPath id="clippath">
      <rect class="cls-3" width="61.44" height="61.44"/>
    </clipPath>
  </defs>
  <g id="_Слой_1-2" data-name="Слой 1">
    <path class="cls-1" d="m27.1,22.86c-4.43,0-8.04,3.6-8.04,8.04s3.6,8.04,8.04,8.04,8.04-3.6,8.04-8.04-3.6-8.04-8.04-8.04Zm0,17.99c-5.49,0-9.96-4.47-9.96-9.96s4.47-9.96,9.96-9.96,9.96,4.47,9.96,9.96-4.47,9.96-9.96,9.96Z"/>
    <path class="cls-1" d="m27.1,55.83h-3.27c-.53,0-.96-.43-.96-.96v-6.87c-1.72-.42-3.36-1.1-4.88-2.02l-4.86,4.86c-.18.18-.42.28-.68.28s-.5-.1-.68-.28l-4.62-4.62c-.37-.38-.37-.98,0-1.36l4.86-4.86c-.92-1.52-1.6-3.15-2.02-4.88H3.12c-.53,0-.96-.43-.96-.96v-6.53c0-.53.43-.96.96-.96h6.87c.42-1.72,1.1-3.36,2.02-4.88l-4.86-4.86c-.37-.37-.37-.98,0-1.36l4.62-4.62c.18-.18.42-.28.68-.28s.5.1.68.28l4.86,4.86c1.52-.92,3.16-1.6,4.88-2.02v-6.87c0-.53.43-.96.96-.96h3.27c.53,0,.96.43.96.96s-.43.96-.96.96h-2.31v6.68c0,.46-.32.85-.77.94-2.02.4-3.91,1.19-5.63,2.33-.38.25-.89.2-1.21-.12l-4.72-4.72-3.26,3.26,4.72,4.72c.32.32.37.83.12,1.21-1.15,1.72-1.93,3.61-2.33,5.63-.09.45-.48.77-.94.77h-6.68v4.61h6.68c.46,0,.85.32.94.77.4,2.02,1.19,3.91,2.33,5.63.25.38.2.89-.12,1.21l-4.72,4.72,3.26,3.26,4.72-4.72c.32-.32.83-.38,1.21-.12,1.72,1.15,3.61,1.93,5.63,2.33.45.09.77.48.77.94v6.68h2.31c.53,0,.96.43.96.96s-.43.96-.96.96h0Z"/>
    <path class="cls-1" d="m27.1,55.83c-.53,0-.96-.43-.96-.96V6.92c0-.53.43-.96.96-.96s.96.43.96.96v47.95c0,.53-.43.96-.96.96Z"/>
    <path class="cls-1" d="m47.37,25.72h-13.69c-.53,0-.96-.43-.96-.96s.43-.96.96-.96h12.73v-8.61c0-.53.43-.96.96-.96s.96.43.96.96v9.57c0,.53-.43.96-.96.96Z"/>
    <path class="cls-1" d="m49.48,31.85h-13.39c-.53,0-.96-.43-.96-.96s.43-.96.96-.96h13.39c.53,0,.96.43.96.96s-.43.96-.96.96Z"/>
    <path class="cls-1" d="m47.37,47.21c-.53,0-.96-.43-.96-.96v-8.27h-12.73c-.53,0-.96-.43-.96-.96s.43-.96.96-.96h13.69c.53,0,.96.43.96.96v9.23c0,.53-.43.96-.96.96Z"/>
    <path class="cls-1" d="m47.37,47.21c-1.91,0-3.46,1.55-3.46,3.46s1.55,3.46,3.46,3.46,3.46-1.55,3.46-3.46-1.55-3.46-3.46-3.46Zm0,8.84c-2.97,0-5.38-2.41-5.38-5.38s2.41-5.38,5.38-5.38,5.38,2.41,5.38,5.38-2.41,5.38-5.38,5.38Z"/>
    <path class="cls-1" d="m53.9,27.43c-1.91,0-3.46,1.55-3.46,3.46s1.55,3.46,3.46,3.46,3.46-1.55,3.46-3.46-1.55-3.46-3.46-3.46Zm0,8.84c-2.97,0-5.38-2.41-5.38-5.38s2.41-5.38,5.38-5.38,5.38,2.41,5.38,5.38-2.41,5.38-5.38,5.38Z"/>
    <path class="cls-1" d="m47.37,7.31c-1.91,0-3.46,1.55-3.46,3.46s1.55,3.46,3.46,3.46,3.46-1.55,3.46-3.46-1.55-3.46-3.46-3.46Zm0,8.84c-2.97,0-5.38-2.41-5.38-5.38s2.41-5.38,5.38-5.38,5.38,2.41,5.38,5.38-2.41,5.38-5.38,5.38Z"/>
    <g class="cls-2">
      <path class="cls-1" d="m-10865.41,9674.23H11540.5V-9863.81H-10865.41V9674.23Zm22406.88,1.92H-10866.38c-.54,0-.96-.43-.96-.96V-9864.77c0-.53.42-.96.96-.96H11541.46c.54,0,.96.43.96.96V9675.19c0,.53-.42.96-.96.96Z"/>
    </g>
  </g>
</svg>