<?xml version="1.0" encoding="UTF-8"?>
<svg id="_Слой_2" data-name="Слой 2" xmlns="http://www.w3.org/2000/svg" viewBox="0 0 7.99 9.48">
  <defs>
    <style>
      .cls-1 {
        fill: #78ebf4;
      }
    </style>
  </defs>
  <g id="_Слой_1-2" data-name="Слой 1">
    <path class="cls-1" d="m5.53,3.21h-.59c-.06,0-.11.05-.11.11s.05.11.11.11h.59c.06,0,.11-.05.11-.11s-.05-.11-.11-.11Z"/>
    <path class="cls-1" d="m5.24,3.8c.12,0,.22-.1.23-.22h-.47c.01.12.12.22.24.22Z"/>
    <path class="cls-1" d="m7.75,4.15s-.02.05-.05.05h-3.02l-.07.08-.68.75v-.83h-1.15s-.05-.02-.05-.05h0V.29s.02-.05.05-.05h4.93s.03,0,.04.02c.01.01.02.03.01.04v3.85Zm.25-3.85c0-.16-.12-.29-.28-.3H2.77c-.16,0-.29.13-.29.29v3.86c0,.16.13.29.29.29h.91v1.21l1.1-1.21h2.92c.16,0,.29-.13.29-.29h0s0-3.85,0-3.85Z"/>
    <path class="cls-1" d="m2.04,5.28c.44,0,.8.36.8.8s-.36.8-.8.8-.8-.36-.8-.8h0c0-.44.36-.8.8-.8Zm0,1.84c.57,0,1.04-.47,1.04-1.04s-.47-1.04-1.04-1.04c-.58,0-1.04.47-1.04,1.04s.46,1.04,1.04,1.04Z"/>
    <path class="cls-1" d="m5.94,2.1c0,.08-.02.16-.05.24-.03.07-.07.14-.12.2h0s0,0,0,0c-.08.1-.15.2-.21.31h-.64c-.06-.11-.13-.21-.2-.31h0s0,0,0,0c-.05-.06-.09-.12-.12-.19-.03-.08-.05-.16-.05-.24v-.03c.01-.38.32-.67.7-.67h.03c.37.02.66.31.68.67v.03Zm-.67-.9h-.03c-.49,0-.89.39-.9.87v.04c0,.11.03.21.07.31.04.09.09.18.16.26.09.12.17.25.24.38,0,0,0,0,0,0s0,0,0,0h.88s.01,0,.01,0c.06-.13.14-.26.24-.38.07-.07.12-.16.16-.26.04-.1.06-.21.06-.31v-.03c-.02-.47-.4-.85-.87-.87Z"/>
    <path class="cls-1" d="m3.85,8.04c-.29-.22-.62-.38-.98-.46-.27-.08-.55-.12-.83-.13h0c-.28,0-.55.04-.81.13-.35.1-.69.25-.98.47-.15.12-.24.29-.24.48v.97h.24v-.97c0-.11.05-.22.14-.29.27-.2.58-.34.91-.43.24-.08.49-.12.74-.12h0c.26,0,.52.05.77.12.33.07.64.22.9.43.09.07.15.17.14.29v.96h.24v-.96c0-.19-.09-.37-.24-.48Z"/>
    <path class="cls-1" d="m5.24,1.01c.06,0,.11-.05.11-.11v-.24c0-.06-.05-.11-.11-.11s-.11.05-.11.11v.24c0,.06.05.11.11.11Z"/>
    <path class="cls-1" d="m4.35,1.27s.11.05.15,0c.04-.04.05-.11,0-.15,0,0,0,0,0,0l-.17-.17s-.11-.04-.15,0c-.04.04-.04.11,0,.15l.17.17Z"/>
    <path class="cls-1" d="m4.08,1.81h-.24c-.06,0-.11.05-.11.11s.05.11.11.11h.24c.06,0,.11-.05.11-.11s-.05-.11-.11-.11Z"/>
    <path class="cls-1" d="m6.06,1.3s.06-.01.08-.03l.17-.17s.04-.11,0-.15c-.04-.04-.11-.04-.15,0l-.17.17s-.04.11,0,.15c.02.02.05.03.08.03Z"/>
    <path class="cls-1" d="m6.65,1.81h-.24c-.06,0-.11.05-.11.11s.05.11.11.11h.24c.06,0,.11-.05.11-.11s-.05-.11-.11-.11Z"/>
  </g>
</svg>