<?xml version="1.0" encoding="UTF-8"?>
<svg id="_Слой_2" data-name="Слой 2" xmlns="http://www.w3.org/2000/svg" xmlns:xlink="http://www.w3.org/1999/xlink" viewBox="0 0 72.36 79.2">
  <defs>
    <style>
      .cls-1 {
        fill: #78ebf4;
      }

      .cls-2 {
        clip-path: url(#clippath);
      }

      .cls-3 {
        fill: none;
      }
    </style>
    <clipPath id="clippath">
      <rect class="cls-3" width="72.36" height="79.2"/>
    </clipPath>
  </defs>
  <g id="_Слой_1-2" data-name="Слой 1">
    <path class="cls-1" d="m63.08,33.86c0,.47-.38.86-.86.86h-10.68c-.47,0-.86-.38-.86-.86v-10.68c0-.47.38-.86.86-.86h10.68c.47,0,.86.38.86.86v10.68Zm-49.11,8.08c.47,0,.86.38.86.86v10.68c0,.47-.39.86-.86.86H3.29c-.47,0-.86-.38-.86-.86v-10.68c0-.47.39-.86.86-.86h10.68Zm.86-28c0,.47-.39.86-.86.86H3.29c-.47,0-.86-.39-.86-.86V3.26c0-.47.39-.86.86-.86h10.68c.47,0,.86.38.86.86v10.68Zm47.39,5.98h-4.14v-10.46c0-1.22-.99-2.22-2.22-2.22H17.23v-3.99c0-1.8-1.46-3.26-3.26-3.26H3.29C1.5,0,.04,1.46.04,3.26v10.68c0,1.79,1.46,3.26,3.26,3.26h10.68c1.8,0,3.26-1.46,3.26-3.26v-4.3h38.45v10.28h-4.14c-1.8,0-3.26,1.46-3.26,3.26v4.14H9.65c-1.22,0-2.22.99-2.22,2.22v10.01H3.29c-1.8,0-3.26,1.46-3.26,3.26v10.68c0,1.79,1.46,3.26,3.26,3.26h10.68c1.8,0,3.26-1.46,3.26-3.26v-4.14h22.39c.66,0,1.2-.54,1.2-1.2s-.54-1.2-1.2-1.2h-22.39v-4.14c0-1.8-1.46-3.26-3.26-3.26h-4.14v-9.82h38.45v4.14c0,1.79,1.46,3.26,3.26,3.26h10.68c1.8,0,3.26-1.46,3.26-3.26v-10.68c0-1.79-1.46-3.26-3.26-3.26Z"/>
    <path class="cls-1" d="m7.09,12.48l-2.73-2.73c-.47-.47-.47-1.23,0-1.7.47-.47,1.23-.47,1.7,0l1.03,1.03,3.84-3.84c.47-.47,1.23-.47,1.7,0,.47.47.47,1.23,0,1.7l-5.54,5.54Z"/>
    <path class="cls-1" d="m55.48,32.56l-2.73-2.73c-.47-.47-.47-1.23,0-1.7.47-.47,1.23-.47,1.7,0l1.03,1.03,3.84-3.84c.47-.47,1.23-.47,1.69,0,.47.47.47,1.23,0,1.7l-5.54,5.54Z"/>
    <path class="cls-1" d="m7.23,52.18l-2.73-2.73c-.47-.47-.47-1.23,0-1.7.47-.47,1.23-.47,1.7,0l1.03,1.03,3.84-3.84c.47-.47,1.23-.47,1.7,0,.47.47.47,1.23,0,1.7l-5.54,5.54Z"/>
    <path class="cls-1" d="m56.89,57.56c-4.31,0-7.81-3.5-7.81-7.81s3.5-7.81,7.81-7.81,7.81,3.5,7.81,7.81-3.5,7.81-7.81,7.81Zm0-18.02c-5.63,0-10.21,4.58-10.21,10.21s4.58,10.21,10.21,10.21,10.21-4.58,10.21-10.21-4.58-10.21-10.21-10.21Z"/>
    <g class="cls-2">
      <path class="cls-1" d="m69.92,76.44c0,.2-.16.36-.36.36h-25.36c-.2,0-.36-.16-.36-.36v-.22c0-7.19,5.85-13.04,13.04-13.04s13.04,5.85,13.04,13.04v.22Zm-13.04-15.66c-8.51,0-15.44,6.92-15.44,15.44v.22c0,1.52,1.24,2.76,2.76,2.76h25.36c1.52,0,2.76-1.24,2.76-2.76v-.22c0-8.51-6.93-15.44-15.44-15.44Z"/>
    </g>
  </g>
</svg>