<?xml version="1.0" encoding="UTF-8"?>
<svg id="_Слой_2" data-name="Слой 2" xmlns="http://www.w3.org/2000/svg" viewBox="0 0 8.57 9.6">
  <defs>
    <style>
      .cls-1 {
        fill: #78ebf4;
      }
    </style>
  </defs>
  <g id="_Слой_1-2" data-name="Слой 1">
    <path class="cls-1" d="m5.1,4.99c-.6,0-1.08.48-1.08,1.08s.48,1.08,1.08,1.08,1.08-.48,1.08-1.08-.48-1.08-1.08-1.08Zm0,.24c.46,0,.84.38.84.84s-.38.84-.84.84-.84-.38-.84-.84c0-.46.38-.84.84-.84"/>
    <path class="cls-1" d="m7.26,9.6h-.24v-1.02c0-.12-.05-.24-.15-.31-.28-.22-.61-.38-.96-.46-.26-.08-.54-.12-.82-.13-.27,0-.54.05-.8.13-.35.1-.67.25-.97.46-.1.07-.15.19-.15.31v1.02h-.24v-1.02c0-.2.09-.38.25-.5.31-.23.67-.39,1.04-.5.28-.09.57-.14.87-.14.3,0,.59.06.87.14.38.09.73.26,1.04.5.16.12.26.31.25.51v1.02Z"/>
    <path class="cls-1" d="m2.16,3.31c-.6,0-1.08.48-1.08,1.08s.48,1.08,1.08,1.08,1.08-.48,1.08-1.08-.48-1.08-1.08-1.08Zm0,.24c.46,0,.84.38.84.84s-.38.84-.84.84-.84-.38-.84-.84c0-.46.38-.84.84-.84"/>
    <path class="cls-1" d="m3.79,6.2c-.23-.14-.49-.24-.75-.3-.28-.09-.58-.13-.88-.14-.3,0-.59.05-.87.14-.37.1-.72.27-1.04.5-.16.12-.25.31-.25.5v1.02h.24v-1.02c0-.12.06-.24.15-.31.29-.21.62-.37.97-.46.26-.09.53-.13.8-.13.28,0,.55.05.82.13.32.07.62.22.89.41-.04-.11-.07-.22-.08-.34Z"/>
    <path class="cls-1" d="m8.32,0H3.79c-.14,0-.25.11-.25.25v3.09c0,.14.11.25.25.26h.72v1.01l1-1.01h2.82c.14,0,.25-.11.25-.25V.25c0-.14-.11-.25-.25-.25Zm0,.24s.01,0,.01.01v3.09s0,.01-.01.01h-2.92l-.07.07-.58.59v-.67h-.96s-.01,0-.01-.02V.25s0-.01,0-.01h4.53"/>
    <path class="cls-1" d="m6.04.59h-.01s-.06,0-.08,0c-.38.02-.67.34-.66.72v.02h.24v-.02s0-.04,0-.06c.02-.24.22-.43.47-.43.01,0,.03,0,.04,0h.02c.28,0,.5.23.49.51,0,.28-.21.46-.51.46h-.12v.59h.24v-.36h.04c.35-.05.61-.35.59-.7v-.02c0-.41-.34-.73-.74-.73Z"/>
    <path class="cls-1" d="m6.04,3c-.11,0-.2-.09-.2-.2s.09-.2.2-.2.19.09.2.19c0,.11-.08.2-.19.2h0Z"/>
  </g>
</svg>