<?xml version="1.0" encoding="UTF-8"?>
<svg id="_Слой_2" data-name="Слой 2" xmlns="http://www.w3.org/2000/svg" viewBox="0 0 7.67 8.76">
  <defs>
    <style>
      .cls-1 {
        fill: #78ebf4;
      }
    </style>
  </defs>
  <g id="_Слой_1-2" data-name="Слой 1">
    <path class="cls-1" d="m3.84,4.56c.13,0,.26-.01.39-.04-.07-.06-.14-.13-.18-.22-.96.12-1.83-.56-1.95-1.52-.12-.96.56-1.83,1.52-1.95.96-.12,1.83.56,1.95,1.52.03.28,0,.57-.1.83l.28-.09c.28-1.05-.34-2.14-1.39-2.43s-2.14.34-2.43,1.39c-.29,1.05.34,2.14,1.39,2.43.17.05.34.07.52.07Z"/>
    <path class="cls-1" d="m7.26,6.07c-.55-.42-1.18-.73-1.85-.9-.51-.16-1.04-.24-1.57-.24-.53,0-1.06.09-1.57.24-.66.19-1.29.5-1.85.9-.26.2-.41.51-.42.84v1.86h.24v-1.86c0-.25.12-.49.32-.65.54-.39,1.14-.68,1.77-.86.49-.14.99-.22,1.5-.23.51,0,1.01.08,1.5.23.64.16,1.25.46,1.77.86.2.16.32.39.33.65v1.86h.24v-1.86c0-.33-.16-.63-.41-.84Z"/>
    <path class="cls-1" d="m6.6,2.16v.96c0,.07-.05.12-.12.12h-.12v-1.2h.12c.07,0,.12.05.12.12ZM2.12.96C3.05.01,4.57,0,5.51.93c.28.27.48.6.6.97v1.46l-1.16.39c-.12-.16-.35-.18-.5-.06-.16.12-.18.35-.06.5.12.16.35.18.5.06.09-.07.14-.17.14-.28l1.47-.49c.19-.01.33-.17.33-.36v-.96c0-.2-.16-.36-.36-.36h-.14C5.87.42,4.38-.33,3,.14c-.4.13-.76.36-1.05.66-.05.05-.05.12,0,.17.05.05.12.05.17,0,0,0,0,0,0,0Z"/>
  </g>
</svg>