<?xml version="1.0" encoding="UTF-8"?>
<svg id="_Слой_2" data-name="Слой 2" xmlns="http://www.w3.org/2000/svg" viewBox="0 0 7.56 7.8">
  <defs>
    <style>
      .cls-1 {
        fill: #78ebf4;
      }
    </style>
  </defs>
  <g id="_Слой_1-2" data-name="Слой 1">
    <path class="cls-1" d="m1.89,3.08s.12.05.17,0l.7-.69.7.69s.12.05.17,0c.04-.05.04-.12,0-.17l-.7-.7.7-.7s.04-.12,0-.17c-.05-.04-.12-.04-.17,0l-.7.7-.7-.7s-.12-.04-.17,0c-.05.05-.05.12,0,.17l.69.7-.69.7s-.05.12,0,.17Z"/>
    <path class="cls-1" d="m6.26,4.72s-.12-.05-.17,0l-.7.7-.69-.7s-.12-.04-.17,0c-.05.05-.05.12,0,.17l.69.7-.69.69s-.05.12,0,.17c.05.05.12.05.17,0,0,0,0,0,0,0l.69-.7.7.7s.12.04.17,0c.04-.05.04-.12,0-.17l-.7-.69.7-.7s.05-.12,0-.17Z"/>
    <path class="cls-1" d="m2.76,4.8c.4,0,.72.32.72.72s-.32.72-.72.72-.72-.32-.72-.72c0-.4.32-.72.72-.72Zm.03,1.68c.5-.02.9-.41.93-.91.03-.5-.34-.94-.84-1.01v-.25c0-.2.16-.36.36-.36h1.68c.33,0,.6-.27.6-.6v-1.63s0,0,0,0h0s.63.63.63.63c.05.05.12.04.17,0,.05-.05.05-.12,0-.17l-.84-.84s0,0,0,0c0-.01-.02-.02-.03-.02,0,0,0,0,0,0-.01,0-.02,0-.04,0,0,0,0,0-.01,0-.01,0-.02,0-.03,0,0,0,0,0-.01,0-.01,0-.03.01-.04.02l-.84.84s-.05.12,0,.17c.05.04.12.04.17,0l.63-.63s0,0,0,0h0v1.63c0,.2-.16.36-.36.36h-1.68c-.33,0-.6.27-.6.6v.25c-.53.07-.9.55-.83,1.08.06.49.48.85.98.84Z"/>
    <path class="cls-1" d="m.84.24h6.48v7.32H.84V.24ZM.29,5.76h.31v.96h-.31c-.16,0-.29.13-.29.29v.03c0,.15.13.28.28.28h.08c.07,0,.12-.05.12-.12s-.05-.12-.12-.12h-.08s-.04-.02-.04-.04v-.03s.02-.05.05-.05h.31v.72c0,.07.05.12.12.12h6.72c.07,0,.12-.05.12-.12V.12c0-.07-.05-.12-.12-.12H.72c-.07,0-.12.05-.12.12v.6h-.31c-.16,0-.29.13-.29.29v.02c0,.15.13.28.28.28h.08c.07,0,.12-.05.12-.12s-.05-.12-.12-.12h-.08s-.04-.02-.04-.04v-.02s.02-.05.05-.05h.31v.96h-.31c-.16,0-.29.13-.29.29v.03c0,.16.13.28.28.28h.08c.07,0,.12-.05.12-.12s-.05-.12-.12-.12h-.08s-.04-.02-.04-.04v-.03s.02-.05.05-.05h.31v.96h-.31c-.16,0-.29.13-.29.29v.02c0,.16.13.28.28.28h.08c.07,0,.12-.05.12-.12s-.05-.12-.12-.12h-.08s-.04-.02-.04-.04v-.02s.02-.05.05-.05h.31v.96h-.31c-.16,0-.29.13-.29.29v.03c0,.16.13.28.28.28h.08c.07,0,.12-.05.12-.12s-.05-.12-.12-.12h-.08s-.04-.02-.04-.04v-.03s.02-.05.05-.05h.31v.96h-.31c-.16,0-.29.13-.29.29v.03c0,.15.13.28.28.28h.08c.07,0,.12-.05.12-.12s-.05-.12-.12-.12h-.08s-.04-.02-.04-.04v-.03s.02-.05.05-.05Z"/>
  </g>
</svg>