<?xml version="1.0" encoding="UTF-8"?>
<svg id="_Слой_2" data-name="Слой 2" xmlns="http://www.w3.org/2000/svg" viewBox="0 0 16.66 3.11">
  <defs>
    <style>
      .cls-1 {
        fill: #fff;
      }
    </style>
  </defs>
  <g id="_Слой_1-2" data-name="Слой 1">
    <polygon class="cls-1" points="6.09 0 6.09 1.02 5.6 0 5.2 0 5.2 1.3 5.46 1.3 5.46 .22 5.96 1.3 6.35 1.3 6.35 0 6.09 0"/>
    <path class="cls-1" d="m6.95,1.15c.12,0,.2-.07.2-.31,0-.12-.02-.29-.2-.29-.19,0-.2.22-.2.31,0,.2.07.29.2.29m0-.78c.24-.02.45.16.47.41,0,.02,0,.05,0,.07.02.25-.16.47-.41.49-.02,0-.04,0-.07,0-.24.01-.45-.17-.47-.41,0-.02,0-.04,0-.07,0-.22.11-.48.47-.48"/>
    <path class="cls-1" d="m7.56.62s0-.17-.01-.23h.25v.18c.05-.13.18-.2.31-.18v.24c-.27-.03-.29.11-.29.23v.45h-.27v-.69Z"/>
    <path class="cls-1" d="m8.86,1.29c-.07.02-.14.03-.21.03-.27,0-.27-.17-.27-.25v-.5h-.18v-.18h.18v-.18l.26-.1v.28h.22v.18h-.22v.41c0,.08,0,.13.12.13.03,0,.06,0,.09,0v.17Z"/>
    <path class="cls-1" d="m9.02,0h.26v.52c.06-.09.16-.14.26-.14.1,0,.2.04.27.12.04.08.06.16.06.25v.55h-.26v-.54c0-.05,0-.2-.15-.2-.09,0-.17.07-.17.16,0,0,0,.02,0,.03v.56s-.27,0-.27,0V0Z"/>
    <polygon class="cls-1" points="10.23 .39 10.4 1.08 10.59 .39 10.88 .39 11.07 1.08 11.25 .39 11.52 .39 11.21 1.3 10.92 1.3 10.73 .63 10.54 1.3 10.24 1.3 9.95 .39 10.23 .39"/>
    <path class="cls-1" d="m12.13.75s0-.2-.16-.2c-.12,0-.16.1-.17.2h.33Zm-.34.17c0,.06,0,.24.19.24.08,0,.15-.05.16-.13h.24c0,.07-.03.14-.09.2-.09.08-.2.11-.32.11-.12,0-.23-.03-.32-.11-.08-.1-.13-.23-.12-.36-.01-.17.06-.33.19-.43.08-.05.17-.08.26-.08.16,0,.3.08.37.22.05.11.06.22.05.33h-.61Z"/>
    <path class="cls-1" d="m12.76,1.04c0,.07.06.13.14.12,0,0,0,0,.01,0,.1,0,.14-.05.14-.11,0-.04-.02-.07-.13-.1l-.17-.05c-.13-.01-.23-.12-.23-.25,0-.18.16-.29.4-.29.19,0,.34.09.35.27h-.24c0-.06-.05-.11-.11-.11,0,0,0,0-.01,0-.07,0-.13.03-.13.09,0,.06.05.07.12.1l.16.04c.16.05.24.13.24.25,0,.16-.14.31-.42.31-.11,0-.23-.03-.31-.11-.04-.05-.07-.11-.07-.18h.25Z"/>
    <path class="cls-1" d="m14.01,1.29c-.07.02-.14.03-.21.03-.27,0-.27-.17-.27-.25v-.5h-.17v-.18h.17v-.18l.27-.1v.28h.22v.18h-.22v.41c0,.08,0,.13.12.13.03,0,.06,0,.09,0v.17Z"/>
    <path class="cls-1" d="m14.69.75s0-.2-.16-.2c-.12,0-.17.1-.17.2h.33Zm-.34.17c0,.06,0,.24.18.24.08,0,.15-.05.16-.13h.24c0,.07-.04.14-.09.2-.09.08-.2.11-.32.11-.12,0-.23-.03-.32-.11-.08-.1-.13-.23-.12-.36-.01-.17.06-.33.19-.43.08-.05.16-.08.26-.08.16,0,.3.08.37.22.05.11.06.22.05.33h-.61Z"/>
    <path class="cls-1" d="m15.12.62s0-.17-.01-.23h.25v.18c.05-.13.18-.2.31-.18v.24c-.27-.03-.29.11-.29.23v.45h-.27v-.69Z"/>
    <path class="cls-1" d="m15.8.55s0-.1,0-.17h.26v.14c.07-.11.18-.17.3-.16.12,0,.23.06.28.17.02.09.03.18.02.27v.49h-.27v-.56s0-.07-.01-.1c-.02-.05-.08-.08-.13-.08-.06,0-.11.03-.14.07-.02.04-.03.09-.03.14v.53h-.27v-.75Z"/>
    <polygon class="cls-1" points="5.2 3.08 5.2 1.78 5.38 1.78 5.87 2.92 6.37 1.78 6.55 1.78 6.55 3.08 6.43 3.08 6.43 1.88 6.43 1.88 5.93 3.08 5.82 3.08 5.32 1.89 5.31 1.89 5.31 3.08 5.2 3.08"/>
    <path class="cls-1" d="m7.43,2.56c0-.16-.11-.3-.27-.31h-.02c-.16,0-.29.14-.28.31h.58Zm-.58.1c0,.19.09.35.31.35.13,0,.24-.09.26-.22h.11c-.03.19-.21.33-.41.31-.27,0-.4-.23-.4-.48s.13-.48.4-.48c.3,0,.41.22.41.5h-.7Z"/>
    <path class="cls-1" d="m8.09,2.25c-.21,0-.27.19-.27.36s.05.4.26.4c.24,0,.31-.2.31-.4,0-.18-.08-.36-.29-.36m.3.7h0c-.07.1-.18.16-.31.16-.27,0-.37-.25-.37-.48s.1-.47.37-.47c.12,0,.24.06.31.16h0v-.53h.11v1.1c0,.07,0,.14,0,.2h-.11v-.13Z"/>
    <path class="cls-1" d="m8.86,3.08h-.11v-.9h.11v.9Zm0-1.16h-.13v-.13h.13v.13Z"/>
    <path class="cls-1" d="m9.7,2.46c0-.14-.1-.2-.25-.2-.16,0-.27.17-.27.38s.1.38.27.38c.13.01.24-.08.25-.21h0s.12,0,.12,0c0,.18-.15.32-.33.31,0,0-.01,0-.02,0-.27,0-.4-.23-.4-.48s.14-.48.4-.48c.18-.01.33.12.34.29,0,0,0,0,0,.01h-.12Z"/>
    <path class="cls-1" d="m10.12,3.08h-.11v-.9h.11v.9Zm0-1.16h-.13v-.13h.13v.13Z"/>
    <path class="cls-1" d="m10.5,3.08h-.11v-.7c0-.07,0-.14,0-.2h.11v.13s0,0,0,0c.05-.1.16-.17.28-.16.3,0,.32.26.32.37v.56h-.11v-.58c.01-.12-.07-.23-.2-.25-.01,0-.03,0-.04,0-.18,0-.26.15-.26.31v.52Z"/>
    <path class="cls-1" d="m11.98,2.56c.01-.16-.11-.3-.27-.31h-.02c-.16,0-.29.14-.28.31h.58Zm-.58.1c0,.19.09.35.31.35.13,0,.24-.09.26-.22h.11c-.03.19-.21.33-.41.31-.27,0-.4-.23-.4-.48s.14-.48.4-.48c.3,0,.41.22.41.5h-.7Z"/>
    <polygon class="cls-1" points=".34 .47 1.75 3.09 2.53 3.09 .9 0 0 0 0 3.09 .34 3.09 .34 .47"/>
    <polygon class="cls-1" points="3.65 3.09 4.34 3.09 4.34 0 3.65 0 2.83 1.47 2.06 0 1.26 0 2.62 2.56 3.65 .7 3.65 3.09"/>
    <path class="cls-1" d="m12.26,2.19c-.07,0-.13-.06-.13-.12,0-.07.06-.13.12-.13s.13.06.13.13-.06.13-.13.13m0-.27c-.08,0-.15.07-.15.15,0,.08.06.15.15.15s.15-.06.15-.15h0c0-.08-.07-.15-.15-.15"/>
    <path class="cls-1" d="m12.27,2.06h-.04v-.06h.05s.03.01.03.03c0,.02-.02.03-.03.03m.05.05s0-.03-.02-.04c.02,0,.03-.03.03-.04,0-.02-.02-.04-.04-.05h-.08v.17h.02v-.07h.05s.02.01.03.03c0,.02,0,.04,0,.04h.02s0-.03,0-.05"/>
  </g>
</svg>