<?xml version="1.0" encoding="UTF-8"?>
<svg id="_Слой_2" data-name="Слой 2" xmlns="http://www.w3.org/2000/svg" xmlns:xlink="http://www.w3.org/1999/xlink" viewBox="0 0 96 36.36">
  <defs>
    <style>
      .cls-1 {
        fill: #fff;
        fill-rule: evenodd;
      }

      .cls-2 {
        clip-path: url(#clippath);
      }

      .cls-3 {
        fill: none;
      }
    </style>
    <clipPath id="clippath">
      <rect class="cls-3" width="96" height="36.36"/>
    </clipPath>
  </defs>
  <g id="_Слой_1-2" data-name="Слой 1">
    <g class="cls-2">
      <path class="cls-1" d="m61.1,13.65h4.44c2.32.13,4.09,2.12,3.96,4.44-.13,2.32-2.12,4.09-4.44,3.96-2.22-.13-3.96-1.96-3.97-4.19v-4.2ZM.03,26.8h4.7v-9.36c.16-2.4,2.24-4.22,4.65-4.06,2.18.15,3.91,1.88,4.06,4.06v9.36h4.7v-9.36c0-4.99-4.05-9.04-9.04-9.06C4.09,8.39.05,12.44.03,17.44v9.36Zm31.02-13.61c2.4.09,4.27,2.1,4.18,4.5-.09,2.4-2.1,4.27-4.5,4.18-2.3-.09-4.14-1.95-4.18-4.26,0-2.39,1.93-4.33,4.32-4.34l.18-.08Zm0-4.9c5.1,0,9.24,4.14,9.24,9.24s-4.14,9.24-9.24,9.24-9.24-4.14-9.24-9.24,4.14-9.24,9.24-9.24Zm47.61,25.43l2.7-3.47c2.46,1.69,7.24,2.24,9.2-.56.7-1.2.97-2.6.77-3.97-1.33.74-2.82,1.13-4.34,1.13-5-.02-9.04-4.07-9.07-9.07v-9.42h4.72v9.42c0,2.4,1.94,4.35,4.34,4.35s4.34-1.95,4.34-4.35v-9.42h4.64v18.92c-.02,5-4.07,9.04-9.06,9.06-2.96-.05-5.85-.94-8.33-2.56l.08-.08Zm-29.6-6.92v-10.67c-.09-.82.14-1.64.64-2.3.67-.51,1.52-.75,2.36-.65h.65v-4.86h-.85c-3.01-.28-5.88,1.29-7.28,3.97-.16.32-.3.61-.42.91-.11.32-.18.65-.22.99-.06.42-.1.84-.12,1.27v11.35h5.24Zm16.27-17.85h-4.4V0h-4.62v17.85c0,4.94,4,8.95,8.94,8.95,4.94,0,8.95-4,8.95-8.94,0-4.77-3.73-8.7-8.49-8.94h-.46l.08.02Z"/>
    </g>
  </g>
</svg>