<?xml version="1.0" encoding="UTF-8"?>
<svg id="_Слой_2" data-name="Слой 2" xmlns="http://www.w3.org/2000/svg" viewBox="0 0 17.09 2.04">
  <defs>
    <style>
      .cls-1 {
        fill: #fff;
      }
    </style>
  </defs>
  <g id="_Слой_1-2" data-name="Слой 1">
    <path class="cls-1" d="m.59,2.04C.08,2.04-.02,1.74,0,1.4h.41c0,.19,0,.35.24.35.14,0,.21-.09.21-.22C.86,1.17.03,1.14.03.56.03.25.18,0,.68,0,1.08,0,1.28.18,1.25.59h-.4c0-.15-.03-.3-.19-.3-.13,0-.21.07-.21.21,0,.38.83.34.83.96,0,.51-.37.57-.69.57"/>
    <path class="cls-1" d="m1.41,2.01L1.96.03h.54l.54,1.97h-.44l-.11-.44h-.56l-.11.44m.39-1.59h0l-.19.85h.39l-.2-.85Z"/>
    <polyline class="cls-1" points="3.21 2.01 3.21 .03 3.87 .03 4.18 1.38 4.19 1.38 4.51 .03 5.16 .03 5.16 2.01 4.75 2.01 4.75 .48 4.75 .48 4.37 2.01 3.98 2.01 3.61 .48 3.61 .48 3.61 2.01"/>
    <path class="cls-1" d="m6.02,2.04c-.51,0-.61-.3-.59-.64h.41c0,.19,0,.35.24.35.14,0,.21-.09.21-.22,0-.36-.83-.38-.83-.96C5.45.25,5.6,0,6.11,0,6.51,0,6.71.18,6.68.59h-.4c0-.15-.02-.3-.19-.3-.13,0-.21.07-.21.21,0,.38.83.34.83.96,0,.51-.38.57-.69.57"/>
    <path class="cls-1" d="m8.32.03v1.4c0,.3-.17.61-.67.61-.45,0-.67-.24-.67-.61V.03h.41v1.37c0,.24.1.34.26.34.18,0,.26-.12.26-.34V.03"/>
    <polyline class="cls-1" points="8.65 2.01 8.65 .03 9.2 .03 9.73 1.4 9.73 1.4 9.73 .03 10.12 .03 10.12 2.01 9.57 2.01 9.04 .56 9.03 .56 9.03 2.01"/>
    <path class="cls-1" d="m11.36.64c0-.18-.03-.34-.25-.34-.26,0-.26.35-.26.73,0,.62.06.73.3.73.07,0,.14-.02.2-.04v-.44h-.22v-.3h.64v1c-.11.02-.39.06-.56.06-.69,0-.77-.29-.77-1.04,0-.5.03-1,.7-1,.4,0,.66.23.63.64"/>
    <path class="cls-1" d="m13.24,2.04c-.51,0-.61-.3-.59-.64h.41c0,.19,0,.35.24.35.14,0,.21-.09.21-.22,0-.36-.83-.38-.83-.96C12.68.25,12.83,0,13.33,0c.4,0,.6.18.57.59h-.4c0-.15-.02-.3-.19-.3-.13,0-.21.07-.21.21,0,.38.83.34.83.96,0,.51-.38.57-.69.57"/>
    <path class="cls-1" d="m14.22.03h.69c.54,0,.64.36.64.98,0,.3.05,1-.66,1h-.67m.41-.3h.2c.25,0,.3-.19.3-.68,0-.36,0-.68-.29-.68h-.21v1.37Z"/>
    <path class="cls-1" d="m16.4,2.04c-.51,0-.61-.3-.59-.64h.41c0,.19,0,.35.23.35.14,0,.21-.09.21-.22,0-.36-.83-.38-.83-.96C15.84.25,15.99,0,16.49,0c.4,0,.6.18.57.59h-.4c0-.15-.02-.3-.19-.3-.13,0-.21.07-.21.21,0,.38.83.34.83.96,0,.51-.38.57-.69.57"/>
  </g>
</svg>