<?xml version="1.0" encoding="UTF-8"?>
<svg id="_Слой_2" data-name="Слой 2" xmlns="http://www.w3.org/2000/svg" viewBox="0 0 94.92 23">
  <defs>
    <style>
      .cls-1 {
        fill: #fff;
      }
    </style>
  </defs>
  <g id="_Слой_1-2" data-name="Слой 1">
    <polygon class="cls-1" points="5.55 5.1 0 5.1 0 .03 17.19 .03 17.19 5.1 11.63 5.1 11.64 19.94 5.55 19.94 5.55 5.1"/>
    <path class="cls-1" d="m27.51,16.72c0,1.08.04,2.3.65,3.22l-5.61-.03c-.14-.39-.22-.97-.19-1.36h-.06c-1.17,1.33-2.87,1.7-4.65,1.69-2.78-.02-5.07-1.36-5.06-4.39.03-4.55,5.36-4.36,8.17-4.87.75-.14,1.5-.35,1.51-1.27,0-.97-.91-1.34-1.8-1.35-1.69,0-2.03.85-2.06,1.46l-5.11-.03c.19-4.05,4.02-4.7,7.44-4.68,6.89.04,6.82,2.9,6.8,5.68l-.03,5.92Zm-5.26-3.28c-.67.33-1.42.52-2.17.68-1.22.27-1.86.57-1.87,1.54,0,.67.71,1.34,1.71,1.34,1.25,0,2.23-.74,2.32-2.24v-1.33Z"/>
    <path class="cls-1" d="m28.32,0h5.5l-.04,7.14h.05c.84-1.22,2.32-1.93,3.96-1.92,4.83.03,6.11,4.15,6.09,7.53-.02,3.61-2.02,7.63-6.1,7.6-2.69-.02-3.52-1.05-4.21-1.97h-.06v1.55h-5.2V0h0Zm7.67,9.21c-1.97-.01-2.43,1.85-2.44,3.54,0,1.72.42,3.59,2.4,3.6,1.97,0,2.43-1.85,2.44-3.57,0-1.69-.43-3.56-2.4-3.57"/>
    <path class="cls-1" d="m51.53,15.17c-5.42-.03-7.84-3.63-7.81-7.63.02-4,2.49-7.54,7.9-7.51,5.42.03,7.84,3.6,7.81,7.6-.02,4-2.49,7.57-7.9,7.54m.07-11.14c-2.08-.01-2.37,2.01-2.38,3.54,0,1.53.26,3.58,2.34,3.6,2.08.01,2.37-2.04,2.38-3.57.01-1.53-.26-3.55-2.34-3.57"/>
    <path class="cls-1" d="m65.18,15.17c-5.42-.03-7.84-3.63-7.81-7.63.02-4,2.49-7.54,7.9-7.51,5.42.03,7.84,3.6,7.82,7.6-.02,4-2.49,7.57-7.9,7.54m.07-11.14c-2.08-.01-2.37,2.01-2.38,3.54-.01,1.53.25,3.58,2.34,3.6,2.08.01,2.37-2.04,2.38-3.57,0-1.53-.26-3.56-2.34-3.57"/>
    <rect class="cls-1" x="73.68" y=".04" width="5.38" height="19.9"/>
    <path class="cls-1" d="m94.38,16.67c0,1.08-.07,2.35.54,3.27h-5.53c-.14-.39-.23-1.05-.2-1.44h-.06c-1.17,1.32-2.87,1.7-4.65,1.69-2.78-.02-5.08-1.36-5.06-4.39.03-4.55,5.36-4.36,8.17-4.87.75-.14,1.5-.35,1.51-1.27,0-.97-.91-1.34-1.8-1.34-1.69,0-2.03.85-2.06,1.46l-5.11-.03c.19-4.05,4.03-4.7,7.44-4.68,6.89.04,6.82,2.9,6.8,5.68v5.92Zm-5.29-3.28c-.67.33-1.42.52-2.17.68-1.23.27-1.86.57-1.87,1.55,0,.67.71,1.34,1.71,1.34,1.25,0,2.23-.74,2.32-2.24v-1.33Z"/>
    <path class="cls-1" d="m45.78,15.17c3.9,1.75,7.96,2.52,12.37,2.54,4.64.03,8.15-.85,12.61-2.54l-.03,4.8c-3.99,1.98-8.31,3.04-12.61,3.02-4.69-.03-8.08-.99-12.37-3.02l.03-4.8Z"/>
  </g>
</svg>