<?xml version="1.0" encoding="UTF-8"?>
<svg id="_Слой_2" data-name="Слой 2" xmlns="http://www.w3.org/2000/svg" viewBox="0 0 25.31 5.26">
  <defs>
    <style>
      .cls-1 {
        fill: #fff;
      }
    </style>
  </defs>
  <g id="_Слой_1-2" data-name="Слой 1">
    <path class="cls-1" d="m7.14.09v.07h-.04c-.06,0-.17,0-.17.2v.82c0,.5-.21.74-.67.74-.51,0-.74-.2-.74-.63V.35c0-.2-.11-.2-.2-.2h-.02v-.06h.76v.07h-.02c-.09,0-.21,0-.21.2v.89c0,.38.16.57.49.57s.49-.2.49-.58V.35c0-.2-.11-.2-.19-.2h-.04v-.06h.58"/>
    <path class="cls-1" d="m7.96,1.81v.07h-.64v-.07h.03c.21,0,.24-.16.24-.34V.4c.01-.12-.07-.23-.19-.24-.02,0-.03,0-.05,0h-.03v-.07h.5l1.08,1.33V.41c0-.23-.16-.25-.23-.25h-.03v-.07h.64v.07h-.03c-.11,0-.23.03-.23.34v1.39h-.1l-1.23-1.49v1.08c0,.18.03.34.24.34"/>
    <path class="cls-1" d="m11.39,1.5l.39-1.1c.07-.19.02-.24-.14-.24h-.03v-.07h.51v.07h-.01c-.05,0-.12.02-.17.14l-.6,1.59h-.12l-.64-1.57c-.02-.1-.12-.17-.22-.15h-.02v-.07h.74v.07h-.05c-.13,0-.15.08-.12.18l.47,1.17Z"/>
    <path class="cls-1" d="m14.36.18v.79h.15c.28,0,.4-.12.4-.41.02-.2-.13-.37-.33-.39-.02,0-.03,0-.05,0-.06,0-.11,0-.17.01h0Zm.28-.08c.4,0,.6.14.6.45-.01.21-.16.39-.36.45h-.01l.44.67c.05.1.14.16.25.16v.07h-.46l-.53-.84h-.2v.56c0,.2.09.22.22.22h.03v.07h-.78v-.07h.04c.09,0,.19-.04.19-.15V.36c0-.21-.12-.21-.19-.21h-.04v-.07h.8"/>
    <path class="cls-1" d="m16.5,1.54c0-.22-.19-.3-.36-.39-.2-.11-.44-.22-.44-.55s.24-.53.59-.53c.13,0,.25.02.37.04l.03.35h-.07c-.03-.17-.13-.31-.33-.31-.17-.01-.32.12-.33.29,0,.01,0,.03,0,.04,0,.2.19.28.36.37.21.11.46.22.46.55,0,.37-.33.53-.63.53-.15,0-.29-.03-.42-.1l-.04-.39h.06c.05.25.21.39.43.39.17.02.32-.1.34-.27,0-.01,0-.03,0-.04"/>
    <path class="cls-1" d="m17.78.09v.07h-.03c-.1,0-.19.02-.19.16v1.34c0,.14.09.16.19.16h.03v.06h-.75v-.06h.03c.1,0,.2-.02.2-.16V.31c0-.14-.09-.16-.2-.16h-.03v-.07h.75"/>
    <path class="cls-1" d="m10.24.09v.07h-.03c-.1,0-.2.02-.2.16v1.34c0,.14.09.16.2.16h.03v.06h-.75v-.06h.02c.1,0,.2-.02.2-.16V.31c0-.14-.1-.16-.2-.16h-.02v-.07h.75"/>
    <path class="cls-1" d="m25.12,2.67v.47l-.08.02c-.02-.21-.07-.38-.4-.38h-.45v.88h.38c.19,0,.24-.11.26-.29h.08v.73h-.08c-.01-.17-.05-.31-.26-.31h-.39v.77c0,.22.19.22.4.22.37,0,.54-.02.64-.39.02,0,.08.02.08.02l-.1.5h-1.66v-.08h.03c.13,0,.25-.02.25-.2v-1.68c0-.17-.12-.2-.25-.2h-.03v-.08h1.57"/>
    <path class="cls-1" d="m15.71,2.78v.99h.19c.35,0,.5-.16.5-.52.02-.25-.17-.47-.42-.49-.02,0-.04,0-.06,0-.07,0-.15,0-.22.02h0Zm.34-.11c.5,0,.74.18.74.56,0,.32-.25.48-.44.56h-.01s.55.85.55.85c.06.12.18.2.31.2v.08h-.57l-.66-1.05h-.25v.7c0,.25.11.27.27.27h.04v.08h-.97v-.08h.04c.11,0,.24-.05.24-.19v-1.63c0-.26-.15-.26-.24-.26h-.04v-.08h1"/>
    <path class="cls-1" d="m18.27,2.67v.08h-.03c-.13,0-.24.02-.24.2v1.68c0,.17.12.2.24.2h.03v.08h-.94v-.08h.03c.13,0,.24-.02.24-.2v-1.68c0-.17-.12-.2-.24-.2h-.03v-.08h.94"/>
    <path class="cls-1" d="m18.16.09h1.18c.06,0,.14-.02.15-.09h.06l-.05.47h-.07c0-.11-.02-.26-.19-.26h-.36v1.38c0,.22.1.23.22.23h.04v.07h-.81v-.07h.04c.14,0,.22-.01.22-.23V.2h-.36c-.19,0-.2.08-.24.26h-.07l.04-.46h.05c.02.06.09.1.15.09"/>
    <path class="cls-1" d="m21.38.09v.07c-.09.01-.17.06-.21.14l-.45.7v.57c0,.23.08.24.22.24h.04v.06h-.81v-.06h.04c.14,0,.22-.04.22-.22v-.55l-.5-.7c-.08-.11-.13-.18-.25-.18h-.02v-.07h.74v.07h-.02c-.14,0-.15.08-.09.16l.38.59.34-.54c.08-.12.1-.22-.09-.22h-.03v-.07h.5Z"/>
    <path class="cls-1" d="m22.25.91c0,.44.19.92.62.92.39,0,.58-.27.58-.83,0-.41-.22-.85-.63-.85-.54,0-.58.58-.58.76Zm-.33.09c-.01-.51.39-.93.9-.94,0,0,.01,0,.02,0,.56,0,.95.36.95.88,0,.57-.4.98-.94.98-.49.02-.91-.36-.93-.86,0-.02,0-.04,0-.06"/>
    <path class="cls-1" d="m24.79,1.88v-.06h-.02c-.12,0-.25,0-.25-.16v-.66h.32c.18,0,.21.14.21.26h.06v-.57h-.06c0,.09-.02.21-.17.21h-.36V.19h.41c.21,0,.25.15.26.3l.06-.02V.09h-1.25v.07h.03c.1,0,.2.02.2.16v1.34c0,.14-.09.16-.2.16h-.03v.06h.79Z"/>
    <path class="cls-1" d="m5.44,3.79c0-.33.13-.64.37-.87.23-.2.52-.31.82-.3.26,0,.52.05.76.16l.02.52h-.07c-.08-.29-.22-.57-.7-.57s-.79.38-.79,1.01c0,.55.24,1.08.84,1.08.29.01.57-.12.75-.36l.06.11c-.21.26-.53.41-.87.4-.72,0-1.18-.43-1.18-1.18"/>
    <path class="cls-1" d="m10.28,3.11l-.08,1.38c-.01.31.08.33.29.34h.02v.08h-.75v-.08h.03c.26,0,.27-.15.28-.36l.09-1.42c.02-.14-.07-.27-.21-.3-.02,0-.04,0-.07,0h-.03v-.08h.64s.76,1.7.76,1.7c0,0,.71-1.68.72-1.7h.62v.08h-.01c-.25,0-.3.08-.28.4l.09,1.49c.01.17.1.19.28.2v.08h-.93v-.08c.15,0,.26-.02.26-.17v-.16l-.07-1.43-.77,1.86h-.07s-.81-1.82-.81-1.82"/>
    <path class="cls-1" d="m19.28,2.78v1.76c0,.24.1.28.34.28.57,0,.83-.49.83-.96,0-.74-.31-1.08-.94-1.08-.05,0-.17,0-.23,0Zm-.66,2.13v-.08h.03c.13,0,.25-.02.25-.2v-1.68c0-.17-.12-.2-.25-.2h-.03v-.08h1c.37,0,.68.09.9.3.22.21.34.51.33.82,0,.32-.12.62-.34.84-.23.2-.53.3-.83.29h-1.06Z"/>
    <path class="cls-1" d="m22.76,4.79v-.55c0-.12-.09-.18-.25-.18h-.03v-.08h.86v.08h-.03c-.09-.01-.17.05-.18.14,0,.01,0,.03,0,.04v.61c-.26.08-.52.12-.79.12-.74,0-1.22-.48-1.22-1.22,0-.79.63-1.15,1.22-1.15.24,0,.48.04.71.11l.04.54h-.08c-.09-.39-.27-.54-.65-.54-.52,0-.84.38-.84,1,0,.57.27,1.13.86,1.13.12,0,.25-.01.36-.06"/>
    <path class="cls-1" d="m14.1,3.69c.28.02.43.08.56.21.1.1.15.24.15.38,0,.35-.32.63-.74.63h-1.1v-.08h.04c.11,0,.24-.05.24-.19v-1.63c0-.26-.15-.26-.24-.26h-.04v-.08h.99c.47,0,.72.17.72.49,0,.36-.31.49-.59.53m-.45-.94v.9h.17c.31,0,.48-.15.48-.44,0-.32-.15-.46-.44-.46h-.2Zm0,1v.79c0,.22.07.28.3.28.27,0,.49-.24.48-.51,0,0,0-.02,0-.02,0-.34-.21-.54-.56-.54h-.22Z"/>
    <path class="cls-1" d="m8.45,3.13l.31.87h-.62l.31-.87Zm.04-.46l-.71,1.94c-.03.13-.15.22-.28.22h0v.09h.68v-.08h-.03c-.16,0-.28-.05-.2-.26l.16-.45h.71l.18.49c.05.15-.01.23-.18.23h-.02v.08h.87v-.08h0c-.12,0-.19-.06-.25-.21l-.73-1.94h-.17Z"/>
    <path class="cls-1" d="m13.49.09v.38l-.06.02c-.01-.17-.05-.3-.32-.3h-.36v.7h.3c.15,0,.19-.08.21-.23h.06v.58h-.06c-.01-.14-.04-.25-.21-.25h-.31v.61c0,.18.15.18.32.18.29,0,.43-.02.51-.31h.06s-.08.41-.08.41h-1.32v-.07h.03c.1,0,.2-.02.2-.16V.31c0-.14-.1-.16-.2-.16h-.03v-.07h1.25"/>
    <path class="cls-1" d="m4.38,1.88h-1.68V.16h1.69v1.72Zm-.3.16l-.03-.04.05-.05.04.05-.03.04s0,.2.11.27c-.03,0-.06,0-.08,0,0,.04-.02.07-.03.1-.01-.03-.02-.07-.03-.1-.03,0-.06,0-.08,0,.11-.06.11-.24.1-.27Zm-.27.31l-.03-.04.04-.05.04.05-.03.04s0,.2.11.27c-.03,0-.06,0-.08,0,0,.04-.02.07-.03.1-.01-.03-.02-.07-.03-.1-.03,0-.06,0-.08,0,.11-.06.11-.24.11-.26h0Zm-.27-.31l-.04-.04.05-.05.04.05-.04.04s0,.2.11.27c-.03,0-.06,0-.08,0,0,.04-.02.07-.03.1-.01-.03-.02-.07-.03-.1-.03,0-.06,0-.08,0,.11-.06.11-.24.11-.27Zm-.28.31l-.03-.04.04-.05.04.05-.03.04s0,.2.11.27c-.03,0-.06,0-.08,0,0,.04-.02.07-.03.1-.01-.03-.03-.07-.03-.1-.03,0-.06,0-.08,0,.11-.06.11-.24.11-.26h0Zm-.28-.31l-.03-.04.04-.05.04.05-.04.04s0,.2.11.27c-.03,0-.06,0-.08,0,0,.04-.02.07-.03.1-.01-.03-.02-.07-.03-.1-.03,0-.06,0-.08,0,.11-.06.11-.24.11-.27Zm.42,2.54s-.4.2-.71.35v-2.13h1.69c0,1.24-.64,1.59-.98,1.78Zm-2.32,0c-.34-.18-.97-.54-.98-1.78h1.69v2.13c-.31-.15-.67-.33-.71-.35ZM.38,2.03l-.03-.04.04-.05.04.05-.04.04s0,.2.11.27c-.03,0-.06,0-.08,0,0,.04-.02.07-.03.1-.01-.03-.02-.07-.03-.1-.03,0-.06,0-.08,0,.11-.06.11-.25.1-.27Zm.27.31l-.03-.04.05-.05.04.05-.03.04s0,.2.11.27c-.03,0-.06,0-.08,0,0,.04-.02.07-.03.1-.01-.03-.02-.07-.03-.1-.03,0-.06,0-.08,0,.11-.06.11-.24.1-.26h0Zm.28-.31l-.03-.04.04-.05.04.05-.04.04s0,.2.11.27c-.03,0-.06,0-.08,0,0,.04-.02.07-.03.1-.01-.03-.02-.07-.03-.1-.03,0-.06,0-.08,0,.11-.06.11-.24.11-.27Zm.27.31l-.03-.04.04-.05.04.05-.03.04s0,.2.11.27c-.03,0-.06,0-.08,0,0,.04-.02.07-.03.1-.01-.03-.02-.07-.03-.1-.03,0-.06,0-.09,0,.11-.06.11-.24.11-.26h0Zm.27-.31l-.03-.04.04-.05.04.05-.04.04s0,.2.11.27c-.03,0-.06,0-.09,0,0,.04-.02.07-.03.1-.01-.03-.02-.07-.03-.1-.03,0-.06,0-.08,0,.11-.06.11-.24.11-.27Zm1.05-1.31s-.02.07-.03.1c-.01-.03-.03-.07-.03-.1-.03,0-.06,0-.08,0,.11-.06.11-.25.11-.27l-.04-.04.05-.05.04.05-.04.04s0,.2.11.27c-.03,0-.06,0-.09,0Zm-.04.67l-.04-.04.05-.05.04.05-.04.04s0,.2.11.27c-.03,0-.06,0-.09,0,0,.03-.02.07-.03.1-.01-.03-.03-.07-.03-.1-.03,0-.06,0-.08,0,.11-.07.11-.25.11-.27Zm-.25-.47l-.04-.04.04-.05.04.05-.03.04s0,.2.11.27c-.03,0-.06,0-.08,0,0,.04-.02.07-.03.1-.01-.03-.02-.07-.03-.1-.03,0-.06,0-.08,0,.11-.07.11-.25.11-.27Zm-.26.47l-.04-.04.04-.05.04.05-.03.04s0,.2.11.27c-.03,0-.06,0-.08,0,0,.03-.02.07-.03.1-.01-.03-.02-.07-.03-.1-.03,0-.06,0-.08,0,.11-.07.11-.25.11-.27Zm0-.93l-.04-.04.04-.05.04.05-.03.04s0,.2.11.27c-.03,0-.06,0-.08,0,0,.03-.02.07-.03.1-.01-.03-.02-.07-.03-.1-.03,0-.06,0-.08,0,.11-.07.11-.25.11-.27Zm.62,2.24v.28h-.17v-.29h-.41v.29h-.16v-.29h-.14v-.74h.15s.04-.05.08-.05c.03,0,.07.02.08.05h.12s.05-.05.08-.05c.03,0,.06.02.08.05h.12s.04-.05.07-.05c.03,0,.06.02.08.04h0s.16,0,.16,0v.74h-.14Zm-.07,1.09s-.02.07-.03.1c-.01-.03-.03-.07-.03-.1-.03,0-.06,0-.08,0,.11-.07.11-.25.11-.27l-.04-.04.05-.05.04.05-.04.04s0,.2.11.27c-.03,0-.06,0-.09,0h0Zm-.04.67l-.04-.04.05-.05.04.05-.04.04s0,.2.11.27c-.03,0-.06,0-.09,0,0,.03-.02.07-.03.1-.01-.03-.03-.07-.03-.1-.03,0-.06,0-.08,0,.11-.07.11-.25.11-.27h0Zm-.25-1.4l-.04-.04.04-.05.04.05-.03.04s0,.2.11.27c-.03,0-.06,0-.08,0,0,.03-.02.07-.03.1-.01-.03-.02-.07-.03-.1-.03,0-.06,0-.08,0,.11-.07.11-.25.11-.27h0Zm-.11,1.2c.11-.07.11-.25.11-.27l-.04-.04.04-.05.04.05-.03.04s0,.2.11.27c-.03,0-.06,0-.08,0,0,.04-.02.07-.03.1-.01-.03-.02-.07-.03-.1-.03,0-.06,0-.08,0Zm-.15.2l-.04-.04.04-.05.04.05-.03.04s0,.2.11.27c-.03,0-.06,0-.08,0,0,.04-.02.07-.03.1-.01-.03-.02-.07-.03-.1-.03,0-.06,0-.08,0,.11-.07.11-.25.11-.27Zm0-.93l-.04-.04.04-.05.04.05-.03.04s0,.2.11.27c-.03,0-.06,0-.08,0,0,.03-.02.07-.03.1-.01-.03-.02-.07-.03-.1-.03,0-.06,0-.08,0,.11-.07.11-.25.11-.27ZM.1.16h1.69v1.72H.1V.16Zm-.1-.1v2.7c0,1.33.7,1.71,1.03,1.89.06.03,1.1.55,1.16.58l.05.02.04-.02c.06-.03,1.1-.55,1.16-.58.34-.18,1.03-.56,1.03-1.89V.06H0Z"/>
    <path class="cls-1" d="m.67.69s-.02-.04-.02-.06c0-.01,0-.02.02-.02,0,0,.01,0,.02,0h.02s.05.01.05.01h.02s.01-.01.01-.01c.02,0,.02,0,.02.02s-.01.04-.04.11c-.01.03-.02.05-.04.05s-.04-.02-.05-.06l-.02-.04Zm-.06-.24h0s0-.01,0-.01c0,0,.01,0,.02,0l.04.03h.02s.01.02,0,.03h0s0,.03,0,.04c0,.01,0,.03-.02.03,0,0,0,0,0,0h-.01s-.03-.05-.03-.05c-.01-.02-.02-.04-.02-.07Zm.16.03s.03-.01.05-.03l.02-.02s0,0,0,.01c0,.03-.02.06-.04.09-.02.03-.02.04-.03.04s-.01-.01-.01-.02v-.04s0-.01,0-.01c0-.01,0-.02.02-.02Zm.82.38s-.02-.09-.06-.13c-.01-.01-.03-.02-.05-.03,0,0,0,0,0,0v.02s0,.01,0,.01c0,0-.01,0-.03-.02-.02-.05-.06-.08-.11-.09,0,0-.01,0-.01,0,0,0,0,.01,0,.02v.03s.01,0,.01.01h0s-.02,0-.02-.01l-.02-.02-.02-.03s-.03-.04-.06-.05l-.03-.02s-.01,0-.02,0c0,0,0,0,0,0,0,0,0,.01,0,.02,0,0,.01.02.01.03,0,0,0,0,0,0s-.04-.02-.06-.05c-.02-.02-.03-.05-.03-.09,0-.06.04-.11.1-.11h0s.08.01.11.04l.07.04s.05.03.08.03c.01,0,.03,0,.04,0,0,0,.01,0,.02,0,0,0,0,0,0,0,0,0,0,0,0,0h-.04s-.03-.01-.04-.02c-.02-.01-.05-.02-.07-.04-.01-.01-.03-.02-.05-.03-.01,0-.02,0-.02-.01h0s.01,0,.02,0c.01.01.03.02.05.02l.06.02s.06.02.1.02c.02,0,.05-.02.05-.05,0-.02,0-.05-.02-.06,0,0,0,0,0,0,0,0,0,0,0,.01h0v.03s-.01.03-.03.03h0s-.01,0-.02,0l-.09-.03s-.1-.03-.15-.03c-.1,0-.18.07-.19.17,0,.11.08.19.28.26.2.07.22.08.22.13,0,.03-.03.06-.06.06-.01,0-.02,0-.03,0l-.1-.02c-.06-.01-.12-.02-.18-.02-.1-.01-.21.02-.29.09,0,0-.02.01-.04.01h-.04s-.03,0-.04.03l-.02.04s-.01,0-.02,0c-.01,0-.02,0-.03-.04,0-.02-.02-.03-.03-.04l-.03-.03s0,0,0-.01c0,0,0,0,0-.01,0-.01.02-.02.02-.04,0-.02,0-.02.01-.02s.01,0,.01.04c0,.01,0,.03.01.04v.04s.02,0,.03,0c.02,0,.03-.04.04-.07,0-.04,0-.04.01-.04h0v.03s.02.02.03.02c0,0,.01,0,.02.01.01,0,.02,0,.02-.04h0v-.03h0v-.02s.02,0,.02,0h.01s.02.03.03.03c.01,0,.02,0,.02-.01,0-.01,0-.02-.01-.03v-.02s-.03-.03-.04-.03h-.03s-.01,0-.01,0c0-.02,0-.04.02-.06.01-.04.02-.07.02-.11,0-.07.01-.12.02-.12s.01,0,.01.02v.06s.03-.02.04-.05c0,0,0-.02,0-.03h0s-.03-.06-.03-.06h-.03s0,0,0,0v-.05h0s0-.03,0-.03c-.02.01-.04.03-.06.04,0,.01-.02.02-.02.02s0,0,0,0c0,0,0-.02,0-.02h0s-.02-.07-.05-.09h-.01s0,.02,0,.02l-.02.02s-.01.02-.01.03h0v.02s0,.02,0,.02h-.01s-.02-.03-.02-.03h-.02s-.02-.03-.02-.03h0s0,.03,0,.04v.05s0,.02-.01.02h-.02s-.01-.01-.02-.01c-.02,0-.04.01-.04.03,0,0,0,0,0,0,0,.03,0,.05.02.08l.02.02s.01.01.01,0v-.05h0s0-.03,0-.03c0,0,.01,0,.02.03v.05s.02.07.02.07c0,.02,0,.04.02.06,0,.02.01.03.02.05.01.02.02.02.02.03,0,0,0,0,0,0,0,0,0,0-.01,0h-.03s-.03.02-.03.12c0,.06.01.12.03.18l.03.08s0,.02,0,.04c0,.1-.14.27-.29.34-.05.02-.08.07-.08.12v.02s.03-.02.05-.02c.04-.01.05-.02.06-.04v-.02s0,0,.04-.03c0,0,.02,0,.02-.02,0-.01.01-.02.02-.02,0,0,0,0,0,0v.03s-.01,0-.01,0c0,.03.02.06.05.07,0-.02,0-.04.02-.06l.03-.04s.01-.04.01-.06c0-.02,0-.03,0-.05h0s0-.02.01-.02c0,0,0,0,0,0v.03s0,.01.01,0c.01,0,.03-.02.05-.05,0-.01,0-.02,0-.04v-.04s0-.02.01-.02h0v.03s.02.02.03.02c0,0,.02-.02.04-.04,0-.02.01-.04.01-.06,0-.03,0-.04.02-.04.01,0,0,0,0,0v.02s0,.01.01.01c.01,0,.02-.02.03-.04,0,0,0,0,0-.01,0,0,0,0-.01,0-.02-.01-.02-.01-.02-.03s0-.04.02-.05c0-.01.01-.02.02-.03.02-.04.02-.05.03-.05,0,0,.01,0,.01.01,0,0,0,0,0,.01,0,0,0,.01,0,.02h0s.02,0,.02,0h.04s.05-.03.05-.03c0,0,.02,0,.03,0h.06s.02-.01.02-.02c0-.02-.01-.03-.02-.05,0,0,0,0,0-.01h0s0,0,0,0c0,0,.03.02.05.06.12.19.17.24.25.27.08.03.11.04.11.1,0,.04-.02.07-.04.1-.06.09-.08.12-.08.18h0s.01,0,.01,0c0,0,.01,0,.02,0h.04s.02-.02.02-.04v-.03s0-.02.01-.03h0s0,0,.01,0l.02.05s.02.03.05.04c0-.01,0-.02,0-.03h0v-.05s0-.03-.01-.04l-.02-.02s-.01-.02-.01-.03c0,0,0,0,0-.01,0,0,0-.01.01-.01,0,0,0,0,.02,0,0,0,0,0,.01,0,0,0,.01-.01.01-.04,0-.02,0-.03,0-.05l-.02-.02-.02-.03s0,0,0-.01c0,0,0-.01.01-.01h0s.02,0,.03,0h0s0,0,0-.01h0v-.04l-.02-.03s0-.01-.01-.01h-.04c-.05,0-.1-.04-.11-.09l-.03-.09s-.04-.06-.07-.08c0,0-.02-.01-.03-.01h-.03s0,0,0,0c0,0,0,0,.02,0h.05s.05,0,.08.02c.03.01.06.02.1.02.06,0,.11-.03.11-.09,0,0,0-.01,0-.02Z"/>
    <path class="cls-1" d="m.4.72s.02-.02.03-.04c0-.01,0-.02,0-.03s0-.02,0-.03c0-.02-.01-.02-.02-.02,0,0-.02,0-.02.03v.03s0,.02,0,.03c0,.02,0,.04,0,.04Z"/>
    <path class="cls-1" d="m.58,1.06v-.09s0-.01,0-.01,0,0-.01.01c-.02.03-.04.05-.06.05-.08,0-.13-.14-.13-.31v-.06s0-.05,0-.07c0-.06-.01-.12-.05-.16l-.02-.02h-.01s0,0,0,0c0,.03,0,.06-.02.09,0,0,0,.02,0,.03,0,.01,0,.02.01.03,0,0,0,.01.01.01h.02v.03s0,.02,0,.03c0,.01,0,.03,0,.04v.02s-.01-.01-.02-.04c0-.02-.03-.05-.04-.05-.02,0-.03,0-.05.01h0s.01.04.01.04l.02.04.02.05s.01.01.02.02h.02s.01.02.01.03c0,0,0,.01,0,.01h-.03s0,0,0,.02c0,.05.04.09.08.12,0,0,.01,0,.01.01,0,0,0,0-.01,0h-.03s-.01,0-.01.01c0,.02.01.05.03.07.01.02.03.04.05.05l.06.03s0,0,0,0c0,0,0,0,0,0h-.04s-.01,0-.01,0c0,.02.01.03.02.05.02.03.03.04.04.04,0,0,0,0,0,0l.02-.03s.02-.02.04-.03c.01,0,.02-.01.04-.02h.03s0,0,0-.01v-.04Z"/>
    <path class="cls-1" d="m.35,1.46s.01,0,.02,0c.03,0,.05-.01.09-.05-.01,0-.03,0-.04,0h-.03s-.04-.02-.06-.03c-.02,0-.04,0-.06.02h.01s.03.03.03.03l.03.02Z"/>
    <path class="cls-1" d="m1.17,1.26s0,0,0-.02v-.02s.01-.01,0-.02c0-.02,0-.03-.02-.05l-.02-.03s-.01-.03-.02-.03h0-.03s-.02.04-.02.04h-.02s-.02.04-.02.06c0,.04,0,.05.05.13.02.03.03.05.03.08,0,.06-.05.1-.16.12l-.06.02s-.08.05-.09.1c.02-.01.04-.01.06-.01h.02s.02,0,.03-.02c.01-.02.03-.03.05-.04h.02s.02-.02.02-.02h0s0,0,0,0c0,0,0,.02-.01.02-.01.01-.02.03-.02.06,0,.01,0,.03.02.04,0-.02.02-.03.03-.04.04-.03.06-.06.06-.08v-.03s0-.02.01-.02c0,0,0,0,0,0v.02s.01,0,.02,0c0,0,.01,0,.02-.02v-.02s.02-.02.02-.03c0,0,0-.01,0-.02h-.01s0-.03,0-.04c0,0,0-.01.01-.01,0,0,0,0,.01,0h.01s0,.01,0,.01c0,0,.01,0,.01-.01v-.02s.01,0,.01-.01c0,0,0,0-.01-.01h-.02s-.04-.06-.05-.09Z"/>
    <path class="cls-1" d="m.88,1.5s.02.02.03.02h.03s.03,0,.03-.01,0,0,0-.01h-.01s-.02-.03-.02-.03c-.01,0-.03-.02-.05-.02-.02,0-.04,0-.05.02.02,0,.03.02.04.03Z"/>
    <path class="cls-1" d="m1.4,1.48s0-.02-.03-.02c-.04,0-.06.02-.08.07h.04s.06-.02.06-.06Z"/>
    <path class="cls-1" d="m.72.74s0,.02.02.02.02-.01.02-.03v-.06s0,0,0,0h-.05s0,0,0,0h0s0,.05,0,.05v.02Z"/>
    <path class="cls-1" d="m3.29.43s.01,0,.02,0l.04.03h.02s.01.02.01.03h0s0,.03,0,.03v.03s0,0,0,0c-.01,0-.02-.01-.03-.02l-.02-.04s-.02-.02-.02-.03c0,0,0-.02,0-.02,0-.01,0-.02,0-.02h0Zm.1.19h.06s0-.01,0-.01c.02,0,.03.01.03.03,0,.01-.02.02-.03.04l-.02.06s-.03.05-.04.05-.04-.02-.05-.06c0-.02-.01-.03-.02-.05,0-.02-.02-.04-.02-.06,0-.01,0-.02.02-.02,0,0,0,0,0,0,0,0,.01,0,.02,0h.02s.02.01.02.01Zm.05-.15s.03-.01.05-.03l.02-.02s0,0,0,.01c0,.03-.02.06-.04.08-.02.03-.02.05-.03.05s-.01-.01-.02-.02h0s-.01-.04-.01-.04h0s0-.04.03-.04Zm-.18.09v.07s.02.04.03.06c0,.02.01.03.02.05.01.02.02.02.02.03,0,0,0,0,0,0,0,0,0,0-.01,0h-.03s-.03.02-.03.12c0,.06,0,.12.03.18l.03.08s0,.02,0,.04c0,.1-.14.27-.29.34-.06.03-.08.06-.08.14.02,0,.03-.02.05-.02.04-.01.05-.02.06-.04v-.02s0-.01.04-.03c0,0,.02,0,.02-.02,0-.01.01-.02.02-.02,0,0,0,0,0,0l-.02.04h0s.02.07.05.08v-.02s0-.03.01-.04l.03-.04s.01-.02.01-.06v-.06s0-.01,0-.01c0,0,0-.01.01-.01,0,0,0,0,0,0v.03s0,.01.01,0c.01,0,.03-.02.05-.05,0,0,0-.02,0-.03,0-.01,0-.03,0-.04h0s0-.02,0-.02h0v.03s.02.02.03.02c.02,0,.04-.05.05-.09,0-.05,0-.04.01-.04,0,0,0,0,0,0v.02s.01.01.02.01.01,0,.02-.02v-.02s.01-.01.01-.02c0,0,0,0-.01-.02-.01,0-.02-.02-.02-.03,0-.03.02-.05.04-.08.02-.04.03-.05.03-.05,0,0,0,0,0,.01,0,0,0,0,0,.01,0,0,0,.01,0,.02,0,0,0,0,.01,0,0,0,.01,0,.02,0h.04s.05-.03.05-.03c0,0,.02,0,.03,0h.06s.02,0,.02-.02c0,0,0-.02,0-.03v-.02s-.02,0-.02-.01h0s0-.01,0-.01c0,0,.03.02.05.06.11.18.16.24.25.27s.11.04.11.09c0,.04-.02.07-.05.1-.04.05-.07.11-.08.18h0s.02,0,.02,0c0,0,.01,0,.02,0h.04s.02-.02.02-.04v-.03s0-.03.02-.03c0,0,0,0,.01,0l.02.05s.02.03.05.04c0,0,0-.02,0-.03v-.02s0-.04,0-.06c0-.01,0-.02-.01-.03l-.02-.02s-.02-.03-.02-.04c0,0,0-.01,0-.01h.02s0,0,.01,0c0,0,.01-.01.01-.04,0-.03,0-.05-.03-.07l-.02-.02s0,0,0-.01c0,0,0-.01.01-.01h.04v-.04s-.01-.04-.02-.04h-.04c-.05,0-.09-.04-.11-.09l-.03-.09s-.05-.05-.08-.07c0,0-.02-.01-.03-.01h-.03s0,0,0,0c0,0,0,0,.01,0,.04,0,.09,0,.13.02.03.01.06.02.09.02.07,0,.12-.04.12-.1,0-.03,0-.07-.03-.1-.02-.02-.04-.05-.07-.06h-.01s0,0,0,0v.02s0,.01,0,.01-.02,0-.03-.03c-.02-.05-.06-.08-.11-.09-.01,0-.01,0-.01,0,0,0,0,.01,0,.02,0,0,0,.02.01.03,0,0,0,0,0,.01h0s-.02,0-.02-.01l-.02-.03-.02-.03s-.03-.04-.06-.05l-.04-.02s-.01,0-.02,0c0,0,0,0,0,0,0,0,0,0,0,0,0,0,0,.01,0,.02,0,0,0,.02.01.03,0,0,0,0,0,0s-.03-.02-.05-.05c-.02-.02-.03-.05-.03-.09,0-.06.04-.11.1-.11h0s.07.01.11.04l.07.04s.05.02.08.03c.01,0,.03,0,.04,0,0,0,.01,0,.02,0,0,0,0,0,0,0,0,0,0,0-.01,0-.05-.01-.1-.03-.14-.06-.02-.01-.03-.02-.05-.03,0,0-.01,0-.01-.01,0,0,0,0,0,0h0l.06.02.06.02s.06.02.1.02c.03,0,.05-.02.05-.04h0s0-.03,0-.04c0-.02-.02-.03-.02-.03,0,0,0,0,0,.02h0v.03s0,.03-.02.03h0s-.02,0-.02,0l-.09-.03s-.1-.03-.15-.03c-.1,0-.19.07-.2.17h0c0,.12.08.19.28.26.2.07.22.08.22.13,0,.03-.03.06-.06.05-.01,0-.02,0-.03,0l-.1-.02c-.06-.01-.12-.02-.18-.02-.1-.01-.21.02-.28.09,0,.01-.03.02-.04.02h-.03s-.03.01-.04.03l-.02.04s0,0-.02,0c-.01,0-.02,0-.04-.04,0-.02-.01-.03-.03-.04l-.03-.03s0,0,0-.01c0,0,0,0,0-.01v-.02s.02-.01.02-.02v-.02s0,0,0,0c0,0,.01,0,.01.04,0,.01,0,.03.01.04l.02.03s0,0,.01,0c.02,0,.03-.03.04-.07,0-.04,0-.04.01-.04s0,0,.02.03c0,0,0,.01.02.02,0,0,.01,0,.02,0,.01,0,.02,0,.02-.03h0v-.03h0s0-.03,0-.03c0,0,0,0,.01,0h.02s.02.03.03.03c.01,0,.02,0,.02-.01,0-.01,0-.01-.02-.03v-.02s-.03-.03-.04-.03h-.03s-.01,0-.01,0c0-.02.01-.04.02-.06.02-.04.02-.07.02-.11v-.07s.02-.06.02-.06c0,0,0,0,0,0v.05s0,.03,0,.04c0,0,.02,0,.02-.02,0,0,.01-.02.01-.03,0-.01.01-.02.01-.04,0-.03-.01-.05-.06-.06h0v-.06h0s0-.03,0-.03h-.01s-.03.03-.05.04c-.01.02-.02.02-.02.02,0,0,0,0,0,0v-.03s-.02-.07-.05-.08h0s-.01.03-.01.03l-.02.02s-.01.03-.01.04h0s0,.03,0,.03h-.01s-.01-.03-.01-.03h-.03s-.01-.03-.01-.03c-.01.02-.02.05-.01.07h0s0,.03-.01.03c0,0-.01,0-.02,0,0,0-.01,0-.02,0-.02,0-.04.02-.04.04h0s0,.05.02.07c.01.02.03.03.03.03,0,0,0-.02,0-.03v-.04s0-.02,0-.02c0,0,.01,0,.02.03v.05Z"/>
    <path class="cls-1" d="m3.07.72s.02-.02.03-.04c0-.01,0-.03,0-.04,0,0,0-.02,0-.03,0-.02-.01-.02-.02-.02,0,0-.02.02-.02.06v.04s0,.03.01.03Z"/>
    <path class="cls-1" d="m2.97.75s.01,0,.01.01,0,.01-.01.01h-.03s0,0,0,.02c0,.05.04.09.09.12,0,0,.01,0,.01.01,0,0,0,0,0,0h-.03s-.01,0-.01,0c0,0-.01,0-.01.02,0,.02.01.04.03.06,0,.02.03.04.05.05l.07.03s0,0,0,0,0,0,0,0h-.04s-.01,0-.01,0c0,.02.01.03.02.05.02.03.03.04.03.04,0,0,0,0,0,0v-.03s.03-.01.05-.03c.01,0,.03-.01.04-.02.03,0,.04,0,.04-.02,0,0,0-.02,0-.03,0,0,0-.02,0-.03v-.06s0-.01,0-.01,0,0-.01.01c-.01.02-.04.04-.06.05-.08,0-.13-.13-.13-.31v-.15c0-.05-.02-.11-.05-.15l-.02-.02h-.01s0,0,0,0c0,.02,0,.04,0,.06,0,.02,0,.03,0,.03,0,0,0,.02,0,.03,0,.02,0,.04.02.05h.02v.03s0,.02,0,.03c0,.01,0,.03,0,.04v.02s-.01-.01-.02-.04c0-.02-.03-.05-.05-.05-.02,0-.03,0-.05.01.02.02.03.05.04.07.03.05.03.06.07.08Z"/>
    <path class="cls-1" d="m3.02,1.46s.01,0,.02,0c.03,0,.05-.01.09-.05-.02,0-.05,0-.07-.02-.02,0-.04-.01-.05-.02-.02,0-.05,0-.06.02h.01s.03.03.03.03l.03.02Z"/>
    <path class="cls-1" d="m3.84,1.26s0-.01,0-.02v-.02s0-.02,0-.02c0-.01,0-.03,0-.04-.01-.02-.02-.03-.02-.03,0,0-.01-.03-.02-.03,0,0-.01,0-.02,0h-.01s-.02.03-.02.03h-.02s-.03.04-.02.06c0,.03,0,.05.05.13.02.02.03.05.03.08,0,.06-.06.11-.16.13-.12.02-.14.04-.15.12.02,0,.04-.01.06-.01h.02s.02,0,.03-.02c.01-.02.03-.03.05-.04h.02s.02-.02.02-.02c0,0,0,0,0,0,0,0,0,.02-.01.02-.01.01-.02.03-.02.05,0,.02,0,.03.01.05,0-.01.02-.03.03-.04.04-.03.06-.06.06-.08v-.03s0-.02.01-.02c0,0,0,0,0,0v.02s.01,0,.02,0c0,0,.02,0,.04-.04,0,0,0-.02,0-.03,0,0,0,0,0-.02h0s0-.03,0-.04c0,0,0-.01.01-.01,0,0,0,0,0,0h.01s0,.01,0,.01c0,0,.01,0,.02-.01v-.02s.01,0,.01-.01c0,0,0-.01-.01-.01h-.02s-.04-.06-.03-.09Z"/>
    <path class="cls-1" d="m3.55,1.5s.02.02.03.02h.03s.03,0,.03-.01c0,0,0,0,0-.01h-.02s-.02-.04-.02-.04c-.01,0-.03-.02-.05-.02-.02,0-.04,0-.05.02.02,0,.03.02.05.04Z"/>
    <path class="cls-1" d="m4.07,1.5s0-.01,0-.02c0,0,0-.01-.02-.01-.04,0-.06.02-.08.07h.04s.02,0,.03,0c.01,0,.02-.02.03-.03Z"/>
    <path class="cls-1" d="m3.37.67v.04s.01.03.01.03c0,.02,0,.02.02.02.01,0,.03-.01.03-.03v-.06s0,0,0,0h-.05s0,0,0,0c0,0,0,0,0,.01Z"/>
    <path class="cls-1" d="m.67,3.33s0-.03-.01-.04c0-.02,0-.03.02-.03,0,0,.01,0,.02,0h.01s.02.02.04.02c0,0,.02,0,.02,0h.02s.01,0,.01,0c.01,0,.02,0,.02.02,0,.02-.02.05-.03.07-.02.03-.03.06-.05.06s-.05-.03-.08-.09Zm-.03-.18v-.02s0-.01,0-.01c0,0,.01,0,.02,0,0,0,.01,0,.02,0,.04.01.05.02.05.04v.05s0,.01,0,.01c-.01,0-.02-.01-.03-.02v-.02s-.04-.04-.04-.04Zm.15,0s.02,0,.03,0l.02-.02v.02s-.04.03-.04.03l-.02.03h0s-.02,0-.02-.03v-.03s.01,0,.03,0Zm.81.4c0-.05-.03-.1-.07-.14,0,0-.02-.02-.04-.02h0v.02h0v.02h0s0,0,0,0l-.03-.04s-.06-.05-.1-.06c0,0-.02,0-.02.01,0,0,0,.01,0,.02,0,0,0,.01.01.02h0s0,.01,0,.01c0,0,0,0-.04-.04-.03-.03-.07-.05-.11-.06,0,0,0,0,0,0,0,0,0,0,0,0,0,0,0,0,0,.02,0,0,.01.01.02.02h0s-.04-.02-.06-.04c-.05-.03-.07-.08-.08-.13,0-.05.03-.1.09-.1h0s.07.01.1.04l.07.05s.07.04.11.04c0,0,.02,0,.02,0,0,0,.01,0,.01,0,0,0,0,0-.01,0-.02,0-.04-.01-.06-.02l-.08-.04s-.04-.03-.05-.04c-.04-.02-.05-.02-.05-.03s0,0,0,0h.01l.04.02s.04.02.06.04c.05.04.1.06.16.07.04,0,.07-.03.07-.07h0s0-.02,0-.03h0s-.02-.03-.02-.03h0v.04h0s-.01.02-.01.02c0,0-.02.01-.03,0-.02,0-.05-.01-.11-.06-.05-.04-.12-.06-.19-.06-.1,0-.19.08-.19.18,0,.14.09.21.36.27.1.02.15.05.15.1s-.03.07-.09.07c-.01,0-.03,0-.04,0l-.15-.04c-.06-.02-.13-.03-.19-.03-.09,0-.18.03-.23.1,0,0-.01.01-.02.01h-.01l-.02-.02s-.03-.02-.05-.02c-.01,0-.02,0-.03.01,0,0-.01,0-.01,0,0,0-.02-.02-.03-.04-.02-.03-.02-.06-.02-.1,0-.01,0-.02.01-.02s0,0,.01.01v.04s.03.04.04.04c0,0,.01,0,.02-.02,0,0,0-.01.01-.02,0-.03.01-.03.02-.03s.01,0,.02.03c0,0,0,.02,0,.02,0,0,.01.02.02.03,0,0,0,0,.01,0,.01,0,.02-.02.02-.05h0v-.03s0-.01,0-.01c0,0,0,0,0,0,0,0,.01.01.02.02,0,0,.01,0,.02,0,0,0,.01,0,.01,0,0,0,0,0,0-.01,0,0,0-.01-.02-.03-.01-.02-.02-.04-.03-.06,0-.01,0-.02-.01-.02h-.03s-.01.02-.01.02c0,0-.01,0-.01,0,0-.01.01-.02.02-.03.01,0,.02-.02.02-.04,0-.02,0-.04,0-.04v-.05s.01-.07.02-.1c0,0,0,0,0,0s0,.01,0,.02v.02s0,.03,0,.03c0,0,.01,0,.02-.02v-.03s.01-.02.01-.03c0-.02-.01-.05-.04-.05h-.01s-.01,0-.01-.02v-.08h0s-.02,0-.02,0h-.02s-.02.03-.02.03l-.02.02s0,0-.01,0c-.01,0-.01,0-.01-.03,0-.02,0-.03-.04-.07h0s0,0,0,0l-.02.03-.02.04v.03s0,.01,0,.01,0,0-.01,0c-.01-.02-.04-.04-.06-.04h0s0,.04,0,.04v.05s0,.01,0,.01h0s-.01,0-.02,0c-.02,0-.04.01-.04.03,0,0,0,0,0,0,0,.02,0,.03.03.07.01.02.02.03.03.03s0,0,0-.02v-.02s0-.01,0-.02c0,0,0-.01,0-.01s.03.04.03.09v.05s0,.04.02.06c0,.02.02.04.04.05.02,0,.02.02.02.02,0,0,0,0,0,0h-.03s-.01,0-.01,0c-.03,0-.04.02-.04.07,0,.07.03.13.08.18l.07.05s.05.06.06.1c0,.04-.05.08-.12.11l-.05.02s-.05.04-.07.11c.01,0,.03,0,.04,0h.03s.03,0,.03-.02h0s0-.02.01-.03v-.02s.02-.01.02-.01c0,0,0,0,0,0,0,0,0,0,0,0,0,0,0,0,0,.01,0,.02,0,.03,0,.05,0,.03,0,.06.02.08,0,0,0-.01,0-.02,0-.01.02-.03.03-.04.02-.02.03-.05.04-.09h0v-.04s0-.01,0-.01c0,0,0,0,0,0,0,0,0,0,.01.01,0,.01,0,.01,0,.01,0,0,.02-.01.02-.03,0,0,0-.02,0-.03,0,0,0-.01,0-.02,0,0,0-.01,0-.02h0s0,0,0,0h.02s0,0,.01,0c0,0,.02,0,.02-.01,0-.01.02-.03.02-.04,0,0,0,0,0-.01-.03-.02-.04-.05-.05-.08,0,0,0-.01,0-.02v-.04s.02-.03.02-.03c0,0,0,0,0,.01,0,0,0,.01,0,.02,0,0,0,.02,0,.03,0,0,0,.01.01.02h0s.02,0,.02,0c.03-.02.06-.03.1-.03.02,0,.04,0,.05.02,0,0,0,0,.01,0,0,0,0,0,0,0,0,0,0,0,0,0,0,0,0-.01,0-.02,0,0,0-.01,0-.02,0,0,0,0,0,0h0s.06.07.09.18c.03.09.03.1.12.15.06.02.1.08.1.15,0,.09-.02.17-.06.25,0,.02-.01.05-.02.08,0,.02,0,.05.01.07,0,.02,0,.03,0,.03,0,0,0,.01.01.02v-.02s.03-.02.03-.02c.02-.02.03-.05.03-.07,0-.02,0-.03,0-.05,0,0,0-.02,0-.02,0,0,0-.02.01-.02s0,0,.01,0l.02.03s.02.02.03.02v-.04s-.01-.07-.03-.1c0,0-.01-.02-.02-.03,0,0,0,0,0,0,.01,0,.02.01.02.01s.01-.02.01-.04c0-.03,0-.06-.03-.08,0,0-.01-.01-.02-.02,0,0,0,0,0,0,0,0,0,0,.01,0,0,0,.01,0,.02,0h.01s.02-.01.02-.06v-.04s0-.04-.02-.04h-.01c-.07,0-.1-.04-.12-.16-.01-.09-.04-.15-.08-.16-.04-.01-.03-.01-.03-.02s0,0,.01,0c0,0,.02,0,.03,0,.05.02.1.03.15.03.06,0,.1-.05.11-.11Z"/>
    <path class="cls-1" d="m1.24,3.96s0-.05,0-.08c0-.02-.02-.04-.02-.06,0-.02-.01-.03-.02-.05,0-.01,0-.02-.02-.02-.04,0-.07.03-.07.07h0s.01.09.03.12c.02.04.03.08.03.12,0,.05-.02.08-.09.1-.07.02-.12.07-.13.14h.03s.02,0,.02,0c.02,0,.03-.01.04-.03v-.02s0,0,.01,0h.02s0,0,0,0v.02s0,.02,0,.03c0,.03,0,.05.02.07,0-.02.02-.04.03-.06.02-.02.03-.04.03-.07v-.03s0-.03.01-.03c0,0,0,0,0,0h0s0,.01.01.01c0,0,0,0,.01,0,0-.01.02-.03.02-.05v-.03s0-.01.01-.01,0,0,.01.01,0,.01.01.01c0,0,0,0,.01,0v-.02s.02-.01.02-.01h0s0-.01-.01-.02c-.03-.03-.04-.06-.04-.1Z"/>
    <path class="cls-1" d="m.6,3.58s0-.03-.01-.03,0,0-.01.01c-.01.02-.03.03-.05.03-.05,0-.11-.08-.14-.18,0-.03-.01-.05-.01-.08,0-.03,0-.06.01-.09l.02-.07v-.02c0-.05-.04-.09-.08-.12,0,0,0,.01,0,.02,0,0,0,.02,0,.04v.03s0,.05.01.08c0,0,0,.02.01.03H.34v.02s-.01,0-.02,0c-.01-.01-.03-.02-.05-.02h-.03v.02s.03.05.03.05l.03.05.03.02s0,0,0,0c0,0,0,0,0,0h-.04s0,.03.01.04l.02.04.02.02.03.02s.01,0,.01.02H.39s-.02,0-.02,0c0,0,0,0,0,.01,0,.02.01.04.03.06.02.03.04.04.06.04h.02s.02,0,.02.01c0,.01,0,0-.01.01-.01,0-.02,0-.02.02,0,0,0,.01,0,.01l.02.03s.02.02.03.02c0,0,.02,0,.02-.01.01-.02.03-.03.05-.03.05-.01.06-.02.06-.03,0,0,0-.01,0-.02-.02-.02-.03-.04-.03-.07Z"/>
    <path class="cls-1" d="m.42,3.35h0s.02-.04.02-.04c0,0,0-.01.01-.02,0,0,0-.01,0-.02,0-.02-.02-.04-.04-.05-.01.03-.02.06-.02.09,0,.02,0,.03.01.03Z"/>
    <path class="cls-1" d="m.65,3.93s.04,0,.05-.01c0,0,.01,0,.01,0s0,0-.01-.02h-.01s-.02-.03-.04-.04c-.02,0-.04.01-.06.03h0s.01.02.01.02c.03.03.03.03.05.03Z"/>
    <path class="cls-1" d="m.97,4.17h.07s.03-.02.03-.02c0,0,.01,0,.01,0,0,0,0,0-.02,0h-.02s-.03-.02-.05-.02c-.03,0-.06.01-.07.03.01,0,.02,0,.03.01h.02Z"/>
    <path class="cls-1" d="m1.39,4.28h-.03s-.04.04-.04.04c-.03.02-.05.05-.05.08,0,.01,0,.02,0,.04,0-.02.02-.03.05-.03.03,0,.07-.07.07-.11,0,0,0-.01,0-.01Z"/>
    <path class="cls-1" d="m.75,3.4s.02-.02.02-.05v-.02s0-.01,0-.01h-.04s-.01,0-.01.02c0,.02.01.04.03.06,0,0,.01,0,.02,0Z"/>
    <path class="cls-1" d="m3.28,3.28s0-.03.02-.03c0,0,.01,0,.02,0l.02.02s.01,0,.02,0c.01,0,.02,0,.03,0h.02s.01,0,.01,0c.01,0,.02.01.02.03,0,.03-.02.05-.04.07v.03s-.04.02-.05.02c0,0-.03,0-.05-.06-.02-.02-.03-.05-.03-.07h0Zm-.02-.16s0,0,0,0h.02s.02.02.03.03c.02,0,.03.01.03.02,0,0,0,.01,0,.02v.02s-.01.02-.02.02c0,0-.02-.01-.04-.04,0-.02-.02-.04-.02-.06h0Zm.12.05s0-.01.01-.02h.03s.03-.02.03-.02h.01s0,0,0,0h0s-.01.03-.01.03l-.03.03s-.01.02-.02.03c0,0,0,0,0,0,0,0-.02,0-.02-.01v-.05h0Zm-.3.82l-.09.03c-.06.01-.09.06-.09.12.01,0,.03-.02.04-.02h.05s0-.02.01-.02l.03-.03s.02-.02.02-.02c0,0,0,0,0,0,0,0,0,.02-.01.02,0,.01,0,.02,0,.04,0,.02,0,.04.02.06,0,0,0-.01,0-.02,0-.01.01-.02.02-.03.02-.02.03-.04.03-.07,0-.02,0-.03,0-.03,0,0,0,0,0,.01h0s0,0,0,0h.01s.02-.01.02-.02c0,0,.01-.02.01-.03,0,0,0-.02,0-.03v-.02h0s.01,0,.02,0c0,0,0,0,0,0,0,0,0,0,.01,0,.02-.01.03-.03.03-.05v-.05s0,0,0,0c0,0,.01,0,.02.03,0,.02,0,.01.01.01,0,0,.01,0,.03-.02v-.02s.01,0,.01-.01c0,0,0,0,0-.01v-.02s-.01,0-.01-.01c0-.02,0-.05.02-.07,0-.01.01-.02.02-.04,0,0,0,0,0,0s0,0,0,0v.04s0,0,.01,0h.05s.03-.03.04-.03c.03-.02.06-.03.1-.04.02,0,.05,0,.07.02h.01s0,0,.01,0c0,0,0,0,0-.01,0,0,0-.01,0-.02,0,0,0-.01,0-.02,0,0,0,0,0,0h0s0,0,.01,0l.03.06s.05.07.09.09h.06s.02.03.02.05c0,.04-.02.08-.06.11l-.05.03s-.03.04-.03.07c0,.02,0,.05,0,.07h0s.03-.03.03-.03l.02-.02v-.03s.02-.03.02-.03c0-.01.01-.02.02-.02s0,0,0,.02h0s0,.05.02.07v-.04s.02-.02.02-.02c.01-.02.02-.05.02-.07,0,0,0-.02,0-.03,0,0,0,0,0-.01,0,0,0,0,0,0,0,0,.01,0,.01,0,0,0,.01.01.01.01,0,0,.01-.01.02-.03h0s0-.04-.01-.05c0,0,0,0,0-.01,0,0,0,0,0,0h0s.01,0,.02.01c0,0,0,0,.01,0,0,0,.02,0,.02-.03,0,0,0-.01,0-.02h-.02s-.06-.01-.08-.04l-.04-.05s-.03-.03-.04-.05l-.03-.02s0,0,0-.01c0,0,0,0,.01,0,.03,0,.05.01.07.03.05.02.1.03.14.03.07,0,.12-.05.13-.11h0c0-.05-.02-.1-.06-.13,0,0-.01-.02-.03-.02,0,0,0,0,0,0,0,0,0,.01,0,.02,0,0,0,0,0,.01,0,0,0,0,0,0,0,0-.02-.01-.03-.04,0-.03-.03-.05-.07-.07-.01,0-.03-.01-.04-.02h0s0,.02,0,.02c0,0,0,.02.01.03,0,0,0,0,0,0,0,0-.01,0-.03-.03-.02-.02-.04-.04-.07-.05h-.02s0,0,0,0c0,0,0,0,0,.01h0s0,.02,0,.02c-.02-.01-.04-.03-.06-.05-.02-.02-.03-.05-.04-.09,0-.06.05-.1.11-.1.01,0,.03,0,.04,0l.05.03.06.04s.07.04.11.04c.02,0,.03,0,.04,0,.01,0,.02,0,.02-.02h-.03s-.06-.02-.09-.04l-.07-.04-.06-.02s0,0,0,0c0,0,0,0,0,0h.02l.05.02s.05.02.07.03c.04.02.08.04.13.05.03,0,.06-.02.06-.05h0s0-.03,0-.04c0,0,0-.01,0-.02,0,0,0,0,0,0,0,0,0,0,0,.01v.02s-.01.03-.04.03c-.04,0-.09-.02-.13-.04-.05-.02-.1-.03-.15-.04-.11,0-.19.08-.2.19,0,.09.06.15.17.2l.12.05c.1.04.14.07.14.11s-.03.05-.08.05c-.03,0-.06,0-.09-.02-.08-.03-.17-.05-.25-.05-.09,0-.18.03-.24.09,0,0-.01.01-.02.01,0,0-.02,0-.02,0,0,0-.02,0-.03-.01-.01,0-.03,0-.04.02v.02s-.02,0-.03,0c-.01,0-.03-.02-.04-.04,0-.01-.01-.02-.01-.04,0-.01,0-.03,0-.04v-.08s0,0,0,0c0,0,.01,0,.01.02h0c0,.06.02.09.03.09.02,0,.03-.03.04-.08,0,0,0-.02,0-.02,0,0,0,0,.01.03,0,.02.01.03.02.05,0,0,.01.01.02.01s.02-.02.03-.06c0-.02,0-.03.01-.03h.01s0,.03.02.03c0,0,0,0,.01,0,0,0,0,0,.02,0,0,0,0,0,0-.01,0,0,0,0,0-.01-.01-.01-.02-.03-.03-.05v-.03s-.01,0-.02,0h-.04s0,0,0,0c0,0,0,0,0,0,0,0,0-.01.01-.02.05-.04.09-.1.09-.17,0-.03.01-.06.03-.08,0,0,0,0,0,0s0,0,0,.01v.02s0,.01,0,.02h0s.01,0,.01,0l.02-.02s.02-.04.02-.06c0-.01,0-.02-.01-.03,0-.01-.01-.01-.02-.01h-.02s-.01,0-.01,0h0v-.06s-.02-.02-.02-.02h0s0,0,0,0h-.02s-.01.02-.02.03c-.02.03-.02.03-.03.03t0,0h0v-.03s-.02-.06-.04-.08c-.03.02-.04.06-.05.09v.02s0,0,0,0c0,0,0,0,0,0l-.02-.02s-.01-.01-.02-.02h-.01s0,0,0,0c-.01.02-.02.04-.02.07,0,.02,0,.02,0,.02h0s-.02-.01-.03-.01c-.02,0-.04.02-.04.04h0s0,.04.02.05c.01.02.03.04.04.04,0,0,0,0,0,0v-.05s0,0,0,0,.02.04.03.11c0,.05.02.1.06.14,0,0,0,0,.01.02,0,0-.01,0-.02,0,0,0-.01,0-.02,0-.01,0-.03.02-.03.03v.08s-.02.11-.02.11c0,.03,0,.06,0,.09,0,.02.01.05.01.07,0,.09-.06.16-.15.18Z"/>
    <path class="cls-1" d="m3.66,3.76s-.01,0-.02,0h-.01s0,0,0,0h0s0-.01,0-.01c0,0,0,0-.01,0h-.02s-.02,0-.02.02v.02s-.01.03-.03.04l-.03.02s-.05.07-.06.11c0,.02,0,.04.01.06,0,.02.02.05.02.08,0,.07-.1.16-.3.26-.1.05-.12.08-.12.15v.03s.02-.02.07-.03c.03,0,.06-.03.07-.06,0-.02.01-.04.04-.05,0,0,.01,0,.02-.01h0s0,.02,0,.03c0,0,0,.02,0,.03,0,.02,0,.04.02.06,0-.02.02-.03.04-.04.03-.02.04-.04.05-.09,0-.02,0-.03.01-.03,0,0,0,0,0,0v.02s.02,0,.02,0c0,0,.01,0,.02-.01l.02-.02s.02-.04.02-.06c0-.01,0-.02.01-.02,0,0,0,0,0,0v.03s.02.01.02.01c0,0,0,0,.01,0,0,0,.01-.01.02-.02,0,0,.01-.02.01-.03h0s0-.02,0-.03h0s0,0,0,0h0s0,.03.01.03c0,0,.01,0,.03-.02,0,0,0,0,0-.01,0,0,0-.01,0-.02,0,0,0,0,0,0-.02-.03-.03-.06-.03-.1,0-.06.03-.12.07-.16.03-.03.05-.07.05-.11,0,0,0-.01-.01-.01Z"/>
    <path class="cls-1" d="m2.94,3.32s.03.03.03.04c0,0,0,0,0,.01h-.02s-.01.01-.01.03c0,.01,0,.02,0,.04,0,0,0,.01.01.02h.01s0,.02,0,.03c0,0,0,.01,0,.01,0,0,0,0-.01,0h-.01s0,0,0,.01v.06s.02.02.02.03c0,0,.01.01.02.02h.03s0,.02,0,.02c0,0,0,0,0,0h-.03s-.02,0-.02.01c0,0,0,.02,0,.02v.02s.02.04.03.04c0,0,0,0,0,0,.03-.02.06-.03.09-.03.02,0,.05,0,.07,0h.01v-.09s0-.03,0-.03v-.02h-.01s-.04.04-.07.04c-.07,0-.1-.07-.1-.2,0-.07,0-.14.02-.22,0-.01,0-.03,0-.04,0-.05-.04-.1-.08-.12v.04s0,.02,0,.02c0,0,0,.02,0,.03,0,.02,0,.05.02.07,0,.02.02.03.02.05,0,0,0,0,0,0v-.02s-.03-.02-.05-.02h-.01s.01.03.02.05c.01.02.02.02.04.05Z"/>
    <path class="cls-1" d="m3.07,3.31s.02-.03.02-.04c0,0,0-.01,0-.02,0-.01-.01-.02-.02-.02s0,.01-.01.03v.08h.01s0-.02,0-.02Z"/>
    <path class="cls-1" d="m2.95,3.95s.03.03.06.03h.04s.01,0,.01,0c0,0,.01,0,.01,0,0,0-.02-.02-.03-.02l-.04-.02s-.02,0-.03,0c-.02,0-.04,0-.06.02.01,0,.02,0,.03.02Z"/>
    <path class="cls-1" d="m3.18,4.31l.04-.02s.04-.02.04-.03-.02-.02-.04-.02c-.05,0-.1.03-.1.09h0s.04,0,.07-.02Z"/>
    <path class="cls-1" d="m3.77,3.95h.02s.03-.04.03-.04-.01-.01-.04-.01c-.04,0-.07.02-.09.07.01,0,.02,0,.04,0h.04Z"/>
    <path class="cls-1" d="m3.33,3.36s.01.03.02.03c0,0,.02-.02.03-.05,0-.03,0-.02,0-.02,0,0,0-.01-.02-.01h-.02s-.01,0-.01.02h0s0,.03,0,.03Z"/>
    <circle class="cls-1" cx="1.87" cy="2.19" r=".04"/>
    <circle class="cls-1" cx="2.59" cy="2.19" r=".04"/>
    <path class="cls-1" d="m1.87,2.57s.04-.02.04-.04h0s-.02-.04-.04-.04c-.02,0-.04.02-.04.04s.02.04.04.04h0Z"/>
    <circle class="cls-1" cx="2.59" cy="2.53" r=".04"/>
    <path class="cls-1" d="m2.05,2.36s.11-.07.18-.07.13.02.17.07c-.04.05-.11.08-.17.08-.07,0-.13-.03-.18-.08Zm.39,0c-.1-.12-.29-.13-.41-.03-.01,0-.02.02-.03.03.05.07.14.11.22.11.08,0,.16-.04.21-.11Z"/>
    <path class="cls-1" d="m2.22,2.32s-.07,0-.1.02c.06.04.14.04.2,0-.03-.02-.07-.02-.1-.02Z"/>
    <path class="cls-1" d="m1.99,2.07v-.07s-.01-.06-.04-.06c0,0-.01,0-.02,0h0s0,.01,0,.02c0,0,0,.01,0,.02v.09h0s.02.05.04.05c.02,0,.04-.01.04-.03h0v-.02h0Z"/>
    <path class="cls-1" d="m2.27,2.07v-.07s-.01-.06-.04-.06-.04.02-.04.05v.09s.02.04.04.04h0s.04-.01.04-.03h0v-.02h0Z"/>
    <path class="cls-1" d="m2.54,2.07v-.07s-.01-.06-.04-.06c0,0-.01,0-.02,0,0,0,0,0,0,0,0,0,0,0,0,.01,0,0,0,.01,0,.02v.09h0s.02.05.04.05c.02,0,.04-.01.04-.03h0v-.02h0Z"/>
    <rect class="cls-1" x="1.89" y="2.75" width=".08" height=".11"/>
    <rect class="cls-1" x="1.89" y="2.89" width=".08" height=".04"/>
    <rect class="cls-1" x="2.47" y="2.75" width=".09" height=".11"/>
    <rect class="cls-1" x="2.47" y="2.89" width=".09" height=".04"/>
  </g>
</svg>